<?xml version="1.0" standalone="no"?>
<!DOCTYPE svg PUBLIC "-//W3C//DTD SVG 1.1//EN" "http://www.w3.org/Graphics/SVG/1.1/DTD/svg11.dtd" >
<svg xmlns="http://www.w3.org/2000/svg">
<metadata></metadata>
<defs>
<font id="kelsonmedium" horiz-adv-x="1134" >
<font-face units-per-em="2048" ascent="1638" descent="-410" />
<missing-glyph horiz-adv-x="512" />
<glyph unicode="&#xfb01;" horiz-adv-x="1271" d="M403 1188v-14h289v-242h-289v-932h-276v1147q0 248 106.5 355.5t339.5 107.5q86 0 146 -13v-217q-63 13 -105 13q-111 0 -161 -48.5t-50 -156.5zM1145 1231v-1231h-277v1231h277zM1145 1675v-264h-277v264h277z" />
<glyph unicode="&#xfb02;" horiz-adv-x="1355" d="M403 1188v-14h289v-242h-289v-932h-276v1147q0 248 106.5 355.5t339.5 107.5q86 0 146 -13v-217q-63 13 -105 13q-111 0 -161 -48.5t-50 -156.5zM1309 233v-245q-67 -5 -121.5 -5.5t-98 12t-77 29t-58.5 46.5t-42 64.5t-27 82.5t-14.5 101t-4.5 120v1143h275v-1155 q0 -122 35.5 -160t132.5 -33z" />
<glyph horiz-adv-x="682" />
<glyph horiz-adv-x="0" />
<glyph horiz-adv-x="0" />
<glyph unicode="&#xd;" horiz-adv-x="512" />
<glyph unicode=" "  horiz-adv-x="512" />
<glyph unicode="&#x09;" horiz-adv-x="512" />
<glyph unicode="&#xa0;" horiz-adv-x="512" />
<glyph unicode="!" horiz-adv-x="530" d="M135 1561h260l-6 -1072h-248zM399 285v-285h-268v285h268z" />
<glyph unicode="&#x22;" horiz-adv-x="808" d="M311 1077h-186l-27 504h244zM678 1077h-186l-27 504h244z" />
<glyph unicode="#" horiz-adv-x="1202" d="M872 1563h191l-80 -375h209l-39 -184h-207l-92 -445h209l-39 -184h-209l-78 -375h-188l78 375h-217l-76 -375h-191l78 375h-207l39 184h207l92 445h-209l39 184h209l78 375h188l-79 -375h217zM541 1004l-92 -445h217l92 445h-217z" />
<glyph unicode="$" horiz-adv-x="1206" d="M727 -227h-242v213q-102 13 -178.5 52t-123 98t-69 131t-22.5 157h273q6 -213 241 -213q130 0 182 53.5t52 171.5q0 101 -64 154.5t-237 97.5q-53 14 -92 26.5t-84.5 33t-78 43.5t-64.5 57.5t-51.5 76t-31.5 98t-12 124.5q0 370 360 424v217h242v-217q340 -49 367 -428 h-273q-17 203 -221 203q-104 0 -154.5 -44.5t-50.5 -144.5q0 -101 53 -150.5t187 -82.5q60 -15 104 -29t97 -36t90.5 -46.5t75 -61.5t60.5 -80t37.5 -102t14.5 -129q0 -205 -94 -316.5t-293 -137.5v-213z" />
<glyph unicode="%" horiz-adv-x="1638" d="M512 1145v139q0 88 -22.5 119t-83.5 31q-60 0 -82.5 -31t-22.5 -119v-139q0 -91 23 -123.5t82 -32.5q61 0 83.5 32.5t22.5 123.5zM106 1139v159q0 304 300 304q301 0 301 -304v-159q0 -316 -301 -316q-300 0 -300 316zM1126 416v-140q0 -88 23 -118.5t84 -30.5 q60 0 82 30.5t22 118.5v140q0 91 -22.5 123t-81.5 32q-61 0 -84 -32t-23 -123zM1532 422v-160q0 -303 -299 -303q-301 0 -301 303v160q0 315 301 315q299 0 299 -315zM1102 1561h213l-780 -1561h-213z" />
<glyph unicode="&#x26;" horiz-adv-x="1363" d="M1253 705h-190v-277q0 -116 33 -158.5t116 -42.5q36 0 66 6v-247q-74 -9 -109 -9q-116 0 -182 38t-98 116q-105 -156 -350 -156q-216 0 -337.5 115.5t-121.5 327.5q0 153 72.5 255t203.5 144q-231 85 -231 354q0 192 125 303t350 111q212 0 337 -111t144 -325h-276 q-9 108 -64.5 163.5t-148.5 55.5q-97 0 -152 -50.5t-55 -154.5q0 -103 68 -169t200 -66h600v-223zM807 489v216h-172q-125 0 -204 -62t-79 -201q0 -241 223 -241q123 0 177.5 71t54.5 217z" />
<glyph unicode="'" horiz-adv-x="440" d="M311 1077h-186l-27 504h244z" />
<glyph unicode="(" horiz-adv-x="665" d="M410 1229v-1051q0 -121 32 -169t121 -48q7 0 20 1t17 1v-248q-35 -4 -98 -4q-109 0 -181.5 27.5t-115.5 87.5t-60.5 145.5t-17.5 212.5v1039q0 127 17.5 212.5t60.5 145.5t115.5 87.5t181.5 27.5q46 0 98 -6v-246q-4 0 -17 1t-20 1q-89 0 -121 -48t-32 -169z" />
<glyph unicode=")" horiz-adv-x="665" d="M258 178v1051q0 121 -33.5 169t-122.5 48q-8 0 -20 -1t-16 -1v246q55 6 98 6q110 0 182.5 -27.5t115 -87.5t60 -145.5t17.5 -212.5v-1039q0 -127 -17.5 -212.5t-60 -145.5t-115 -87.5t-182.5 -27.5q-61 0 -98 4v248q4 0 16 -1t20 -1q89 0 122.5 48t33.5 169z" />
<glyph unicode="*" horiz-adv-x="782" d="M530 1335q-2 -18 -2 -49q101 -35 172 -106l-176 -176q-75 75 -102 170q-16 2 -51 2q-28 -93 -107 -172l-172 174q77 81 166 106q4 14 4 47q-109 41 -172 107l176 176q77 -77 105 -170h49q24 88 106 170l174 -176q-78 -78 -170 -103z" />
<glyph unicode="+" d="M993 879v-228h-305v-311h-244v311h-303v228h303v315h244v-315h305z" />
<glyph unicode="," horiz-adv-x="561" d="M260 -348h-221l139 573h279z" />
<glyph unicode="-" horiz-adv-x="727" d="M618 756v-230h-509v230h509z" />
<glyph unicode="." horiz-adv-x="561" d="M418 289v-289h-275v289h275z" />
<glyph unicode="/" horiz-adv-x="835" d="M518 1581h256l-457 -1606h-256z" />
<glyph unicode="0" horiz-adv-x="1191" d="M387 1059v-551q0 -154 49 -215.5t160 -61.5t160 61.5t49 215.5v551q0 149 -49 209.5t-160 60.5t-160 -60.5t-49 -209.5zM596 1585q256 0 373.5 -129t117.5 -409v-527q0 -283 -117.5 -414t-373.5 -131t-374 131t-118 414v527q0 280 118 409t374 129z" />
<glyph unicode="1" horiz-adv-x="980" d="M88 254h303v1028l-311 -135v274l348 140h246v-1307h262v-254h-848v254z" />
<glyph unicode="2" horiz-adv-x="1083" d="M369 338v-84h630v-254h-917v266q0 106 22 191t59.5 141t86 100t101.5 74.5t106.5 57.5t102 55.5t86 63t59.5 85.5t22 117q0 96 -54.5 142t-152.5 46q-213 0 -213 -233h-241q0 477 471 477q233 0 348.5 -112.5t115.5 -305.5q0 -122 -35 -214.5t-90.5 -147t-123 -96.5 t-135 -75t-123 -69t-90.5 -92.5t-35 -132.5z" />
<glyph unicode="3" horiz-adv-x="1118" d="M1008 1178q0 -128 -51 -224t-136 -135q88 -39 150.5 -133t62.5 -240q0 -222 -132 -346.5t-359 -124.5q-243 0 -365.5 117.5t-122.5 343.5h275q0 -102 56 -156.5t159 -54.5q209 0 209 221q0 129 -65.5 181.5t-207.5 52.5h-149v233h172q124 0 178.5 63.5t54.5 166.5 q0 192 -211 192q-100 0 -154.5 -51.5t-54.5 -155.5h-243q0 237 119.5 347t347.5 110q99 0 182 -24t147.5 -72t101 -127.5t36.5 -183.5z" />
<glyph unicode="4" horiz-adv-x="1165" d="M944 0h-276v350h-627v236l569 975h334v-963h156v-248h-156v-350zM313 598h355v621z" />
<glyph unicode="5" horiz-adv-x="1118" d="M770 459v37q0 118 -64.5 174.5t-201.5 56.5h-381v834h833v-256h-559v-336h135q514 0 517 -467v-41q0 -243 -127 -364.5t-355 -121.5q-132 0 -226.5 35.5t-148.5 102.5t-78 152.5t-24 197.5h279q5 -124 46 -181t148 -57q111 0 159 57.5t48 176.5z" />
<glyph unicode="6" horiz-adv-x="1150" d="M377 1092v-181q98 88 280 88q195 0 306.5 -112t111.5 -350v-101q0 -229 -126.5 -345t-364.5 -116q-240 0 -361 117t-121 367v631q0 251 125.5 373t364.5 122q237 0 347 -115t110 -315h-265q-3 90 -53 137t-141 47q-113 0 -163 -60.5t-50 -186.5zM379 547v-96 q0 -127 47 -179.5t162 -52.5q106 0 157.5 53.5t51.5 176.5v77q0 123 -51.5 178.5t-157.5 55.5q-101 0 -155 -48.5t-54 -164.5z" />
<glyph unicode="7" horiz-adv-x="1017" d="M440 0h-311l535 1303h-633v258h936v-238z" />
<glyph unicode="8" horiz-adv-x="1171" d="M584 -25q-251 0 -381.5 125t-130.5 353q0 136 52 229t144 139q-170 86 -170 338q0 210 130 318t356 108t355.5 -108t129.5 -318q0 -253 -172 -338q93 -46 146 -139t53 -229q0 -228 -130.5 -353t-381.5 -125zM584 225q119 0 174 60t55 166q0 123 -58.5 178t-170.5 55 t-171 -55t-59 -178q0 -106 55.5 -166t174.5 -60zM584 932q213 0 213 209q0 194 -213 194t-213 -194q0 -209 213 -209z" />
<glyph unicode="9" horiz-adv-x="1150" d="M774 469v180q-98 -88 -280 -88q-195 0 -306.5 112.5t-111.5 350.5v100q0 229 126.5 345t364.5 116q240 0 361 -116.5t121 -366.5v-631q0 -251 -125.5 -373.5t-364.5 -122.5q-237 0 -347 115.5t-110 315.5h265q3 -90 53 -137.5t141 -47.5q113 0 163 61t50 187zM772 1014 v96q0 126 -47 178.5t-162 52.5q-106 0 -157.5 -53t-51.5 -176v-78q0 -122 51.5 -177.5t157.5 -55.5q101 0 155 48.5t54 164.5z" />
<glyph unicode=":" horiz-adv-x="561" d="M418 289v-289h-275v289h275zM418 1227v-289h-275v289h275z" />
<glyph unicode=";" horiz-adv-x="561" d="M260 -348h-221l139 573h279zM418 1227v-289h-275v289h275z" />
<glyph unicode="&#x3c;" d="M193 520v262l749 373v-258l-485 -242l485 -231v-274z" />
<glyph unicode="=" d="M973 641v-227h-811v227h811zM973 1092v-228h-811v228h811z" />
<glyph unicode="&#x3e;" d="M942 784v-262l-749 -372v258l483 239l-483 234v274z" />
<glyph unicode="?" horiz-adv-x="1069" d="M614 522v-33h-258v33q0 102 20.5 173.5t53 108t72 61t78.5 43.5t71.5 44.5t53 74t20.5 122.5q0 118 -56 165.5t-155 47.5q-109 0 -163 -65.5t-54 -188.5h-242q0 477 471 477q233 0 352 -110.5t119 -315.5q0 -103 -21 -176.5t-55 -113t-74.5 -67t-81.5 -48.5t-75 -46.5 t-55 -71.5t-21 -114zM621 285v-285h-269v285h269z" />
<glyph unicode="@" horiz-adv-x="2064" d="M1178 1092l8 71h207v-456q0 -120 31.5 -163.5t103.5 -43.5q81 0 118 69t37 250q0 292 -166.5 436t-488.5 144q-174 0 -293 -32.5t-202 -109t-120.5 -204.5t-37.5 -318q0 -172 40.5 -292.5t124.5 -193.5t202.5 -105.5t283.5 -32.5q115 0 253.5 16t231.5 39l2 -197 q-85 -24 -221 -40.5t-270 -16.5q-165 0 -296.5 25.5t-242 85t-184.5 152.5t-115 232t-41 320q0 452 221 661t678 209q147 0 275 -27t238.5 -86.5t189 -148t123.5 -218t45 -290.5q0 -274 -92.5 -399t-272.5 -125q-222 0 -284 137q-43 -71 -123 -108t-176 -37q-163 0 -260 100 t-97 301v86q0 101 27 180t73 126.5t104.5 71.5t125.5 24q156 0 240 -92zM838 772v-65q0 -112 42 -161.5t126 -49.5q78 0 124 46.5t46 145.5v105q0 192 -168 192q-83 0 -126.5 -49.5t-43.5 -163.5z" />
<glyph unicode="A" horiz-adv-x="1310" d="M975 0l-98 387h-457l-101 -387h-288l454 1561h340l455 -1561h-305zM651 1280l-164 -631h324z" />
<glyph unicode="B" horiz-adv-x="1243" d="M1165 477v-28q0 -236 -127.5 -342.5t-404.5 -106.5h-498v1561h443q134 0 226 -19.5t158.5 -65.5t98.5 -125.5t33 -197.5v-23q0 -218 -150 -299q99 -38 160 -126.5t61 -227.5zM874 449v20q0 121 -56 165t-185 44h-219v-438h237q126 0 174.5 46t48.5 163zM582 1321h-168 v-403h190q119 0 165 41.5t46 154.5v14q0 51 -10 86t-27 56t-48 32.5t-64 15t-84 3.5z" />
<glyph unicode="C" horiz-adv-x="1255" d="M872 522h302v-37q-6 -510 -523 -510q-277 0 -403.5 141t-126.5 419v487q0 281 126.5 422t403.5 141q260 0 390 -129.5t130 -380.5v-22h-303v28q0 238 -217 238q-133 0 -183 -73.5t-50 -233.5v-465q0 -161 48.5 -233t184.5 -72q113 0 164.5 56t56.5 183v41z" />
<glyph unicode="D" horiz-adv-x="1273" d="M135 0v1561h455q297 0 431 -141t134 -435v-418q0 -288 -134.5 -427.5t-430.5 -139.5h-455zM592 1311h-178v-1061h178q149 0 207.5 69.5t58.5 229.5v457q0 165 -58.5 235t-207.5 70z" />
<glyph unicode="E" horiz-adv-x="1132" d="M422 1303v-385h510v-250h-510v-410h612v-258h-897v1561h877v-258h-592z" />
<glyph unicode="F" horiz-adv-x="1081" d="M1016 1561v-258h-594v-406h504v-250h-504v-647h-285v1561h879z" />
<glyph unicode="G" horiz-adv-x="1314" d="M924 496v79h-258v250h544v-307q0 -279 -128.5 -411t-415.5 -132q-283 0 -414 139t-131 416v494q0 282 135 421.5t414 139.5q274 0 407 -127t135 -379v-16h-288v22q0 125 -61 180.5t-193 55.5q-139 0 -198.5 -70t-59.5 -231v-488q0 -166 55 -231t207 -65q131 0 190.5 63 t59.5 197z" />
<glyph unicode="H" horiz-adv-x="1333" d="M1198 1561v-1561h-280v670h-498v-670h-285v1561h285v-633h498v633h280z" />
<glyph unicode="I" horiz-adv-x="559" d="M422 1561v-1561h-285v1561h285z" />
<glyph unicode="J" horiz-adv-x="1099" d="M16 457h263q3 -115 52 -170.5t154 -55.5t156 61.5t51 205.5v1063h283v-1045q0 -151 -32.5 -256.5t-97.5 -167.5t-154.5 -89.5t-213.5 -27.5q-231 0 -345.5 119t-115.5 363z" />
<glyph unicode="K" horiz-adv-x="1318" d="M1286 0h-346l-379 670h-141v-670h-285v1561h285v-641h141l336 641h332l-432 -754z" />
<glyph unicode="L" horiz-adv-x="1048" d="M983 256v-256h-846v1561h285v-1305h561z" />
<glyph unicode="M" horiz-adv-x="1515" d="M768 795l303 766h309v-1561h-270v1049l-244 -590h-219l-241 588v-1047h-271v1561h330z" />
<glyph unicode="N" horiz-adv-x="1325" d="M135 1561h293l498 -1057v1057h264v-1561h-287l-502 1034v-1034h-266v1561z" />
<glyph unicode="O" horiz-adv-x="1325" d="M418 1040v-520q0 -150 55.5 -219.5t188.5 -69.5q136 0 190.5 69t54.5 220v520q0 150 -55.5 219.5t-189.5 69.5t-189 -69.5t-55 -219.5zM662 1585q281 0 411.5 -138t130.5 -417v-500q0 -279 -130.5 -417t-411.5 -138q-280 0 -410.5 138.5t-130.5 416.5v500 q0 278 130.5 416.5t410.5 138.5z" />
<glyph unicode="P" horiz-adv-x="1173" d="M135 0v1561h467q261 0 386.5 -109t125.5 -350v-72q0 -239 -120.5 -349t-381.5 -110h-196v-571h-281zM416 1303v-472h194q129 0 175 43t46 166v41q0 129 -53 175.5t-180 46.5h-182z" />
<glyph unicode="Q" horiz-adv-x="1325" d="M662 1585q281 0 411.5 -138t130.5 -417v-500q0 -351 -209 -477l179 -387h-320l-123 311q-11 0 -33.5 -1t-35.5 -1q-280 0 -410.5 138.5t-130.5 416.5v500q0 278 130.5 416.5t410.5 138.5zM418 1040v-520q0 -150 55.5 -219.5t188.5 -69.5q136 0 190.5 69t54.5 220v520 q0 150 -55.5 219.5t-189.5 69.5t-189 -69.5t-55 -219.5z" />
<glyph unicode="R" horiz-adv-x="1198" d="M643 584h-227v-584h-281v1561h455q262 0 393 -109.5t131 -349.5v-43q0 -295 -213 -393l262 -666h-317zM416 1300v-458h186q128 0 175.5 48t47.5 173v24q0 66 -13 108t-44 65t-71.5 31.5t-104.5 8.5h-176z" />
<glyph unicode="S" horiz-adv-x="1171" d="M582 1333q-108 0 -155.5 -42t-47.5 -132q0 -92 53 -139.5t189 -83.5q60 -16 107 -31t99.5 -38.5t92 -49.5t77 -63.5t61 -81.5t38 -102.5t14.5 -127.5q0 -233 -126.5 -350t-403.5 -117q-134 0 -234.5 35t-159.5 97.5t-87.5 142t-28.5 174.5h278q5 -97 62.5 -147t181.5 -50 t176.5 48.5t52.5 162.5q0 94 -64 146t-235 98q-77 21 -133 42t-115 58t-95 84t-59.5 119t-23.5 164q0 212 123 324t356 112q111 0 198 -23t155 -73.5t108.5 -136t50.5 -205.5h-282q-10 98 -65.5 142t-157.5 44z" />
<glyph unicode="T" horiz-adv-x="1165" d="M725 0h-285v1311h-368v250h1022v-250h-369v-1311z" />
<glyph unicode="U" horiz-adv-x="1312" d="M907 1561h283v-1010q0 -287 -126 -431.5t-409 -144.5q-284 0 -408 143.5t-124 432.5v1010h285v-1024q0 -163 51 -234.5t196 -71.5q146 0 199 72.5t53 233.5v1024z" />
<glyph unicode="V" horiz-adv-x="1206" d="M20 1561h318l270 -1244l271 1244h307l-400 -1561h-366z" />
<glyph unicode="W" horiz-adv-x="1804" d="M750 1536h311l209 -1130l186 1155h303l-323 -1561h-322l-215 1100l-213 -1100h-317l-324 1561h309l185 -1143z" />
<glyph unicode="X" horiz-adv-x="1265" d="M893 0l-272 586l-256 -586h-326l416 799l-396 762h330l256 -553l244 553h328l-404 -770l410 -791h-330z" />
<glyph unicode="Y" horiz-adv-x="1249" d="M14 1561h324l291 -654l295 654h311l-469 -904v-657h-285v662z" />
<glyph unicode="Z" horiz-adv-x="1124" d="M1049 1305l-676 -1047h678v-258h-992v256l678 1047h-635v258h947v-256z" />
<glyph unicode="[" horiz-adv-x="718" d="M150 -276v1970h468v-250h-188v-1469h188v-251h-468z" />
<glyph unicode="\" horiz-adv-x="849" d="M70 1581h256l454 -1606h-256z" />
<glyph unicode="]" horiz-adv-x="718" d="M569 1694v-1970h-469v251h189v1469h-189v250h469z" />
<glyph unicode="^" horiz-adv-x="1234" d="M885 481l-269 453l-266 -453h-256l391 658h263l393 -658h-256z" />
<glyph unicode="_" horiz-adv-x="997" d="M948 -88v-221h-899v221h899z" />
<glyph unicode="`" horiz-adv-x="1038" d="M692 1346h-250l-219 272h299z" />
<glyph unicode="a" horiz-adv-x="1122" d="M766 0l-10 94q-103 -119 -310 -119q-160 0 -257 92t-97 259q0 191 115.5 289t361.5 98q55 0 179 -13v125q0 105 -44.5 154t-136.5 49q-96 0 -143 -46t-47 -151h-248q0 223 109 323.5t331 100.5q210 0 325.5 -99t115.5 -325v-831h-244zM748 420v88q-65 12 -156 12 q-121 0 -174 -42.5t-53 -129.5q0 -145 170 -145q89 0 151 58.5t62 158.5z" />
<glyph unicode="b" horiz-adv-x="1161" d="M403 1581v-410q93 84 263 84q197 0 296 -122.5t99 -360.5v-328q0 -119 -31.5 -210.5t-87 -147t-127.5 -83.5t-158 -28q-167 0 -256 86l-8 -61h-266v1581h276zM403 809v-373q0 -217 191 -217q94 0 142 55.5t48 182.5v319q0 125 -44.5 181.5t-143.5 56.5q-193 0 -193 -205z " />
<glyph unicode="c" horiz-adv-x="1122" d="M770 438h266v-18q0 -224 -113.5 -334.5t-355.5 -110.5q-238 0 -352.5 117.5t-114.5 366.5v315q0 247 116.5 364t354.5 117q237 0 350 -107.5t113 -326.5v-24h-268v22q0 101 -44.5 147t-146.5 46q-107 0 -152.5 -53t-45.5 -181v-321q0 -129 45 -184.5t151 -55.5 q104 0 150.5 48t46.5 151v22z" />
<glyph unicode="d" horiz-adv-x="1161" d="M504 1255q167 0 256 -86v412h274v-1581h-241l-13 82q-45 -52 -119.5 -79.5t-164.5 -27.5q-197 0 -296.5 123t-99.5 361v327q0 119 31.5 210.5t87 147t127.5 83.5t158 28zM758 422v373q0 217 -191 217q-94 0 -142 -55.5t-48 -182.5v-319q0 -125 44.5 -181.5t143.5 -56.5 q193 0 193 205z" />
<glyph unicode="e" horiz-adv-x="1116" d="M760 369h256q-6 -198 -111.5 -296t-335.5 -98q-241 0 -355 115.5t-114 368.5v323q0 231 116.5 352t350.5 121q233 0 346 -114t113 -355v-254h-655v-102q0 -116 46 -171.5t150 -55.5q101 0 144.5 41t48.5 125zM569 1026q-107 0 -152.5 -57t-45.5 -189v-37h393v45 q0 123 -45.5 180.5t-149.5 57.5z" />
<glyph unicode="f" horiz-adv-x="755" d="M403 1188v-14h289v-242h-289v-932h-276v1147q0 248 106.5 355.5t339.5 107.5q86 0 146 -13v-217q-63 13 -105 13q-111 0 -161 -48.5t-50 -156.5z" />
<glyph unicode="g" horiz-adv-x="1161" d="M571 -193q99 0 143 54.5t44 183.5v82q-96 -84 -262 -84q-197 0 -296.5 122.5t-99.5 360.5v260q0 119 31.5 210.5t87 147t127.5 83.5t158 28q167 0 256 -86l8 62h264v-1161q0 -259 -119.5 -372.5t-349.5 -113.5t-331.5 95t-106.5 278h264q5 -75 46.5 -112.5t135.5 -37.5z M758 489v306q0 217 -191 217q-94 0 -142 -55.5t-48 -182.5v-252q0 -125 44.5 -181t143.5 -56q193 0 193 204z" />
<glyph unicode="h" horiz-adv-x="1167" d="M403 1581v-412q95 86 273 86q197 0 286 -108.5t89 -335.5v-811h-277v782q0 124 -40.5 177t-141.5 53q-90 0 -139.5 -51t-49.5 -156v-805h-276v1581h276z" />
<glyph unicode="i" horiz-adv-x="530" d="M403 1231v-1231h-276v1231h276zM403 1675v-264h-276v264h276z" />
<glyph unicode="j" horiz-adv-x="530" d="M403 1675v-264h-276v264h276zM-37 -385v235q52 -2 80.5 3t49 27t27.5 63t7 114v1174h276v-1168q0 -265 -97.5 -364t-342.5 -84z" />
<glyph unicode="k" horiz-adv-x="1202" d="M1133 1231l-412 -561l457 -670h-340l-340 535h-97v-535h-274v1581h276v-805h91l311 455h328z" />
<glyph unicode="l" horiz-adv-x="614" d="M567 233v-245q-133 -14 -219 5t-135.5 78t-68.5 145.5t-19 221.5v1143h274v-1155q0 -122 35.5 -160t132.5 -33z" />
<glyph unicode="m" horiz-adv-x="1818" d="M680 1255q207 0 295 -145q105 145 334 145q211 0 301 -105t90 -339v-811h-277v782q0 124 -40.5 177t-141.5 53q-190 0 -190 -234v-778h-277v776q0 128 -40.5 182t-141.5 54q-89 0 -139 -51t-50 -152v-809h-276v1231h240l12 -84q105 108 301 108z" />
<glyph unicode="n" horiz-adv-x="1167" d="M127 1231h240l12 -86q94 110 297 110q197 0 286 -108.5t89 -335.5v-811h-277v782q0 124 -40.5 177t-141.5 53q-90 0 -139.5 -51t-49.5 -156v-805h-276v1231z" />
<glyph unicode="o" d="M377 774v-317q0 -137 41.5 -188.5t148.5 -51.5t149 51.5t42 188.5v317q0 136 -42 187t-149 51t-148.5 -50.5t-41.5 -187.5zM567 1255q241 0 354 -115.5t113 -367.5v-313q0 -253 -113 -368.5t-354 -115.5t-354 115.5t-113 368.5v313q0 252 113 367.5t354 115.5z" />
<glyph unicode="p" horiz-adv-x="1161" d="M657 -25q-167 0 -256 86v-456h-274v1626h242l12 -82q45 52 119.5 79t165.5 27q197 0 296 -122.5t99 -360.5v-328q0 -119 -31.5 -210.5t-87 -147t-127.5 -83.5t-158 -28zM403 809v-373q0 -217 191 -217q94 0 142 55.5t48 182.5v319q0 125 -44.5 181.5t-143.5 56.5 q-193 0 -193 -205z" />
<glyph unicode="q" horiz-adv-x="1161" d="M1034 -395h-276v454q-96 -84 -262 -84q-197 0 -296.5 123t-99.5 361v327q0 119 31.5 210.5t87 147t127.5 83.5t158 28q167 0 256 -86l8 62h266v-1626zM758 422v373q0 217 -191 217q-94 0 -142 -55.5t-48 -182.5v-319q0 -125 44.5 -181.5t143.5 -56.5q193 0 193 205z" />
<glyph unicode="r" horiz-adv-x="774" d="M127 1231h240l16 -111q46 59 123.5 95t169.5 36q25 0 57 -4v-284q-37 6 -84 6q-109 0 -177.5 -65.5t-68.5 -205.5v-698h-276v1231z" />
<glyph unicode="s" horiz-adv-x="1075" d="M573 754q72 -11 129.5 -27t114.5 -46t95 -71t61.5 -104.5t23.5 -143.5q0 -187 -123.5 -287t-345.5 -100q-226 0 -338 101.5t-112 290.5h262q2 -78 51 -117t154 -39q88 0 134 34t46 99q0 82 -47 116.5t-170 49.5q-100 14 -171.5 39t-127 68.5t-82.5 112t-27 163.5 q0 173 115.5 267.5t319.5 94.5q215 0 326.5 -98.5t111.5 -284.5h-254q-3 148 -182 148q-170 0 -170 -115q0 -70 43 -101t163 -50z" />
<glyph unicode="t" horiz-adv-x="733" d="M553 225q42 0 88 11v-246q-67 -15 -154 -15q-207 0 -290.5 109.5t-83.5 349.5v1022h282v-285h246v-239h-246v-506q0 -115 35 -158t123 -43z" />
<glyph unicode="u" horiz-adv-x="1159" d="M793 0l-13 84q-54 -55 -126.5 -82t-178.5 -27q-188 0 -273 108.5t-85 334.5v813h276v-785q0 -123 39 -176t139 -53q185 0 185 207v807h276v-1231h-239z" />
<glyph unicode="v" horiz-adv-x="1067" d="M535 315l206 916h303l-335 -1231h-351l-338 1231h312z" />
<glyph unicode="w" horiz-adv-x="1595" d="M1135 305l151 926h279l-281 -1231h-313l-176 807l-174 -807h-310l-280 1231h297l145 -914l189 914h286z" />
<glyph unicode="x" horiz-adv-x="1107" d="M745 0l-194 440l-197 -440h-313l340 627l-311 604h319l176 -404l183 404h317l-326 -598l328 -633h-322z" />
<glyph unicode="y" horiz-adv-x="1075" d="M207 -150q65 0 110.5 29t65.5 107l8 32l-375 1213h316l229 -893l180 893h308l-295 -1120q-41 -154 -89 -256t-110.5 -162t-134 -84.5t-168.5 -24.5q-89 0 -164 21v260q62 -15 119 -15z" />
<glyph unicode="z" horiz-adv-x="1009" d="M922 989l-523 -745h545v-244h-883v242l529 745h-502v244h834v-242z" />
<glyph unicode="{" horiz-adv-x="823" d="M92 584v250h35q88 0 116.5 43.5t28.5 144.5v201q0 128 16 212.5t56.5 145.5t111 88t179.5 27q41 0 96 -6v-246q-5 0 -17 1t-20 1q-88 0 -117.5 -47t-29.5 -170v-246q0 -109 -38.5 -179.5t-107.5 -94.5q69 -25 107.5 -96t38.5 -179v-246q0 -123 29.5 -170t117.5 -47 q8 0 20 1t17 1v-245q-65 -7 -96 -7q-109 0 -179.5 27t-111 88.5t-56.5 146t-16 212.5v200q0 101 -28.5 145t-116.5 44h-35z" />
<glyph unicode="|" horiz-adv-x="565" d="M424 1692v-1944h-283v1944h283z" />
<glyph unicode="}" horiz-adv-x="823" d="M731 834v-250h-35q-88 0 -116.5 -44t-28.5 -145v-200q0 -128 -16 -212.5t-56 -145.5t-110.5 -88.5t-178.5 -27.5q-33 0 -98 7v245q5 0 17.5 -1t19.5 -1q88 0 117.5 47t29.5 170v246q0 108 38.5 179t105.5 96q-67 24 -105.5 95t-38.5 179v246q0 123 -29.5 170t-117.5 47 q-7 0 -19.5 -1t-17.5 -1v246q55 6 98 6q108 0 178.5 -27t110.5 -88t56 -145.5t16 -212.5v-201q0 -101 28.5 -144.5t116.5 -43.5h35z" />
<glyph unicode="~" horiz-adv-x="1202" d="M874 950h203q-3 -159 -73.5 -252.5t-186.5 -93.5q-68 0 -128 24t-95 52t-79.5 52t-84.5 24q-45 0 -72.5 -39t-29.5 -101h-205q4 160 75 253.5t187 93.5q56 0 105 -15.5t83.5 -38t66 -45t65.5 -38t67 -15.5q45 0 72.5 38.5t29.5 100.5z" />
<glyph unicode="&#xa1;" horiz-adv-x="530" d="M395 -340h-260l6 1071h248zM131 938v283h268v-283h-268z" />
<glyph unicode="&#xa2;" horiz-adv-x="1185" d="M799 438h266v-18q0 -191 -81.5 -298t-254.5 -134v-221h-252v219q-179 26 -263.5 140t-84.5 333v315q0 213 86 327t262 142v221h252v-221q172 -26 253 -130t81 -292v-24h-268v22q0 101 -44.5 147t-146.5 46q-107 0 -152.5 -53t-45.5 -181v-321q0 -129 45 -184.5t151 -55.5 q104 0 150.5 48t46.5 151v22z" />
<glyph unicode="&#xa3;" horiz-adv-x="1206" d="M723 1585q202 0 318 -106t116 -324v-25h-258v25q0 106 -48.5 155.5t-129.5 49.5q-95 0 -142 -55t-47 -199v-242h418v-231h-418v-397h633v-236h-1089v240h188v393h-180v231h180v232q0 253 113.5 371t345.5 118z" />
<glyph unicode="&#xa4;" d="M20 334l166 158q-28 70 -28 180v16q0 107 28 180l-166 158l166 176l154 -149q85 49 227 49t230 -49l151 149l166 -176l-168 -158q31 -73 31 -180v-16q0 -110 -31 -180l168 -158l-166 -174l-153 145q-80 -45 -228 -45q-149 0 -227 45l-154 -145zM389 690v-20 q0 -120 41 -165.5t137 -45.5t137 45.5t41 165.5v20q0 120 -41 165.5t-137 45.5t-137 -45.5t-41 -165.5z" />
<glyph unicode="&#xa5;" horiz-adv-x="1280" d="M135 858h268l-329 703h327l246 -637l250 637h309l-334 -703h273v-209h-363v-147h363v-209h-363v-293h-284v293h-363v209h363v147h-363v209z" />
<glyph unicode="&#xa6;" horiz-adv-x="565" d="M141 549h283v-801h-283v801zM424 891h-283v801h283v-801z" />
<glyph unicode="&#xa7;" horiz-adv-x="1112" d="M1028 848q0 -197 -168 -277q152 -96 152 -290q0 -187 -122.5 -287t-344.5 -100q-226 0 -338.5 101.5t-112.5 289.5h262q2 -93 51 -140t154 -47q87 0 133.5 43t46.5 121q0 86 -49 124t-172 56q-102 14 -172 35.5t-125.5 59.5t-82.5 97.5t-27 143.5q0 88 46.5 157 t125.5 103q-77 43 -116.5 113.5t-39.5 183.5q0 173 118 268t324 95q430 0 430 -383h-253q-3 178 -185 178q-85 0 -128.5 -38.5t-43.5 -106.5q0 -76 45.5 -110.5t165.5 -55.5q73 -11 130 -25t115 -40t95.5 -60.5t61.5 -87.5t24 -121zM537 967q-34 7 -37 8q-125 -42 -125 -152 q0 -76 45.5 -110.5t165.5 -55.5q75 -15 78 -16q94 39 94 145q0 86 -49 124.5t-172 56.5z" />
<glyph unicode="&#xa8;" horiz-adv-x="1024" d="M432 1612v-226h-223v226h223zM815 1612v-226h-223v226h223z" />
<glyph unicode="&#xa9;" horiz-adv-x="1601" d="M901 588h172q-2 -138 -71 -205.5t-214 -67.5q-147 0 -219.5 70.5t-72.5 224.5v197q0 154 72.5 224.5t219.5 70.5q282 0 285 -264h-172q-3 57 -27 82.5t-81 25.5q-66 0 -91.5 -30.5t-25.5 -108.5v-197q0 -78 25.5 -108.5t91.5 -30.5q58 0 81.5 27t26.5 90zM801 111 q289 0 420 121t131 405v139q0 287 -131 410t-420 123q-287 0 -418.5 -122t-132.5 -405v-139q0 -288 130.5 -410t420.5 -122zM801 -41q-356 0 -535.5 165t-179.5 519v137q1 350 181 514t534 164q357 0 536 -164.5t179 -517.5v-139q-1 -350 -180.5 -514t-534.5 -164z" />
<glyph unicode="&#xaa;" horiz-adv-x="870" d="M575 709l-8 71q-69 -90 -213 -90q-112 0 -183 66.5t-71 183.5q0 140 81.5 204t258.5 64q69 0 121 -8v76q0 69 -28 102t-93 33q-67 0 -96 -29.5t-29 -93.5h-184q0 159 76 228t239 69q149 0 229.5 -70t80.5 -229v-577h-181zM762 596v-197h-641v197h641zM561 1012v41 q-54 8 -100 8q-152 0 -152 -109q0 -43 29 -68.5t84 -25.5q60 0 99.5 39.5t39.5 114.5z" />
<glyph unicode="&#xab;" horiz-adv-x="1173" d="M86 680l262 432h275l-261 -434l261 -434h-275zM516 680l262 432h275l-260 -434l260 -434h-275z" />
<glyph unicode="&#xac;" d="M993 952v-463h-245v236h-607v227h852z" />
<glyph unicode="&#xad;" horiz-adv-x="727" d="M618 756v-230h-509v230h509z" />
<glyph unicode="&#xae;" horiz-adv-x="1601" d="M801 -41q-356 0 -535.5 165t-179.5 519v137q1 350 181 514t534 164q357 0 536 -164.5t179 -517.5v-139q-1 -350 -180.5 -514t-534.5 -164zM801 111q289 0 420 121t131 405v139q0 287 -131 410t-420 123q-287 0 -418.5 -122t-132.5 -405v-139q0 -288 130.5 -410 t420.5 -122zM1065 838q0 -149 -100 -203l127 -295h-193l-90 248h-88v-248h-166v737h262q248 0 248 -227v-12zM721 930v-197h72q63 0 85.5 19.5t22.5 74.5v11q0 58 -25 75t-88 17h-67z" />
<glyph unicode="&#xaf;" horiz-adv-x="1024" d="M248 1585h530v-186h-530v186z" />
<glyph unicode="&#xb0;" horiz-adv-x="720" d="M360 1057q-141 0 -217.5 69.5t-76.5 190.5v31q0 123 75.5 192.5t218.5 69.5q141 0 218 -70t77 -192v-31q0 -123 -76 -191.5t-219 -68.5zM360 1212q56 0 84.5 28.5t28.5 80.5v22q-3 111 -113 111q-112 0 -112 -111v-22q3 -109 112 -109z" />
<glyph unicode="&#xb1;" d="M993 227v-227h-852v227h852zM993 944v-227h-305v-271h-244v271h-303v227h303v277h244v-277h305z" />
<glyph unicode="&#xb2;" horiz-adv-x="737" d="M295 924v-6h332v-170h-523v122q0 70 19 124t49.5 85.5t67.5 56t73.5 43t67 38t49.5 49t19 69.5q0 42 -25.5 63t-69.5 21q-50 0 -75 -26.5t-25 -83.5h-158q0 262 273 262q123 0 190.5 -64t67.5 -174q0 -57 -18.5 -103t-47.5 -76t-64.5 -54.5t-71 -43.5t-64.5 -37.5 t-47.5 -42.5t-18.5 -52z" />
<glyph unicode="&#xb3;" horiz-adv-x="737" d="M618 1354q0 -65 -25.5 -112t-68.5 -68q48 -22 78.5 -70t30.5 -117q0 -119 -74.5 -185.5t-198.5 -66.5q-137 0 -201.5 61t-64.5 185h162q0 -48 27.5 -72t74.5 -24q49 0 75 25.5t26 70.5q0 59 -31.5 81.5t-97.5 22.5h-76v146h82q115 0 115 102q0 88 -99 88q-96 0 -96 -98 h-152q0 248 256 248q114 0 186 -55t72 -162z" />
<glyph unicode="&#xb4;" horiz-adv-x="1024" d="M590 1346h-250l170 272h299z" />
<glyph unicode="&#xb5;" horiz-adv-x="1144" d="M385 20v-415h-274v1626h274v-795q0 -117 46.5 -168t135.5 -51q87 0 135 51t48 156v807h274v-1231h-240l-12 80q-30 -48 -86 -76.5t-127 -28.5q-109 0 -174 45z" />
<glyph unicode="&#xb6;" horiz-adv-x="1316" d="M502 -254v811l-56 4q-98 11 -164 45.5t-102 93.5t-50.5 130.5t-14.5 170.5q0 87 11 152.5t39.5 123.5t75.5 94.5t120.5 57.5t173.5 21h202v-1704h-235zM1155 1450v-1704h-237v1704h237z" />
<glyph unicode="&#xb7;" horiz-adv-x="561" d="M418 735v-286h-275v286h275z" />
<glyph unicode="&#xb8;" horiz-adv-x="876" d="M535 0l-15 -66q96 -23 142.5 -77t46.5 -144q0 -113 -76 -172t-223 -59q-136 0 -230 41l25 182q79 -31 162 -31q112 0 112 68q0 41 -42.5 59.5t-133.5 18.5l33 180h199z" />
<glyph unicode="&#xb9;" horiz-adv-x="737" d="M145 918h152v450l-170 -57v180l195 68h161v-641h127v-170h-465v170z" />
<glyph unicode="&#xba;" horiz-adv-x="905" d="M328 1249v-184q0 -116 24 -155.5t101 -39.5q78 0 103.5 39.5t25.5 155.5v147q0 115 -25.5 155t-103.5 40q-70 0 -97.5 -34t-27.5 -124zM121 1030v217q0 174 80.5 256t251.5 82q170 0 250.5 -81.5t80.5 -256.5v-217q0 -176 -80 -258t-251 -82t-251.5 82t-80.5 258z M797 596v-197h-686v197h686z" />
<glyph unicode="&#xbb;" horiz-adv-x="1173" d="M1087 676l-262 -432h-274l260 434l-260 434h274zM657 676l-262 -432h-274l260 434l-260 434h274z" />
<glyph unicode="&#xbc;" horiz-adv-x="1585" d="M1200 1561h197l-905 -1561h-197zM1397 0h-166v182h-348v140l297 489h217v-487h84v-142h-84v-182zM1030 324h201v327zM145 918h152v450l-170 -57v180l195 68h161v-641h127v-170h-465v170z" />
<glyph unicode="&#xbd;" horiz-adv-x="1585" d="M1165 1561h197l-905 -1561h-197zM145 918h152v450l-170 -57v180l195 68h161v-641h127v-170h-465v170zM1135 176v-6h331v-170h-522v123q0 70 19 124t49.5 85.5t67 56t73 43t67 38t49.5 49t19 69.5q0 42 -25 63t-69 21q-100 0 -100 -111h-158q0 130 66 196t206 66 q123 0 190.5 -63.5t67.5 -173.5q0 -57 -18.5 -103t-47.5 -76t-64.5 -54.5t-70.5 -44t-64 -38t-47.5 -42.5t-18.5 -52z" />
<glyph unicode="&#xbe;" horiz-adv-x="1585" d="M1190 1561h196l-905 -1561h-196zM1397 0h-166v182h-348v140l297 489h217v-487h84v-142h-84v-182zM1030 324h201v327zM618 1354q0 -65 -25.5 -112t-68.5 -68q48 -22 78.5 -70t30.5 -117q0 -119 -74.5 -185.5t-198.5 -66.5q-137 0 -201.5 61t-64.5 185h162q0 -48 27.5 -72 t74.5 -24q49 0 75 25.5t26 70.5q0 59 -31.5 81.5t-97.5 22.5h-76v146h82q115 0 115 102q0 88 -99 88q-96 0 -96 -98h-152q0 248 256 248q114 0 186 -55t72 -162z" />
<glyph unicode="&#xbf;" horiz-adv-x="1069" d="M438 698v35h258v-33q0 -103 -20.5 -174.5t-53 -108t-71.5 -61t-78 -43.5t-71.5 -44t-53 -74t-20.5 -123q0 -118 56 -165.5t155 -47.5q108 0 162.5 66t54.5 188h241q0 -238 -119.5 -358t-351.5 -120q-233 0 -352 110.5t-119 315.5q0 103 21 176.5t55 113t74.5 67 t81.5 48.5t75 46.5t55 71.5t21 114zM432 938v283h268v-283h-268z" />
<glyph unicode="&#xc0;" horiz-adv-x="1310" d="M975 0l-98 387h-457l-101 -387h-288l454 1561h340l455 -1561h-305zM651 1280l-164 -631h324zM819 1704h-250l-219 272h299z" />
<glyph unicode="&#xc1;" horiz-adv-x="1310" d="M975 0l-98 387h-457l-101 -387h-288l454 1561h340l455 -1561h-305zM651 1280l-164 -631h324zM733 1704h-250l170 272h299z" />
<glyph unicode="&#xc2;" horiz-adv-x="1310" d="M975 0l-98 387h-457l-101 -387h-288l454 1561h340l455 -1561h-305zM651 1280l-164 -631h324zM764 1704l-109 113l-106 -113h-277l283 274h201l282 -274h-274z" />
<glyph unicode="&#xc3;" horiz-adv-x="1310" d="M975 0l-98 387h-457l-101 -387h-288l454 1561h340l455 -1561h-305zM651 1280l-164 -631h324zM850 1976h170q-7 -132 -61.5 -205t-145.5 -73q-80 0 -156 49q-8 5 -28 18t-26.5 16.5t-20 10t-23.5 8.5t-22 2q-63 0 -74 -96h-170q8 134 61 207.5t144 73.5q35 0 67 -9t52 -19 t49 -28q5 -3 15.5 -10t14 -9t12.5 -7.5t12.5 -7t10.5 -5t11.5 -5t11 -3t12.5 -2t12 -0.5q61 0 72 94z" />
<glyph unicode="&#xc4;" horiz-adv-x="1310" d="M975 0l-98 387h-457l-101 -387h-288l454 1561h340l455 -1561h-305zM651 1280l-164 -631h324zM567 1970v-225h-223v225h223zM950 1970v-225h-223v225h223z" />
<glyph unicode="&#xc5;" horiz-adv-x="1310" d="M975 0l-98 387h-457l-101 -387h-288l454 1561h340l455 -1561h-305zM651 1280l-164 -631h324zM928 1927q0 -119 -70 -187.5t-203 -68.5t-202.5 68.5t-69.5 187.5t69.5 187.5t202.5 68.5t203 -68.5t70 -187.5zM764 1927q0 113 -109 113q-108 0 -108 -113q0 -54 24.5 -83 t83.5 -29q109 0 109 112z" />
<glyph unicode="&#xc6;" horiz-adv-x="1843" d="M1139 1303v-385h510v-250h-510v-410h612v-258h-897v387h-379l-164 -387h-301l688 1561h1033v-258h-592zM586 649h268v633z" />
<glyph unicode="&#xc7;" horiz-adv-x="1255" d="M872 522h302v-37q-6 -463 -435 -505l-10 -46q96 -23 142.5 -77t46.5 -144q0 -113 -76.5 -172t-223.5 -59q-135 0 -229 41l25 182q79 -31 161 -31q113 0 113 68q0 41 -42.5 59.5t-133.5 18.5l29 162q-219 27 -319.5 165.5t-100.5 387.5v487q0 281 126.5 422t403.5 141 q260 0 390 -129.5t130 -380.5v-22h-303v28q0 238 -217 238q-133 0 -183 -73.5t-50 -233.5v-465q0 -161 48.5 -233t184.5 -72q113 0 164.5 56t56.5 183v41z" />
<glyph unicode="&#xc8;" horiz-adv-x="1132" d="M422 1303v-385h510v-250h-510v-410h612v-258h-897v1561h877v-258h-592zM741 1704h-249l-220 272h299z" />
<glyph unicode="&#xc9;" horiz-adv-x="1132" d="M422 1303v-385h510v-250h-510v-410h612v-258h-897v1561h877v-258h-592zM655 1704h-249l169 272h299z" />
<glyph unicode="&#xca;" horiz-adv-x="1132" d="M422 1303v-385h510v-250h-510v-410h612v-258h-897v1561h877v-258h-592zM686 1704l-108 113l-107 -113h-276l282 274h201l283 -274h-275z" />
<glyph unicode="&#xcb;" horiz-adv-x="1132" d="M422 1303v-385h510v-250h-510v-410h612v-258h-897v1561h877v-258h-592zM498 1970v-225h-224v225h224zM881 1970v-225h-224v225h224z" />
<glyph unicode="&#xcc;" horiz-adv-x="559" d="M422 1561v-1561h-285v1561h285zM444 1704h-249l-220 272h299z" />
<glyph unicode="&#xcd;" horiz-adv-x="559" d="M422 1561v-1561h-285v1561h285zM356 1704h-250l170 272h299z" />
<glyph unicode="&#xce;" horiz-adv-x="559" d="M422 1561v-1561h-285v1561h285zM387 1704l-108 113l-107 -113h-276l282 274h201l283 -274h-275z" />
<glyph unicode="&#xcf;" horiz-adv-x="559" d="M422 1561v-1561h-285v1561h285zM199 1970v-225h-224v225h224zM582 1970v-225h-224v225h224z" />
<glyph unicode="&#xd0;" horiz-adv-x="1314" d="M174 0v666h-154v225h154v670h455q297 0 431 -141t134 -435v-418q0 -288 -134.5 -427.5t-430.5 -139.5h-455zM672 666h-219v-416h178q149 0 207.5 69.5t58.5 229.5v457q0 165 -58.5 235t-207.5 70h-178v-420h219v-225z" />
<glyph unicode="&#xd1;" horiz-adv-x="1325" d="M135 1561h293l498 -1057v1057h264v-1561h-287l-502 1034v-1034h-266v1561zM862 1976h170q-7 -132 -61.5 -205t-145.5 -73q-79 0 -155 49l-24 15t-22.5 14t-18 10.5t-19 9t-17.5 4.5t-20 2q-63 0 -74 -96h-170q8 134 61 207.5t144 73.5q35 0 67 -9t52 -19t49 -28 q62 -39 84 -45q14 -4 29 -4q60 0 71 94z" />
<glyph unicode="&#xd2;" horiz-adv-x="1325" d="M418 1040v-520q0 -150 55.5 -219.5t188.5 -69.5q136 0 190.5 69t54.5 220v520q0 150 -55.5 219.5t-189.5 69.5t-189 -69.5t-55 -219.5zM662 1585q281 0 411.5 -138t130.5 -417v-500q0 -279 -130.5 -417t-411.5 -138q-280 0 -410.5 138.5t-130.5 416.5v500 q0 278 130.5 416.5t410.5 138.5zM827 1704h-249l-220 272h299z" />
<glyph unicode="&#xd3;" horiz-adv-x="1325" d="M418 1040v-520q0 -150 55.5 -219.5t188.5 -69.5q136 0 190.5 69t54.5 220v520q0 150 -55.5 219.5t-189.5 69.5t-189 -69.5t-55 -219.5zM662 1585q281 0 411.5 -138t130.5 -417v-500q0 -279 -130.5 -417t-411.5 -138q-280 0 -410.5 138.5t-130.5 416.5v500 q0 278 130.5 416.5t410.5 138.5zM739 1704h-250l170 272h299z" />
<glyph unicode="&#xd4;" horiz-adv-x="1325" d="M418 1040v-520q0 -150 55.5 -219.5t188.5 -69.5q136 0 190.5 69t54.5 220v520q0 150 -55.5 219.5t-189.5 69.5t-189 -69.5t-55 -219.5zM662 1585q281 0 411.5 -138t130.5 -417v-500q0 -279 -130.5 -417t-411.5 -138q-280 0 -410.5 138.5t-130.5 416.5v500 q0 278 130.5 416.5t410.5 138.5zM770 1704l-108 113l-107 -113h-276l282 274h201l282 -274h-274z" />
<glyph unicode="&#xd5;" horiz-adv-x="1325" d="M418 1040v-520q0 -150 55.5 -219.5t188.5 -69.5q136 0 190.5 69t54.5 220v520q0 150 -55.5 219.5t-189.5 69.5t-189 -69.5t-55 -219.5zM662 1585q281 0 411.5 -138t130.5 -417v-500q0 -279 -130.5 -417t-411.5 -138q-280 0 -410.5 138.5t-130.5 416.5v500 q0 278 130.5 416.5t410.5 138.5zM856 1976h170q-7 -132 -61.5 -205t-145.5 -73q-79 0 -155 49l-24 15t-22.5 14t-18 10.5t-19 9t-17.5 4.5t-20 2q-63 0 -74 -96h-170q8 134 61 207.5t144 73.5q35 0 67 -9t52 -19t49 -28q5 -3 15.5 -10t14 -9t12.5 -7.5t12.5 -7t10.5 -5 t11.5 -5t11 -3t12.5 -2t12 -0.5q61 0 72 94z" />
<glyph unicode="&#xd6;" horiz-adv-x="1325" d="M418 1040v-520q0 -150 55.5 -219.5t188.5 -69.5q136 0 190.5 69t54.5 220v520q0 150 -55.5 219.5t-189.5 69.5t-189 -69.5t-55 -219.5zM662 1585q281 0 411.5 -138t130.5 -417v-500q0 -279 -130.5 -417t-411.5 -138q-280 0 -410.5 138.5t-130.5 416.5v500 q0 278 130.5 416.5t410.5 138.5zM582 1970v-225h-224v225h224zM965 1970v-225h-224v225h224z" />
<glyph unicode="&#xd7;" d="M336 1114l231 -231l230 233l170 -155l-238 -240l238 -234l-179 -170l-233 230l-229 -234l-168 158l235 238l-235 237z" />
<glyph unicode="&#xd8;" horiz-adv-x="1325" d="M662 1585q165 0 282 -51l70 125h231l-139 -252q98 -133 98 -377v-500q0 -279 -130.5 -417t-411.5 -138q-185 0 -306 62l-73 -135h-234l152 276q-80 128 -80 352v500q0 278 130.5 416.5t410.5 138.5zM915 520v537l-430 -783q60 -51 177 -51q142 0 197.5 70.5t55.5 226.5z M410 1040v-481l407 741q-58 37 -155 37q-140 0 -196 -71.5t-56 -225.5z" />
<glyph unicode="&#xd9;" horiz-adv-x="1312" d="M907 1561h283v-1010q0 -287 -126 -431.5t-409 -144.5q-284 0 -408 143.5t-124 432.5v1010h285v-1024q0 -163 51 -234.5t196 -71.5q146 0 199 72.5t53 233.5v1024zM821 1704h-250l-219 272h299z" />
<glyph unicode="&#xda;" horiz-adv-x="1312" d="M907 1561h283v-1010q0 -287 -126 -431.5t-409 -144.5q-284 0 -408 143.5t-124 432.5v1010h285v-1024q0 -163 51 -234.5t196 -71.5q146 0 199 72.5t53 233.5v1024zM733 1704h-250l170 272h299z" />
<glyph unicode="&#xdb;" horiz-adv-x="1312" d="M907 1561h283v-1010q0 -287 -126 -431.5t-409 -144.5q-284 0 -408 143.5t-124 432.5v1010h285v-1024q0 -163 51 -234.5t196 -71.5q146 0 199 72.5t53 233.5v1024zM764 1704l-109 113l-106 -113h-277l283 274h201l282 -274h-274z" />
<glyph unicode="&#xdc;" horiz-adv-x="1312" d="M907 1561h283v-1010q0 -287 -126 -431.5t-409 -144.5q-284 0 -408 143.5t-124 432.5v1010h285v-1024q0 -163 51 -234.5t196 -71.5q146 0 199 72.5t53 233.5v1024zM575 1970v-225h-223v225h223zM958 1970v-225h-223v225h223z" />
<glyph unicode="&#xdd;" horiz-adv-x="1249" d="M14 1561h324l291 -654l295 654h311l-469 -904v-657h-285v662zM700 1704h-249l170 272h299z" />
<glyph unicode="&#xde;" horiz-adv-x="1173" d="M135 0v1561h281v-271h186q261 0 386.5 -109t125.5 -350v-71q0 -239 -120.5 -349t-381.5 -110h-196v-301h-281zM416 1032v-471h194q129 0 175 43t46 166v41q0 129 -53 175t-180 46h-182z" />
<glyph unicode="&#xdf;" horiz-adv-x="1183" d="M1036 1165q0 -122 -45.5 -210t-136.5 -130q254 -78 254 -379q0 -222 -118 -333.5t-369 -112.5h-113v238h102q221 0 221 221q0 125 -64.5 176t-195.5 51h-63v227h43q124 0 178.5 64.5t54.5 167.5q0 209 -198 209q-197 0 -197 -232v-1122h-268v1120q0 238 123.5 352.5 t343.5 114.5q209 0 328.5 -107.5t119.5 -314.5z" />
<glyph unicode="&#xe0;" horiz-adv-x="1122" d="M766 0l-10 94q-103 -119 -310 -119q-160 0 -257 92t-97 259q0 191 115.5 289t361.5 98q55 0 179 -13v125q0 105 -44.5 154t-136.5 49q-96 0 -143 -46t-47 -151h-248q0 223 109 323.5t331 100.5q210 0 325.5 -99t115.5 -325v-831h-244zM748 420v88q-65 12 -156 12 q-121 0 -174 -42.5t-53 -129.5q0 -145 170 -145q89 0 151 58.5t62 158.5zM741 1386h-249l-220 273h299z" />
<glyph unicode="&#xe1;" horiz-adv-x="1122" d="M766 0l-10 94q-103 -119 -310 -119q-160 0 -257 92t-97 259q0 191 115.5 289t361.5 98q55 0 179 -13v125q0 105 -44.5 154t-136.5 49q-96 0 -143 -46t-47 -151h-248q0 223 109 323.5t331 100.5q210 0 325.5 -99t115.5 -325v-831h-244zM748 420v88q-65 12 -156 12 q-121 0 -174 -42.5t-53 -129.5q0 -145 170 -145q89 0 151 58.5t62 158.5zM655 1386h-249l169 273h299z" />
<glyph unicode="&#xe2;" horiz-adv-x="1122" d="M766 0l-10 94q-103 -119 -310 -119q-160 0 -257 92t-97 259q0 191 115.5 289t361.5 98q55 0 179 -13v125q0 105 -44.5 154t-136.5 49q-96 0 -143 -46t-47 -151h-248q0 223 109 323.5t331 100.5q210 0 325.5 -99t115.5 -325v-831h-244zM748 420v88q-65 12 -156 12 q-121 0 -174 -42.5t-53 -129.5q0 -145 170 -145q89 0 151 58.5t62 158.5zM686 1386l-108 113l-107 -113h-276l282 275h201l283 -275h-275z" />
<glyph unicode="&#xe3;" horiz-adv-x="1122" d="M766 0l-10 94q-103 -119 -310 -119q-160 0 -257 92t-97 259q0 191 115.5 289t361.5 98q55 0 179 -13v125q0 105 -44.5 154t-136.5 49q-96 0 -143 -46t-47 -151h-248q0 223 109 323.5t331 100.5q210 0 325.5 -99t115.5 -325v-831h-244zM748 420v88q-65 12 -156 12 q-121 0 -174 -42.5t-53 -129.5q0 -145 170 -145q89 0 151 58.5t62 158.5zM772 1659h170q-8 -132 -62 -205.5t-145 -73.5q-77 0 -155 50l-24 15t-22.5 14t-18 10.5t-19 9t-17.5 4.5t-20 2q-63 0 -74 -96h-170q8 134 61 207t144 73q50 0 87 -14t81 -41q5 -3 15.5 -10t14 -9 t12.5 -7.5t12.5 -7t10.5 -5t11.5 -5t11 -3t12.5 -2t12 -0.5q61 0 72 94z" />
<glyph unicode="&#xe4;" horiz-adv-x="1122" d="M766 0l-10 94q-103 -119 -310 -119q-160 0 -257 92t-97 259q0 191 115.5 289t361.5 98q55 0 179 -13v125q0 105 -44.5 154t-136.5 49q-96 0 -143 -46t-47 -151h-248q0 223 109 323.5t331 100.5q210 0 325.5 -99t115.5 -325v-831h-244zM748 420v88q-65 12 -156 12 q-121 0 -174 -42.5t-53 -129.5q0 -145 170 -145q89 0 151 58.5t62 158.5zM498 1653v-226h-224v226h224zM881 1653v-226h-224v226h224z" />
<glyph unicode="&#xe5;" horiz-adv-x="1122" d="M766 0l-10 94q-103 -119 -310 -119q-160 0 -257 92t-97 259q0 191 115.5 289t361.5 98q55 0 179 -13v125q0 105 -44.5 154t-136.5 49q-96 0 -143 -46t-47 -151h-248q0 223 109 323.5t331 100.5q210 0 325.5 -99t115.5 -325v-831h-244zM748 420v88q-65 12 -156 12 q-121 0 -174 -42.5t-53 -129.5q0 -145 170 -145q89 0 151 58.5t62 158.5zM850 1610q0 -119 -69.5 -187.5t-202.5 -68.5t-203 68.5t-70 187.5t70 187.5t203 68.5t202.5 -68.5t69.5 -187.5zM686 1610q0 54 -24.5 83t-83.5 29q-109 0 -109 -112q0 -113 109 -113q108 0 108 113z " />
<glyph unicode="&#xe6;" horiz-adv-x="1740" d="M1200 1030q-106 0 -152.5 -57t-46.5 -189v-36h394v45q0 123 -45.5 180t-149.5 57zM739 420v76q-64 12 -155 12q-124 0 -176 -37.5t-52 -122.5q0 -145 170 -145q89 0 151 58.5t62 158.5zM1200 -25q-282 0 -377 185q-47 -87 -143.5 -136t-218.5 -49q-176 0 -276.5 91.5 t-100.5 259.5q0 191 115.5 289t363.5 98q53 0 176 -13v127q0 110 -42.5 155.5t-137.5 45.5q-98 0 -144 -43.5t-46 -153.5h-248q0 221 106 322.5t312 101.5q120 0 203.5 -32t140.5 -111q108 143 342 143q215 0 323.5 -114.5t108.5 -354.5v-254h-656v-102q0 -116 46.5 -171.5 t150.5 -55.5q101 0 144.5 41t48.5 125h256q-6 -198 -111.5 -296t-335.5 -98z" />
<glyph unicode="&#xe7;" horiz-adv-x="1122" d="M770 438h266v-18q0 -202 -91 -311t-283 -129l-11 -46q96 -23 142.5 -77t46.5 -144q0 -113 -76 -172t-223 -59q-136 0 -230 41l25 182q79 -31 162 -31q112 0 112 68q0 41 -42.5 59.5t-133.5 18.5l29 162q-184 23 -273.5 140t-89.5 337v315q0 247 116.5 364t354.5 117 q237 0 350 -107.5t113 -326.5v-24h-268v22q0 101 -44.5 147t-146.5 46q-107 0 -152.5 -53t-45.5 -181v-321q0 -129 45 -184.5t151 -55.5q104 0 150.5 48t46.5 151v22z" />
<glyph unicode="&#xe8;" horiz-adv-x="1116" d="M760 369h256q-6 -198 -111.5 -296t-335.5 -98q-241 0 -355 115.5t-114 368.5v323q0 231 116.5 352t350.5 121q233 0 346 -114t113 -355v-254h-655v-102q0 -116 46 -171.5t150 -55.5q101 0 144.5 41t48.5 125zM569 1026q-107 0 -152.5 -57t-45.5 -189v-37h393v45 q0 123 -45.5 180.5t-149.5 57.5zM727 1386h-250l-219 273h299z" />
<glyph unicode="&#xe9;" horiz-adv-x="1116" d="M760 369h256q-6 -198 -111.5 -296t-335.5 -98q-241 0 -355 115.5t-114 368.5v323q0 231 116.5 352t350.5 121q233 0 346 -114t113 -355v-254h-655v-102q0 -116 46 -171.5t150 -55.5q101 0 144.5 41t48.5 125zM569 1026q-107 0 -152.5 -57t-45.5 -189v-37h393v45 q0 123 -45.5 180.5t-149.5 57.5zM641 1386h-250l170 273h299z" />
<glyph unicode="&#xea;" horiz-adv-x="1116" d="M760 369h256q-6 -198 -111.5 -296t-335.5 -98q-241 0 -355 115.5t-114 368.5v323q0 231 116.5 352t350.5 121q233 0 346 -114t113 -355v-254h-655v-102q0 -116 46 -171.5t150 -55.5q101 0 144.5 41t48.5 125zM569 1026q-107 0 -152.5 -57t-45.5 -189v-37h393v45 q0 123 -45.5 180.5t-149.5 57.5zM672 1386l-109 113l-106 -113h-277l283 275h201l282 -275h-274z" />
<glyph unicode="&#xeb;" horiz-adv-x="1116" d="M760 369h256q-6 -198 -111.5 -296t-335.5 -98q-241 0 -355 115.5t-114 368.5v323q0 231 116.5 352t350.5 121q233 0 346 -114t113 -355v-254h-655v-102q0 -116 46 -171.5t150 -55.5q101 0 144.5 41t48.5 125zM569 1026q-107 0 -152.5 -57t-45.5 -189v-37h393v45 q0 123 -45.5 180.5t-149.5 57.5zM483 1653v-226h-223v226h223zM866 1653v-226h-223v226h223z" />
<glyph unicode="&#xec;" horiz-adv-x="530" d="M403 1231v-1231h-276v1231h276zM430 1386h-250l-219 273h299z" />
<glyph unicode="&#xed;" horiz-adv-x="530" d="M403 1231v-1231h-276v1231h276zM342 1386h-250l170 273h299z" />
<glyph unicode="&#xee;" horiz-adv-x="530" d="M403 1231v-1231h-276v1231h276zM373 1386l-109 113l-106 -113h-277l283 275h201l282 -275h-274z" />
<glyph unicode="&#xef;" horiz-adv-x="530" d="M403 1231v-1231h-276v1231h276zM184 1653v-226h-223v226h223zM567 1653v-226h-223v226h223z" />
<glyph unicode="&#xf0;" horiz-adv-x="1128" d="M225 1231l185 143q-66 32 -195 76l94 190q180 -49 297 -114l178 139l103 -121l-144 -110q153 -127 217 -302.5t66 -390.5v-278q0 -253 -113.5 -370.5t-351.5 -117.5q-236 0 -352.5 116.5t-116.5 367.5v141q0 119 31.5 210.5t87 147t126.5 83.5t155 28q156 0 243 -76 q-32 174 -184 293l-225 -172zM750 457v153q0 217 -191 217q-94 0 -142 -55.5t-48 -183.5v-131q0 -135 44 -187.5t148 -52.5q105 0 147 56t42 184z" />
<glyph unicode="&#xf1;" horiz-adv-x="1167" d="M127 1231h240l12 -86q94 110 297 110q197 0 286 -108.5t89 -335.5v-811h-277v782q0 124 -40.5 177t-141.5 53q-90 0 -139.5 -51t-49.5 -156v-805h-276v1231zM788 1659h170q-8 -132 -61.5 -205.5t-144.5 -73.5q-78 0 -156 50l-24 15t-22.5 14t-18 10.5t-19 9t-17.5 4.5 t-20 2q-63 0 -74 -96h-170q8 134 61 207t144 73q50 0 87 -14t81 -41q3 -2 14 -9t13 -8.5t11 -7t12 -6.5t10 -5t10.5 -5t10 -3t11 -3t10 -1.5t11.5 -0.5q60 0 71 94z" />
<glyph unicode="&#xf2;" d="M377 774v-317q0 -137 41.5 -188.5t148.5 -51.5t149 51.5t42 188.5v317q0 136 -42 187t-149 51t-148.5 -50.5t-41.5 -187.5zM567 1255q241 0 354 -115.5t113 -367.5v-313q0 -253 -113 -368.5t-354 -115.5t-354 115.5t-113 368.5v313q0 252 113 367.5t354 115.5zM733 1386 h-250l-219 273h299z" />
<glyph unicode="&#xf3;" d="M377 774v-317q0 -137 41.5 -188.5t148.5 -51.5t149 51.5t42 188.5v317q0 136 -42 187t-149 51t-148.5 -50.5t-41.5 -187.5zM567 1255q241 0 354 -115.5t113 -367.5v-313q0 -253 -113 -368.5t-354 -115.5t-354 115.5t-113 368.5v313q0 252 113 367.5t354 115.5zM645 1386 h-250l170 273h299z" />
<glyph unicode="&#xf4;" d="M377 774v-317q0 -137 41.5 -188.5t148.5 -51.5t149 51.5t42 188.5v317q0 136 -42 187t-149 51t-148.5 -50.5t-41.5 -187.5zM567 1255q241 0 354 -115.5t113 -367.5v-313q0 -253 -113 -368.5t-354 -115.5t-354 115.5t-113 368.5v313q0 252 113 367.5t354 115.5zM676 1386 l-109 113l-106 -113h-277l283 275h201l282 -275h-274z" />
<glyph unicode="&#xf5;" d="M377 774v-317q0 -137 41.5 -188.5t148.5 -51.5t149 51.5t42 188.5v317q0 136 -42 187t-149 51t-148.5 -50.5t-41.5 -187.5zM567 1255q241 0 354 -115.5t113 -367.5v-313q0 -253 -113 -368.5t-354 -115.5t-354 115.5t-113 368.5v313q0 252 113 367.5t354 115.5zM762 1659 h170q-8 -132 -62 -205.5t-145 -73.5q-78 0 -156 50q-8 5 -28 18t-26.5 16.5t-20 10t-23.5 8.5t-22 2q-63 0 -74 -96h-170q8 134 61 207t144 73q50 0 87 -14t81 -41q5 -3 15.5 -10t14 -9t12.5 -7.5t12.5 -7t10.5 -5t11.5 -5t11 -3t12.5 -2t12 -0.5q61 0 72 94z" />
<glyph unicode="&#xf6;" d="M377 774v-317q0 -137 41.5 -188.5t148.5 -51.5t149 51.5t42 188.5v317q0 136 -42 187t-149 51t-148.5 -50.5t-41.5 -187.5zM567 1255q241 0 354 -115.5t113 -367.5v-313q0 -253 -113 -368.5t-354 -115.5t-354 115.5t-113 368.5v313q0 252 113 367.5t354 115.5zM487 1653 v-226h-223v226h223zM870 1653v-226h-223v226h223z" />
<glyph unicode="&#xf7;" d="M682 1241v-209h-229v209h229zM979 879v-228h-823v228h823zM682 496v-209h-229v209h229z" />
<glyph unicode="&#xf8;" d="M567 1255q139 0 230 -36l55 100h207l-115 -207q90 -115 90 -340v-313q0 -253 -113 -368.5t-354 -115.5q-133 0 -229 35l-59 -108h-205l116 213q-90 115 -90 344v313q0 252 113 367.5t354 115.5zM365 782v-352l315 578q-41 20 -113 20q-111 0 -156.5 -53.5t-45.5 -192.5z M770 449v344l-315 -574q37 -18 112 -18q111 0 157 54.5t46 193.5z" />
<glyph unicode="&#xf9;" horiz-adv-x="1159" d="M793 0l-13 84q-54 -55 -126.5 -82t-178.5 -27q-188 0 -273 108.5t-85 334.5v813h276v-785q0 -123 39 -176t139 -53q185 0 185 207v807h276v-1231h-239zM739 1386h-250l-219 273h299z" />
<glyph unicode="&#xfa;" horiz-adv-x="1159" d="M793 0l-13 84q-54 -55 -126.5 -82t-178.5 -27q-188 0 -273 108.5t-85 334.5v813h276v-785q0 -123 39 -176t139 -53q185 0 185 207v807h276v-1231h-239zM651 1386h-250l170 273h299z" />
<glyph unicode="&#xfb;" horiz-adv-x="1159" d="M793 0l-13 84q-54 -55 -126.5 -82t-178.5 -27q-188 0 -273 108.5t-85 334.5v813h276v-785q0 -123 39 -176t139 -53q185 0 185 207v807h276v-1231h-239zM682 1386l-109 113l-106 -113h-277l283 275h201l282 -275h-274z" />
<glyph unicode="&#xfc;" horiz-adv-x="1159" d="M793 0l-13 84q-54 -55 -126.5 -82t-178.5 -27q-188 0 -273 108.5t-85 334.5v813h276v-785q0 -123 39 -176t139 -53q185 0 185 207v807h276v-1231h-239zM494 1653v-226h-224v226h224zM877 1653v-226h-224v226h224z" />
<glyph unicode="&#xfd;" horiz-adv-x="1075" d="M207 -150q65 0 110.5 29t65.5 107l8 32l-375 1213h316l229 -893l180 893h308l-295 -1120q-41 -154 -89 -256t-110.5 -162t-134 -84.5t-168.5 -24.5q-89 0 -164 21v260q62 -15 119 -15zM600 1386h-250l170 273h299z" />
<glyph unicode="&#xfe;" horiz-adv-x="1161" d="M401 1581v-412q95 86 265 86q197 0 296 -122.5t99 -360.5v-328q0 -119 -31.5 -210.5t-87 -147t-127.5 -83.5t-158 -28q-167 0 -256 86v-456h-274v1976h274zM403 809v-373q0 -217 191 -217q94 0 142 55.5t48 182.5v319q0 125 -44.5 181.5t-143.5 56.5q-193 0 -193 -205z " />
<glyph unicode="&#xff;" horiz-adv-x="1075" d="M207 -150q65 0 110.5 29t65.5 107l8 32l-375 1213h316l229 -893l180 893h308l-295 -1120q-41 -154 -89 -256t-110.5 -162t-134 -84.5t-168.5 -24.5q-89 0 -164 21v260q62 -15 119 -15zM442 1653v-226h-223v226h223zM825 1653v-226h-223v226h223z" />
<glyph unicode="&#x152;" horiz-adv-x="1804" d="M647 1561h1059v-258h-592v-385h510v-250h-510v-410h612v-258h-1079q-279 0 -407.5 138t-128.5 417v451q0 277 128.5 416t407.5 139zM408 1016v-471q0 -151 53 -220t186 -69h182v1049h-182q-133 0 -186 -69t-53 -220z" />
<glyph unicode="&#x153;" horiz-adv-x="1763" d="M539 1255q252 0 348 -151q113 151 358 151q217 0 325.5 -114.5t108.5 -354.5v-254h-655v-102q0 -116 46.5 -171.5t150.5 -55.5q101 0 144 41t48 125h256q-6 -197 -108 -295.5t-320 -98.5q-250 0 -369 146q-62 -84 -146 -115t-216 -31q-420 0 -420 484v313 q0 251 110.5 367t338.5 116zM367 774v-317q0 -137 41.5 -188.5t148.5 -51.5t149 51.5t42 188.5v317q0 136 -42 187t-149 51t-148.5 -50.5t-41.5 -187.5zM1223 1030q-107 0 -153 -57t-46 -189v-36h393v45q0 124 -45 180.5t-149 56.5z" />
<glyph unicode="&#x178;" horiz-adv-x="1249" d="M14 1561h324l291 -654l295 654h311l-469 -904v-657h-285v662zM543 1970v-225h-224v225h224zM926 1970v-225h-224v225h224z" />
<glyph unicode="&#x2c6;" horiz-adv-x="1024" d="M621 1346l-109 112l-106 -112h-277l283 274h200l283 -274h-274z" />
<glyph unicode="&#x2dc;" horiz-adv-x="1024" d="M707 1618h170q-8 -132 -62 -205.5t-145 -73.5q-78 0 -156 50l-24 15t-22.5 14t-18 10.5t-19 9t-17.5 4.5t-20 2q-63 0 -74 -96h-169q8 134 60.5 207t143.5 73q50 0 87 -14t81 -41q3 -2 14 -9t13 -8.5t11 -7t12 -6.5t10 -5t10.5 -5t10 -3t11 -3t10 -1.5t11.5 -0.5 q61 0 72 94z" />
<glyph unicode="&#x2000;" horiz-adv-x="1091" />
<glyph unicode="&#x2001;" horiz-adv-x="2183" />
<glyph unicode="&#x2002;" horiz-adv-x="1091" />
<glyph unicode="&#x2003;" horiz-adv-x="2183" />
<glyph unicode="&#x2004;" horiz-adv-x="727" />
<glyph unicode="&#x2005;" horiz-adv-x="545" />
<glyph unicode="&#x2006;" horiz-adv-x="363" />
<glyph unicode="&#x2007;" horiz-adv-x="363" />
<glyph unicode="&#x2008;" horiz-adv-x="272" />
<glyph unicode="&#x2009;" horiz-adv-x="436" />
<glyph unicode="&#x200a;" horiz-adv-x="121" />
<glyph unicode="&#x2010;" horiz-adv-x="727" d="M618 756v-230h-509v230h509z" />
<glyph unicode="&#x2011;" horiz-adv-x="727" d="M618 756v-230h-509v230h509z" />
<glyph unicode="&#x2012;" horiz-adv-x="727" d="M618 756v-230h-509v230h509z" />
<glyph unicode="&#x2013;" horiz-adv-x="1034" d="M897 745v-229h-760v229h760z" />
<glyph unicode="&#x2014;" horiz-adv-x="1681" d="M1602 745v-229h-1518v229h1518z" />
<glyph unicode="&#x2018;" horiz-adv-x="491" d="M332 1190h-273l129 391h238z" />
<glyph unicode="&#x2019;" horiz-adv-x="491" d="M168 1579h272l-133 -389h-235z" />
<glyph unicode="&#x201a;" horiz-adv-x="491" d="M168 113h272l-133 -392h-235z" />
<glyph unicode="&#x201c;" horiz-adv-x="909" d="M332 1190h-273l129 391h238zM752 1190h-273l129 391h238z" />
<glyph unicode="&#x201d;" horiz-adv-x="909" d="M168 1579h272l-133 -389h-235zM588 1579h272l-133 -389h-235z" />
<glyph unicode="&#x201e;" horiz-adv-x="909" d="M168 113h272l-133 -392h-235zM588 113h272l-133 -392h-235z" />
<glyph unicode="&#x2022;" horiz-adv-x="669" d="M516 858v-389h-362v389h362z" />
<glyph unicode="&#x2026;" horiz-adv-x="2048" d="M1849 289v-289h-274v289h274zM1161 289v-289h-274v289h274zM473 289v-289h-274v289h274z" />
<glyph unicode="&#x202f;" horiz-adv-x="436" />
<glyph unicode="&#x2039;" horiz-adv-x="745" d="M86 680l262 432h277l-260 -434l260 -434h-277z" />
<glyph unicode="&#x203a;" horiz-adv-x="745" d="M659 678l-262 -434h-276l260 436l-260 432h276z" />
<glyph unicode="&#x205f;" horiz-adv-x="545" />
<glyph unicode="&#x20ac;" horiz-adv-x="1335" d="M965 543h-424v-19q0 -162 44 -233.5t167 -71.5q97 0 142.5 50.5t49.5 174.5h273q-3 -240 -116.5 -354.5t-342.5 -114.5q-255 0 -370.5 139.5t-115.5 417.5v11h-188v182h188v113h-188v182h188v2q0 280 115.5 421.5t366.5 141.5q222 0 341 -111.5t119 -355.5h-272 q0 223 -197 223q-117 0 -160.5 -73.5t-43.5 -233.5v-14h424v-182h-424v-113h424v-182z" />
<glyph unicode="&#x2122;" horiz-adv-x="1622" d="M745 1563h234l156 -439l155 439h219v-879h-182v561l-123 -323h-153l-121 315v-553h-185v879zM680 1563v-187h-203v-692h-211v692h-200v187h614z" />
<glyph unicode="&#x25fc;" horiz-adv-x="1228" d="M0 1229h1229v-1229h-1229v1229z" />
</font>
</defs>
</svg>
