<?xml version="1.0" standalone="no"?>
<!DOCTYPE svg PUBLIC "-//W3C//DTD SVG 1.1//EN" "http://www.w3.org/Graphics/SVG/1.1/DTD/svg11.dtd" >
<svg xmlns="http://www.w3.org/2000/svg">
<metadata></metadata>
<defs>
<font id="kelsonextrabold" horiz-adv-x="1249" >
<font-face units-per-em="2048" ascent="1638" descent="-410" />
<missing-glyph horiz-adv-x="512" />
<glyph unicode="&#xfb01;" horiz-adv-x="1447" d="M500 1180v-11h291v-346h-291v-823h-398v1116q0 266 125 385t389 119q115 0 189 -18v-308q-66 15 -125 15q-180 0 -180 -129zM1346 1251v-1251h-398v1251h398zM1346 1724v-352h-398v352h398z" />
<glyph unicode="&#xfb02;" horiz-adv-x="1519" d="M500 1180v-11h291v-346h-291v-823h-398v1116q0 266 125 385t389 119q115 0 189 -18v-308q-66 15 -125 15q-180 0 -180 -129zM1493 338v-356q-75 -7 -117 -7q-124 0 -207 32.5t-131.5 102t-69 166t-20.5 236.5v1069h398v-1083q0 -89 28 -125.5t90 -36.5q23 0 29 2z" />
<glyph horiz-adv-x="682" />
<glyph horiz-adv-x="0" />
<glyph horiz-adv-x="0" />
<glyph unicode="&#xd;" horiz-adv-x="512" />
<glyph unicode=" "  horiz-adv-x="512" />
<glyph unicode="&#x09;" horiz-adv-x="512" />
<glyph unicode="&#xa0;" horiz-adv-x="512" />
<glyph unicode="!" horiz-adv-x="612" d="M121 1561h371l-5 -1024h-360zM500 395v-395h-387v395h387z" />
<glyph unicode="&#x22;" horiz-adv-x="970" d="M406 1040h-265l-39 541h344zM827 1040h-264l-39 541h344z" />
<glyph unicode="#" horiz-adv-x="1351" d="M930 1563h266l-74 -346h211l-55 -261h-209l-74 -350h211l-55 -260h-211l-72 -346h-266l72 346h-180l-72 -346h-266l71 346h-209l56 260h209l73 350h-211l56 261h209l73 346h267l-74 -346h180zM623 956l-74 -350h180l74 350h-180z" />
<glyph unicode="$" d="M795 -246h-344v236q-109 20 -188.5 67.5t-124 115t-65 142t-20.5 160.5h396q3 -81 42.5 -121.5t145.5 -40.5q90 0 128 37t38 113q0 69 -55 102.5t-218 71.5q-54 13 -90.5 23t-87.5 30t-85 42.5t-71.5 59.5t-60 81t-37 107t-14.5 138q0 185 93.5 299.5t273.5 149.5v237 h344v-237q170 -33 261 -148t109 -332h-395q-10 85 -48 121.5t-114 36.5q-72 0 -104.5 -27.5t-32.5 -84.5q0 -67 44 -100.5t155 -59.5q178 -40 261 -78q228 -103 261 -338q6 -42 6 -88q0 -416 -403 -479v-236z" />
<glyph unicode="%" horiz-adv-x="1771" d="M471 1135v145q0 54 -10 71t-43 17q-32 0 -41.5 -17.5t-9.5 -70.5v-145q0 -54 10 -72.5t41 -18.5q33 0 43 18.5t10 72.5zM92 1133v161q0 88 28 150.5t76.5 95.5t103 47.5t118.5 14.5q65 0 119.5 -14.5t103 -47.5t76.5 -95.5t28 -150.5v-161q0 -91 -28 -156.5t-76.5 -99.5 t-103 -49t-119.5 -15q-51 0 -95 8.5t-87.5 31t-74.5 57.5t-50 92t-19 131zM1300 426v-145q0 -53 10.5 -70.5t43.5 -17.5q32 0 41.5 17.5t9.5 70.5v145q0 54 -9.5 72t-41.5 18q-33 0 -43.5 -18t-10.5 -72zM1679 428v-162q0 -71 -19 -125.5t-49.5 -88t-74 -55.5t-87.5 -30 t-95 -8q-65 0 -119.5 14.5t-103.5 47t-77 95t-28 150.5v162q0 91 28 156.5t77 99.5t103.5 49t119.5 15q51 0 95 -8.5t87.5 -31t74 -57.5t49.5 -92t19 -131zM1126 1561h299l-780 -1561h-299z" />
<glyph unicode="&#x26;" horiz-adv-x="1380" d="M1294 649h-161v-151q0 -93 26.5 -127.5t95.5 -34.5q29 0 43 2v-356q-68 -7 -108 -7q-222 0 -303 129q-117 -129 -350 -129q-225 0 -355.5 114t-130.5 333q0 136 66.5 239t191.5 152q-205 97 -205 346q0 191 133 308.5t384 117.5q235 0 369.5 -124t154.5 -359h-397 q-6 84 -38.5 129t-103.5 45q-70 0 -100.5 -33.5t-30.5 -97.5q0 -79 59.5 -127.5t165.5 -48.5h594v-320zM766 543v106h-107q-217 0 -217 -190q0 -81 35 -123.5t117 -42.5q92 0 132 58.5t40 191.5z" />
<glyph unicode="'" horiz-adv-x="548" d="M406 1040h-265l-39 541h344z" />
<glyph unicode="(" horiz-adv-x="718" d="M520 1174v-941q0 -88 30.5 -124.5t92.5 -36.5q4 0 12.5 1t12.5 1v-357q-65 -6 -119 -6q-242 0 -339 128.5t-97 408.5v911q0 280 97 408.5t339 128.5q55 0 119 -6v-357q-4 0 -12.5 1t-12.5 1q-62 0 -92.5 -36.5t-30.5 -124.5z" />
<glyph unicode=")" horiz-adv-x="718" d="M199 233v941q0 88 -30.5 124.5t-92.5 36.5q-4 0 -12.5 -1t-12.5 -1v357q64 6 119 6q242 0 339 -128.5t97 -408.5v-911q0 -280 -97 -408.5t-339 -128.5q-54 0 -119 6v357q4 0 12.5 -1t12.5 -1q62 0 92.5 36.5t30.5 124.5z" />
<glyph unicode="*" horiz-adv-x="970" d="M678 1284q-2 -14 -2 -57q68 -22 109.5 -43.5t82.5 -63.5l-250 -248q-40 38 -61.5 82t-38.5 107q-38 6 -61 4q-16 -49 -25.5 -74t-29.5 -58t-48 -59l-245 246q70 73 182 99q6 20 6 57q-102 37 -137 59q-31 19 -58 47l252 250q40 -40 62 -82.5t41 -107.5h59 q19 63 40.5 104.5t61.5 83.5l248 -250q-66 -66 -188 -96z" />
<glyph unicode="+" d="M1087 911v-325h-288v-297h-350v297h-287v325h287v303h350v-303h288z" />
<glyph unicode="," horiz-adv-x="665" d="M344 -371h-313l129 629h393z" />
<glyph unicode="-" horiz-adv-x="712" d="M621 811v-328h-529v328h529z" />
<glyph unicode="." horiz-adv-x="665" d="M526 395v-395h-387v395h387z" />
<glyph unicode="/" horiz-adv-x="909" d="M489 1581h369l-438 -1606h-369z" />
<glyph unicode="0" horiz-adv-x="1282" d="M502 1040v-520q0 -95 32.5 -135.5t106.5 -40.5t106.5 40.5t32.5 135.5v520q0 94 -32.5 135.5t-106.5 41.5t-106.5 -41.5t-32.5 -135.5zM641 1585q287 0 418 -142.5t131 -424.5v-477q0 -281 -131.5 -423.5t-417.5 -142.5t-417.5 142.5t-131.5 423.5v477q0 282 131 424.5 t418 142.5z" />
<glyph unicode="1" horiz-adv-x="1044" d="M82 348h280v828l-290 -115v377l344 123h356v-1213h232v-348h-922v348z" />
<glyph unicode="2" horiz-adv-x="1142" d="M469 381v-33h590v-348h-1006v272q0 111 21.5 201t57.5 150t83 107.5t99 79t103.5 58.5t98.5 52.5t83 54.5t57.5 70t21.5 94q0 60 -36 92.5t-101 32.5q-156 0 -156 -199h-344q0 254 124.5 385t397.5 131q107 0 193 -22.5t144 -61t97 -92.5t56.5 -115.5t17.5 -130.5 q0 -90 -20.5 -165t-55.5 -127.5t-80 -95.5t-95 -74.5t-100 -59t-95 -53.5t-80 -54.5t-55.5 -66t-20.5 -82.5z" />
<glyph unicode="3" horiz-adv-x="1173" d="M1087 1159q0 -127 -48 -212.5t-132 -125.5q95 -41 150 -131t55 -221q0 -235 -148.5 -364.5t-390.5 -129.5q-276 0 -404 125.5t-128 372.5h393q0 -158 141 -158q72 0 105 40t33 120t-41.5 114t-155.5 34h-139v329h151q96 0 136.5 41t40.5 115q0 67 -39 101t-109 34 q-72 0 -109.5 -38.5t-37.5 -112.5h-347q0 258 129.5 375.5t382.5 117.5q108 0 199.5 -25.5t162 -76.5t110.5 -133.5t40 -190.5z" />
<glyph unicode="4" horiz-adv-x="1243" d="M1036 0h-387v322h-618v325l520 914h485v-910h146v-329h-146v-322zM395 651h254v482z" />
<glyph unicode="5" horiz-adv-x="1171" d="M1018 1212h-545v-206h84q286 0 423 -122t140 -378v-17q0 -257 -137.5 -385.5t-382.5 -128.5q-153 0 -260 39t-167 113.5t-86 168.5t-26 218h394q0 -114 30.5 -156.5t106.5 -42.5q72 0 102.5 43.5t30.5 126.5v13q0 89 -49 129.5t-166 40.5h-416v893h924v-349z" />
<glyph unicode="6" horiz-adv-x="1232" d="M1161 559v-113q0 -226 -139 -348.5t-404 -122.5q-526 0 -526 504v617q0 128 39 223.5t111 153t168 85t217 27.5q138 0 239 -36t158.5 -101.5t84 -146t26.5 -179.5h-379q-9 140 -131 140q-66 0 -101 -38t-35 -134v-140q90 72 242 72q197 0 313.5 -114t116.5 -349zM489 553 v-109q0 -83 32.5 -116t103.5 -33q70 0 102.5 33t32.5 116v109q0 83 -32.5 116t-102.5 33q-71 0 -103.5 -33t-32.5 -116z" />
<glyph unicode="7" horiz-adv-x="1097" d="M549 0h-432l512 1212h-598v349h1016v-344z" />
<glyph unicode="8" d="M625 1585q256 0 394 -106t138 -322q0 -253 -164 -338q91 -46 140 -140t49 -224q0 -480 -557 -480t-557 480q0 130 48 224t138 140q-162 84 -162 338q0 216 138.5 322t394.5 106zM625 311q86 0 117.5 38.5t31.5 121.5t-31.5 121.5t-117.5 38.5t-118 -38.5t-32 -121.5 t32 -121.5t118 -38.5zM766 1110q0 75 -33 108t-108 33t-108.5 -33t-33.5 -108t33.5 -108t108.5 -33t108 33t33 108z" />
<glyph unicode="9" horiz-adv-x="1232" d="M72 1001v113q0 226 138.5 348.5t403.5 122.5q527 0 527 -504v-616q0 -128 -39 -223.5t-111 -153t-168 -85.5t-217 -28q-138 0 -239 36t-158.5 101.5t-84 146t-26.5 179.5h379q5 -71 36.5 -105t94.5 -34q66 0 100.5 37.5t34.5 134.5v137q-87 -69 -241 -69 q-197 0 -313.5 113.5t-116.5 348.5zM743 1008v108q0 83 -32.5 116.5t-102.5 33.5t-102.5 -33.5t-32.5 -116.5v-108q0 -83 32.5 -116.5t102.5 -33.5t102.5 33.5t32.5 116.5z" />
<glyph unicode=":" horiz-adv-x="665" d="M526 395v-395h-387v395h387zM526 1251v-395h-387v395h387z" />
<glyph unicode=";" horiz-adv-x="665" d="M526 1251v-395h-387v395h387zM344 -371h-313l129 629h393z" />
<glyph unicode="&#x3c;" d="M211 461v381l827 360v-364l-448 -181l448 -165v-390z" />
<glyph unicode="=" d="M1087 653v-325h-925v325h925zM1087 1137v-326h-925v326h925z" />
<glyph unicode="&#x3e;" d="M1038 844v-381l-827 -361v365l446 178l-446 168v389z" />
<glyph unicode="?" horiz-adv-x="1146" d="M713 555v-18h-371v20q0 100 19 169.5t48.5 104t66 56.5t73 36.5t66 34t48.5 59.5t19 103q0 148 -133 148q-154 0 -154 -199h-344q0 254 122.5 385t391.5 131q131 0 230 -33t159.5 -94t90.5 -142t30 -181q0 -103 -20 -178t-52 -115.5t-70.5 -68t-77 -45t-70.5 -36.5 t-52 -52.5t-20 -84.5zM723 395v-395h-387v395h387z" />
<glyph unicode="@" horiz-adv-x="2082" d="M1137 1151h293v-406q0 -99 20 -133t74 -34q55 0 77.5 48.5t22.5 180.5q0 265 -149 393.5t-445 128.5q-119 0 -206 -15.5t-161.5 -54.5t-120 -105.5t-71 -169.5t-25.5 -245q0 -298 142.5 -429.5t445.5 -131.5q85 0 211 11.5t209 29.5l2 -266q-76 -19 -197.5 -32 t-228.5 -13q-217 0 -381.5 43.5t-286 138.5t-184.5 255t-63 382q0 448 235.5 660t700.5 212q153 0 286 -27t248 -87.5t196.5 -150.5t128 -221.5t46.5 -295.5q0 -268 -103.5 -395t-293.5 -127q-228 0 -314 119q-43 -60 -119 -93.5t-172 -33.5q-168 0 -269 102t-101 291v98 q0 94 27.5 170.5t73.5 124t103.5 73t120.5 25.5q138 0 213 -79zM909 768v-76q0 -65 26 -93t81 -28q102 0 102 121v76q0 121 -102 121q-54 0 -80.5 -28.5t-26.5 -92.5z" />
<glyph unicode="A" horiz-adv-x="1423" d="M467 1561h489l447 -1561h-430l-76 334h-393l-76 -334h-408zM700 1198l-116 -510h231z" />
<glyph unicode="B" horiz-adv-x="1327" d="M1255 498v-17q0 -250 -136 -365.5t-437 -115.5h-569v1561h501q300 0 425 -95t128 -333v-15q0 -189 -123 -276q97 -42 154 -128.5t57 -215.5zM850 473v12q0 77 -33 108.5t-110 31.5h-205v-308h209q77 0 108 35t31 121zM502 1243v-309h139q77 0 109 36.5t32 123.5v12 q0 77 -34 107t-117 30h-129z" />
<glyph unicode="C" horiz-adv-x="1359" d="M850 590h438v-49q0 -275 -151 -420.5t-443 -145.5t-442 145.5t-150 420.5v477q0 277 150 422t442 145t443 -145.5t151 -421.5v-31h-438v39q0 90 -41.5 133t-114.5 43q-82 0 -122 -47.5t-40 -161.5v-434q0 -110 40 -155.5t122 -45.5q73 0 114.5 43t41.5 134v55z" />
<glyph unicode="D" horiz-adv-x="1349" d="M113 0v1561h512q622 0 622 -586v-393q0 -582 -618 -582h-516zM635 1200h-131v-840h129q94 0 140 44t46 147v461q0 100 -46 144t-138 44z" />
<glyph unicode="E" horiz-adv-x="1198" d="M522 1202v-246h475v-346h-475v-252h584v-358h-993v1561h972v-359h-563z" />
<glyph unicode="F" horiz-adv-x="1128" d="M1077 1561v-359h-555v-287h432v-358h-432v-557h-409v1561h964z" />
<glyph unicode="G" horiz-adv-x="1398" d="M707 860h610v-319q0 -566 -608 -566q-293 0 -450 146t-157 420v477q0 275 156.5 421t450.5 146q295 0 451.5 -141.5t156.5 -415.5v-18h-418v30q0 104 -49 150.5t-141 46.5q-197 0 -197 -231v-463q0 -121 52 -170t161 -49q79 0 137 44.5t58 137.5v18h-213v336z" />
<glyph unicode="H" horiz-adv-x="1423" d="M1311 1561v-1561h-406v616h-383v-616h-409v1561h409v-586h383v586h406z" />
<glyph unicode="I" horiz-adv-x="634" d="M522 1561v-1561h-409v1561h409z" />
<glyph unicode="J" horiz-adv-x="1204" d="M10 551h379q0 -112 40.5 -159.5t117.5 -47.5q67 0 106 42t39 151v1024h410v-1000q0 -164 -36.5 -279t-109 -181.5t-168.5 -96t-225 -29.5q-282 0 -417.5 139t-135.5 437z" />
<glyph unicode="K" horiz-adv-x="1435" d="M1405 0h-481l-283 616h-119v-616h-409v1561h409v-584h119l244 584h458l-378 -748z" />
<glyph unicode="L" horiz-adv-x="1118" d="M1057 369v-369h-944v1561h409v-1192h535z" />
<glyph unicode="M" horiz-adv-x="1622" d="M113 1561h462l250 -723l250 723h434v-1561h-366v922l-180 -519h-304l-180 521v-924h-366v1561z" />
<glyph unicode="N" horiz-adv-x="1417" d="M113 1561h413l398 -891v891h381v-1561h-410l-397 852v-852h-385v1561z" />
<glyph unicode="O" horiz-adv-x="1400" d="M532 1040v-520q0 -91 45 -133.5t123 -42.5t123 42.5t45 133.5v520q0 90 -45.5 133.5t-122.5 43.5t-122.5 -43.5t-45.5 -133.5zM700 1585q293 0 445.5 -145.5t152.5 -421.5v-477q0 -275 -153 -420.5t-445 -145.5t-445 145.5t-153 420.5v477q0 276 152.5 421.5t445.5 145.5 z" />
<glyph unicode="P" horiz-adv-x="1280" d="M113 0v1561h542q298 0 436 -125.5t138 -378.5v-25q0 -253 -136 -378.5t-427 -125.5h-144v-528h-409zM522 1214v-337h144q94 0 128.5 34t34.5 121v27q0 88 -35 121.5t-130 33.5h-142z" />
<glyph unicode="Q" horiz-adv-x="1400" d="M700 1585q293 0 445.5 -145.5t152.5 -421.5v-477q0 -329 -219 -473l221 -402h-456l-115 309h-29q-292 0 -445 145.5t-153 420.5v477q0 276 152.5 421.5t445.5 145.5zM532 1040v-520q0 -91 45 -133.5t123 -42.5t123 42.5t45 133.5v520q0 90 -45.5 133.5t-122.5 43.5 t-122.5 -43.5t-45.5 -133.5z" />
<glyph unicode="R" horiz-adv-x="1300" d="M113 0v1561h526q297 0 435 -125.5t138 -378.5v-23q0 -291 -184 -407l262 -627h-454l-187 541h-137v-541h-399zM512 1227v-348h137q94 0 129 34.5t35 122.5v31q0 88 -35.5 124t-130.5 36h-135z" />
<glyph unicode="S" horiz-adv-x="1245" d="M526 637q-43 10 -72 17.5t-70 21t-70 27.5t-64 35.5t-58.5 46t-48 59t-39 74t-23.5 91t-9 111.5q0 225 134 345t390 120q271 0 414 -115t166 -380h-408q-11 89 -44.5 123t-117.5 34q-79 0 -108 -26.5t-29 -85.5q0 -67 44 -101t157 -59q181 -40 267 -78q229 -102 264 -334 q7 -44 7 -94q0 -113 -30 -200t-97 -154.5t-183.5 -103.5t-279.5 -36q-129 0 -230 28t-165.5 74.5t-106 112t-58.5 135.5t-17 150h405q3 -81 42.5 -121.5t148.5 -40.5q91 0 128.5 37t37.5 113q0 70 -55.5 103t-221.5 71z" />
<glyph unicode="T" horiz-adv-x="1267" d="M838 0h-410v1202h-356v359h1124v-359h-358v-1202z" />
<glyph unicode="U" horiz-adv-x="1394" d="M889 1561h403v-1000q0 -285 -150.5 -435.5t-447.5 -150.5q-296 0 -444 150t-148 436v1000h406v-996q0 -120 47 -170.5t139 -50.5q99 0 147 50.5t48 172.5v994z" />
<glyph unicode="V" horiz-adv-x="1296" d="M907 0h-516l-381 1561h449l198 -1149l197 1149h432z" />
<glyph unicode="W" horiz-adv-x="1945" d="M1145 0l-174 1038l-176 -1038h-441l-323 1561h436l131 -1076l170 1076h420l168 -1069l133 1069h426l-324 -1561h-446z" />
<glyph unicode="X" horiz-adv-x="1357" d="M1333 0h-463l-206 530l-187 -530h-457l406 805l-375 756h463l191 -486l174 486h458l-393 -773z" />
<glyph unicode="Y" horiz-adv-x="1361" d="M475 0v639l-465 922h451l229 -605l232 605h430l-467 -926v-635h-410z" />
<glyph unicode="Z" horiz-adv-x="1206" d="M1145 1227l-619 -869h602v-358h-1087v332l618 870h-577v359h1063v-334z" />
<glyph unicode="[" horiz-adv-x="784" d="M113 -289v1985h579v-363h-172v-1259h172v-363h-579z" />
<glyph unicode="\" horiz-adv-x="909" d="M51 1581h369l438 -1606h-369z" />
<glyph unicode="]" horiz-adv-x="784" d="M672 1696v-1985h-580v363h172v1259h-172v363h580z" />
<glyph unicode="^" horiz-adv-x="1312" d="M877 453l-222 399l-219 -399h-364l393 686h383l393 -686h-364z" />
<glyph unicode="_" horiz-adv-x="1103" d="M1063 -47v-318h-1022v318h1022z" />
<glyph unicode="`" horiz-adv-x="1024" d="M748 1352h-330l-234 272h402z" />
<glyph unicode="a" horiz-adv-x="1191" d="M750 0l-21 94q-86 -119 -287 -119q-164 0 -267 98t-103 265q0 198 119 294.5t380 96.5q44 0 150 -8v96q0 152 -125 152q-69 0 -100 -36t-31 -114h-359q0 247 125.5 352t382.5 105q112 0 197.5 -23t152 -74t101.5 -140.5t35 -215.5v-823h-350zM721 418v71q-47 7 -107 7 q-80 0 -115.5 -28.5t-35.5 -86.5q0 -107 115 -107q60 0 101.5 38t41.5 106z" />
<glyph unicode="b" horiz-adv-x="1234" d="M102 1581h398v-383q97 78 256 78q190 0 293.5 -129t103.5 -375v-313q0 -116 -33.5 -209.5t-89.5 -152.5t-126.5 -90.5t-147.5 -31.5q-169 0 -262 97l-17 -72h-375v1581zM500 778v-307q0 -79 32 -113t95 -34q65 0 96 34.5t31 114.5v305q0 85 -29 117.5t-98 32.5t-98 -32.5 t-29 -117.5z" />
<glyph unicode="c" horiz-adv-x="1218" d="M762 496h385v-23q0 -251 -131 -374.5t-404 -123.5q-530 0 -530 504v293q0 504 532 504q268 0 400.5 -120t132.5 -368v-34h-385v30q0 82 -34.5 113t-106.5 31q-71 0 -105.5 -33.5t-34.5 -116.5v-305q0 -83 34.5 -116t105.5 -33q72 0 106.5 30.5t34.5 112.5v29z" />
<glyph unicode="d" horiz-adv-x="1236" d="M479 -25q-190 0 -293.5 129t-103.5 375v314q0 116 34 209.5t92.5 152.5t135 90t164.5 31q143 0 229 -64v369h398v-1581h-347l-20 86q-99 -111 -289 -111zM735 473v307q0 79 -32 113.5t-95 34.5q-65 0 -96 -35t-31 -115v-305q0 -84 29 -116.5t98 -32.5t98 32.5t29 116.5z " />
<glyph unicode="e" horiz-adv-x="1202" d="M756 410h364q-9 -218 -127 -326.5t-383 -108.5q-269 0 -398.5 124t-129.5 386v308q0 223 134.5 353t393.5 130q261 0 390.5 -119.5t129.5 -370.5v-262h-657v-88q0 -78 34 -120t101 -42q76 0 108 34.5t40 101.5zM614 983q-73 0 -107 -38t-34 -124v-47h283v53q0 82 -36 119 t-106 37z" />
<glyph unicode="f" horiz-adv-x="845" d="M500 1180v-11h291v-346h-291v-823h-398v1116q0 266 125 385t389 119q115 0 189 -18v-308q-66 15 -125 15q-180 0 -180 -129z" />
<glyph unicode="g" horiz-adv-x="1234" d="M735 41v104q-76 -67 -215 -67q-208 0 -323 129t-115 375v211q0 116 33.5 209.5t89.5 152t126.5 90t147.5 31.5q170 0 262 -96l17 71h375v-1177q0 -252 -139.5 -371t-387.5 -119q-139 0 -238 30.5t-155.5 89t-81.5 133t-25 173.5h379q5 -71 34 -101t99 -30q57 0 87 36 t30 126zM735 575v205q0 79 -32 113.5t-95 34.5q-65 0 -96 -35t-31 -115v-203q0 -84 29 -116.5t98 -32.5t98 32.5t29 116.5z" />
<glyph unicode="h" horiz-adv-x="1234" d="M500 1581v-385q96 80 266 80q183 0 277 -110.5t94 -342.5v-823h-398v778q0 81 -27.5 115.5t-90.5 34.5q-62 0 -91.5 -35t-29.5 -119v-774h-398v1581h398z" />
<glyph unicode="i" horiz-adv-x="602" d="M500 1251v-1251h-398v1251h398zM500 1724v-352h-398v352h398z" />
<glyph unicode="j" horiz-adv-x="602" d="M500 1724v-352h-398v352h398zM-53 -393v334q16 -2 45 -2q64 0 87 31t23 126v1155h398v-1149q0 -189 -48 -298.5t-144.5 -155t-260.5 -45.5q-42 0 -100 4z" />
<glyph unicode="k" horiz-adv-x="1323" d="M1282 1251l-420 -571l441 -680h-480l-264 483h-61v-483h-396v1581h398v-747h53l266 417h463z" />
<glyph unicode="l" horiz-adv-x="673" d="M647 338v-356q-75 -7 -117 -7q-124 0 -207 32.5t-131.5 102t-69 166t-20.5 236.5v1069h398v-1083q0 -89 28 -125.5t90 -36.5q23 0 29 2z" />
<glyph unicode="m" horiz-adv-x="1865" d="M772 1276q182 0 268 -133q111 133 330 133q209 0 306.5 -105t97.5 -348v-823h-398v778q0 81 -28 115.5t-91 34.5q-62 0 -91 -34t-29 -114v-780h-398v778q0 81 -27.5 115.5t-90.5 34.5q-62 0 -91.5 -34t-29.5 -114v-780h-398v1251h344l21 -88q99 113 305 113z" />
<glyph unicode="n" horiz-adv-x="1234" d="M1137 823v-823h-398v778q0 81 -27.5 115.5t-90.5 34.5q-62 0 -91.5 -35t-29.5 -119v-774h-398v1251h344l21 -88q99 113 299 113q183 0 277 -110.5t94 -342.5z" />
<glyph unicode="o" horiz-adv-x="1216" d="M481 778v-305q0 -84 29 -116.5t98 -32.5t98 32.5t29 116.5v305q0 85 -29 117.5t-98 32.5t-98 -32.5t-29 -117.5zM608 1276q527 0 527 -504v-293q0 -504 -527 -504q-526 0 -526 504v293q0 504 526 504z" />
<glyph unicode="p" horiz-adv-x="1234" d="M756 1276q190 0 293.5 -129t103.5 -375v-313q0 -116 -34 -209.5t-92.5 -152.5t-135 -90.5t-164.5 -31.5q-145 0 -229 62v-432h-396v1646h344l19 -86q105 111 291 111zM500 778v-307q0 -79 32 -113t95 -34q65 0 96 34.5t31 114.5v305q0 85 -29 117.5t-98 32.5t-98 -32.5 t-29 -117.5z" />
<glyph unicode="q" horiz-adv-x="1234" d="M1133 -395h-398v448q-97 -78 -256 -78q-190 0 -293.5 129t-103.5 375v314q0 116 33.5 209.5t89.5 152t126.5 90t147.5 31.5q170 0 262 -96l17 71h375v-1646zM735 473v307q0 79 -32 113.5t-95 34.5q-65 0 -96 -35t-31 -115v-305q0 -84 29 -116.5t98 -32.5t98 32.5 t29 116.5z" />
<glyph unicode="r" horiz-adv-x="851" d="M102 1251h344l27 -118q43 63 119.5 100t163.5 37q19 0 55 -4v-412q-52 10 -96 10q-215 0 -215 -246v-618h-398v1251z" />
<glyph unicode="s" horiz-adv-x="1159" d="M643 786q77 -10 140 -27t122 -48t99.5 -73.5t65 -106t24.5 -142.5q0 -202 -142 -308t-385 -106q-249 0 -374 114.5t-125 311.5h378q4 -70 40.5 -102.5t107.5 -32.5q52 0 81.5 26.5t29.5 69.5q0 26 -4 41.5t-18 32.5t-46 27t-84 16q-237 27 -348 118t-111 282 q0 194 137 295.5t363 101.5q241 0 361 -109t120 -317h-364q0 135 -129 135q-52 0 -80.5 -24t-28.5 -66q0 -21 5 -35t21 -29.5t52 -26.5t92 -18z" />
<glyph unicode="t" horiz-adv-x="796" d="M629 336q46 0 73 6v-352q-68 -15 -174 -15q-242 0 -339 128.5t-97 408.5v940h408v-283h205v-346h-205v-325q0 -91 28 -126.5t101 -35.5z" />
<glyph unicode="u" horiz-adv-x="1226" d="M98 428v823h398v-778q0 -82 25.5 -115.5t88.5 -33.5q62 0 89.5 34.5t27.5 118.5v774h397v-1251h-344l-20 88q-99 -113 -295 -113q-183 0 -275 110t-92 343z" />
<glyph unicode="v" horiz-adv-x="1165" d="M10 1251h434l142 -864l141 864h428l-321 -1251h-500z" />
<glyph unicode="w" horiz-adv-x="1718" d="M686 1251h377l143 -835l92 835h400l-277 -1251h-430l-133 715l-133 -715h-428l-277 1251h422l93 -835z" />
<glyph unicode="x" horiz-adv-x="1236" d="M1202 0h-432l-158 389l-159 -389h-422l340 631l-312 620h430l146 -358l147 358h424l-329 -608z" />
<glyph unicode="y" horiz-adv-x="1179" d="M371 27l-367 1224h440l166 -798l115 798h434l-256 -1032q-46 -184 -104 -307.5t-135.5 -195.5t-167.5 -102t-211 -30q-106 0 -201 23v358q66 -12 111 -12q73 0 108 14t68 60z" />
<glyph unicode="z" horiz-adv-x="1093" d="M1006 903l-447 -555h473v-348h-971v348l451 555h-430v348h924v-348z" />
<glyph unicode="{" horiz-adv-x="878" d="M92 524v357h25q82 0 109.5 34t27.5 127v117q0 112 11.5 194.5t40 149.5t75.5 108t119 63t170 22q52 0 116 -6v-357q-4 0 -12 1t-12 1q-60 0 -86.5 -36t-26.5 -125v-191q0 -114 -45.5 -186t-120.5 -95q76 -24 121 -95t45 -185v-191q0 -89 26.5 -125t86.5 -36q4 0 12 1 t12 1v-357q-65 -6 -116 -6q-98 0 -170 22t-119 63t-75.5 108t-40 149.5t-11.5 194.5v116q0 93 -27.5 127.5t-109.5 34.5h-25z" />
<glyph unicode="|" horiz-adv-x="634" d="M522 1692v-1944h-409v1944h409z" />
<glyph unicode="}" horiz-adv-x="878" d="M786 881v-357h-24q-82 0 -109.5 -34.5t-27.5 -127.5v-116q0 -112 -11.5 -194.5t-40 -149.5t-75.5 -108t-119 -63t-170 -22q-53 0 -117 6v357q4 0 12.5 -1t12.5 -1q60 0 86 36t26 125v191q0 114 45 184.5t119 95.5q-74 23 -119 95t-45 186v191q0 89 -26 125t-86 36 q-4 0 -12.5 -1t-12.5 -1v357q64 6 117 6q98 0 170 -22t119 -63t75.5 -108t40 -149.5t11.5 -194.5v-117q0 -93 27.5 -127t109.5 -34h24z" />
<glyph unicode="~" d="M844 985h286q0 -183 -79 -293t-215 -110q-70 0 -128.5 20t-89.5 43.5t-67 43.5t-68 20q-35 0 -56 -29t-21 -82h-287q0 183 79.5 293t215.5 110q70 0 128 -20t89 -43.5t67 -43.5t68 -20q35 0 56.5 29t21.5 82z" />
<glyph unicode="&#xa1;" horiz-adv-x="612" d="M492 -309h-371l4 1024h360zM113 856v395h387v-395h-387z" />
<glyph unicode="&#xa2;" horiz-adv-x="1218" d="M762 496h385v-23q0 -204 -85.5 -323.5t-262.5 -155.5v-240h-361v238q-356 73 -356 487v293q0 412 356 488v237h361v-237q348 -73 348 -472v-34h-385v30q0 82 -34.5 113t-106.5 31q-71 0 -105.5 -33.5t-34.5 -116.5v-305q0 -83 34.5 -116t105.5 -33q72 0 106.5 30.5 t34.5 112.5v29z" />
<glyph unicode="&#xa3;" d="M743 1585q231 0 357.5 -119.5t126.5 -357.5v-35h-373v33q0 158 -115 158q-58 0 -86 -36.5t-28 -129.5v-189h383v-331h-383v-240h598v-338h-1160v342h175v236h-164v331h164v174q0 502 505 502z" />
<glyph unicode="&#xa4;" d="M2 373l182 168q-12 61 -12 135v14q0 72 12 133l-182 170l236 252l165 -158q93 35 222 35q128 0 221 -35l166 158l235 -252l-184 -170q14 -72 14 -133v-14q0 -63 -14 -135l184 -168l-235 -252l-168 155q-85 -32 -219 -32q-137 0 -222 32l-165 -155zM502 696v-26 q0 -81 28.5 -112.5t94.5 -31.5t94.5 31.5t28.5 112.5v26q0 81 -28.5 112.5t-94.5 31.5t-94.5 -31.5t-28.5 -112.5z" />
<glyph unicode="&#xa5;" horiz-adv-x="1361" d="M123 885h239l-311 676h451l188 -600l191 600h430l-314 -676h242v-256h-354v-140h354v-256h-354v-233h-410v233h-352v256h352v140h-352v256z" />
<glyph unicode="&#xa6;" horiz-adv-x="634" d="M113 567h409v-819h-409v819zM522 872h-409v820h409v-820z" />
<glyph unicode="&#xa7;" horiz-adv-x="1169" d="M1114 877q0 -193 -164 -273q148 -103 148 -297q0 -202 -142 -307.5t-385 -105.5q-249 0 -374 114t-125 311h379q4 -70 40 -102.5t107 -32.5q52 0 81.5 26.5t29.5 70.5q0 25 -4.5 41t-19.5 32.5t-47.5 26.5t-84.5 16q-238 27 -350.5 106t-112.5 242q0 90 47.5 156.5 t118.5 89.5q-150 96 -150 309q0 194 137 296t363 102q241 0 361 -109t120 -317h-364q0 135 -129 135q-52 0 -80.5 -24t-28.5 -66q0 -28 10 -46t50 -36t114 -27q455 -59 455 -331zM569 901h-10q-42 -3 -66 -27t-24 -61q0 -28 10 -46t50 -35t114 -27l31 -5q51 22 51 84 q0 26 -4.5 42t-19.5 32.5t-47.5 26.5t-84.5 16z" />
<glyph unicode="&#xa8;" horiz-adv-x="1024" d="M453 1677v-305h-310v305h310zM881 1677v-305h-310v305h310z" />
<glyph unicode="&#xa9;" horiz-adv-x="1626" d="M881 616h243q0 -152 -79.5 -226.5t-245.5 -74.5q-161 0 -243.5 77.5t-82.5 228.5v176q0 151 82.5 228t245.5 77q323 0 323 -301h-243q0 48 -18 66t-58 18q-42 0 -61 -19.5t-19 -68.5v-176q0 -49 19.5 -69t60.5 -20q40 0 58 17.5t18 66.5zM813 160q255 0 385.5 104 t130.5 342v205q0 238 -130.5 342t-385.5 104t-385.5 -104t-130.5 -342v-205q0 -238 130.5 -342t385.5 -104zM813 -47q-352 0 -546.5 164t-194.5 489v203q0 325 194.5 490t546.5 165t546.5 -164t194.5 -489v-203q0 -325 -194.5 -490t-546.5 -165z" />
<glyph unicode="&#xaa;" horiz-adv-x="927" d="M825 702h-256l-12 60q-65 -78 -197 -78q-113 0 -185.5 68t-72.5 184q0 139 83 206.5t266 67.5q45 0 98 -6v53q0 60 -15.5 83.5t-58.5 23.5q-48 0 -68 -22t-20 -76h-260q0 174 88 246.5t270 72.5q79 0 138.5 -16t106 -51.5t71 -98t24.5 -151.5v-566zM549 993v43 q-28 4 -64 4q-94 0 -94 -73q0 -30 18 -48t52 -18q37 0 62.5 23.5t25.5 68.5zM825 616v-247h-706v247h706z" />
<glyph unicode="&#xab;" horiz-adv-x="1323" d="M72 694l252 426h391l-250 -428l250 -426h-391zM586 694l252 426h393l-250 -428l250 -426h-393z" />
<glyph unicode="&#xac;" d="M1087 993v-540h-350v215h-575v325h925z" />
<glyph unicode="&#xad;" horiz-adv-x="712" d="M621 811v-328h-529v328h529z" />
<glyph unicode="&#xae;" horiz-adv-x="1626" d="M813 -47q-352 0 -546.5 164t-194.5 489v203q0 325 194.5 490t546.5 165t546.5 -164t194.5 -489v-203q0 -325 -194.5 -490t-546.5 -165zM813 160q255 0 385.5 104t130.5 342v205q0 238 -130.5 342t-385.5 104t-385.5 -104t-130.5 -342v-205q0 -238 130.5 -342t385.5 -104z M537 352v713h303q138 0 205 -64t67 -180v-8q0 -142 -92 -199l119 -262h-258l-68 193h-59v-193h-217zM754 874v-139h59q43 0 60.5 15.5t17.5 50.5v8q0 36 -17 50.5t-61 14.5h-59z" />
<glyph unicode="&#xaf;" horiz-adv-x="1024" d="M225 1653h574v-262h-574v262z" />
<glyph unicode="&#xb0;" horiz-adv-x="815" d="M408 1022q-154 0 -235 68t-81 200v43q0 132 81 201.5t235 69.5t234.5 -69.5t80.5 -201.5v-43q0 -132 -80.5 -200t-234.5 -68zM408 1210q47 0 67.5 21t20.5 67v29q0 46 -20.5 67t-67.5 21t-68 -21t-21 -67v-29q0 -46 21 -67t68 -21z" />
<glyph unicode="&#xb1;" d="M1087 326v-326h-925v326h925zM1087 1014v-326h-288v-235h-350v235h-287v326h287v241h350v-241h288z" />
<glyph unicode="&#xb2;" horiz-adv-x="747" d="M664 1346q0 -63 -19.5 -112.5t-54.5 -82t-67.5 -53.5t-76 -43t-61.5 -35q-29 -22 -39 -39h318v-219h-586v117q0 73 19 130t49 92t66.5 61t73 44.5t66.5 36t49 41t19 53.5q0 23 -16.5 38.5t-43.5 15.5q-77 0 -77 -93h-213q0 139 73 213t236 74q135 0 210 -67t75 -172z" />
<glyph unicode="&#xb3;" horiz-adv-x="747" d="M641 1356q0 -116 -80 -166q43 -24 67.5 -69.5t24.5 -106.5q0 -126 -83 -195t-216 -69q-155 0 -224 64.5t-69 199.5h224q0 -35 18.5 -52.5t46.5 -17.5q30 0 47 18.5t17 45.5q0 34 -20.5 49.5t-65.5 15.5h-76v187h74q48 0 66 18.5t18 50.5q0 60 -62 60q-32 0 -47.5 -21 t-15.5 -53h-209q0 143 71.5 206.5t210.5 63.5q126 0 204.5 -58t78.5 -171z" />
<glyph unicode="&#xb4;" horiz-adv-x="1024" d="M606 1352h-330l162 272h402z" />
<glyph unicode="&#xb5;" horiz-adv-x="1226" d="M780 0l-12 53q-72 -78 -168 -78q-52 0 -104 23v-393h-398v1646h398v-778q0 -82 25.5 -115.5t88.5 -33.5q62 0 89.5 34.5t27.5 118.5v774h397v-1251h-344z" />
<glyph unicode="&#xb6;" horiz-adv-x="1335" d="M436 -254v793l-35 6q-169 31 -239 142.5t-70 303.5q0 110 21.5 191t71.5 143t138.5 93.5t215.5 31.5h235v-1704h-338zM1223 1450v-1704h-338v1704h338z" />
<glyph unicode="&#xb7;" horiz-adv-x="665" d="M526 776v-395h-387v395h387z" />
<glyph unicode="&#xb8;" horiz-adv-x="1024" d="M334 -195l35 195h272l-14 -76q94 -15 146 -73.5t52 -147.5q0 -123 -88 -188.5t-264 -65.5q-150 0 -274 53l39 217q89 -38 168 -38q48 0 71 13t23 44q0 34 -36 50.5t-130 16.5z" />
<glyph unicode="&#xb9;" horiz-adv-x="747" d="M129 967h137v348l-143 -49v235l176 58h227v-592h111v-219h-508v219z" />
<glyph unicode="&#xba;" horiz-adv-x="987" d="M416 1239v-152q0 -94 12.5 -121.5t65.5 -27.5q54 0 67.5 28t13.5 121v97q0 92 -13.5 120.5t-67.5 28.5q-42 0 -60 -20.5t-18 -73.5zM123 1034v201q0 350 371 350q370 0 370 -350v-201q0 -350 -370 -350q-371 0 -371 350zM885 616v-247h-783v247h783z" />
<glyph unicode="&#xbb;" horiz-adv-x="1323" d="M1251 692l-252 -426h-391l250 428l-250 426h391zM737 692l-252 -426h-393l250 428l-250 426h393z" />
<glyph unicode="&#xbc;" horiz-adv-x="1671" d="M1196 1561h258l-903 -1561h-258zM1487 0h-227v164h-349v192l277 455h299v-455h82v-192h-82v-164zM129 967h137v348l-143 -49v235l176 58h227v-592h111v-219h-508v219zM1110 356h150v244z" />
<glyph unicode="&#xbd;" horiz-adv-x="1671" d="M1176 1561h258l-904 -1561h-258zM129 967h137v348l-143 -49v235l176 58h227v-592h111v-219h-508v219zM1575 584q0 -63 -19.5 -112.5t-54.5 -82t-67.5 -53.5t-76 -43t-61.5 -35q-29 -22 -39 -39h318v-219h-586v117q0 73 19 130t49 92t66.5 61t73 44.5t66.5 36t49 41 t19 53.5q0 23 -16 38.5t-43 15.5q-78 0 -78 -92h-213q0 139 72.5 212.5t236.5 73.5q135 0 210 -67t75 -172z" />
<glyph unicode="&#xbe;" horiz-adv-x="1671" d="M1174 1561h258l-904 -1561h-258zM1487 0h-227v164h-349v192l277 455h299v-455h82v-192h-82v-164zM641 1356q0 -116 -80 -166q43 -24 67.5 -69.5t24.5 -106.5q0 -126 -83 -195t-216 -69q-155 0 -224 64.5t-69 199.5h224q0 -35 18.5 -52.5t46.5 -17.5q30 0 47 18.5t17 45.5 q0 34 -20.5 49.5t-65.5 15.5h-76v187h74q48 0 66 18.5t18 50.5q0 60 -62 60q-32 0 -47.5 -21t-15.5 -53h-209q0 143 71.5 206.5t210.5 63.5q126 0 204.5 -58t78.5 -171zM1110 356h150v244z" />
<glyph unicode="&#xbf;" horiz-adv-x="1146" d="M414 696v19h370v-21q0 -100 -19 -169.5t-48.5 -104t-66 -56.5t-73 -36.5t-66 -34t-48.5 -59.5t-19 -103q0 -147 134 -147q153 0 153 198h344q0 -254 -122.5 -385t-391.5 -131q-131 0 -230 33.5t-159.5 94.5t-90.5 142t-30 181q0 103 20 178t52 115.5t70.5 68t77.5 44.5 t71 36t52 52.5t20 84.5zM403 856v395h388v-395h-388z" />
<glyph unicode="&#xc0;" horiz-adv-x="1423" d="M467 1561h489l447 -1561h-430l-76 334h-393l-76 -334h-408zM700 1198l-116 -510h231zM938 1710h-330l-233 272h401z" />
<glyph unicode="&#xc1;" horiz-adv-x="1423" d="M467 1561h489l447 -1561h-430l-76 334h-393l-76 -334h-408zM700 1198l-116 -510h231zM805 1710h-330l162 272h401z" />
<glyph unicode="&#xc2;" horiz-adv-x="1423" d="M467 1561h489l447 -1561h-430l-76 334h-393l-76 -334h-408zM700 1198l-116 -510h231zM801 1710l-90 92l-90 -92h-351l305 299h271l305 -299h-350z" />
<glyph unicode="&#xc3;" horiz-adv-x="1423" d="M467 1561h489l447 -1561h-430l-76 334h-393l-76 -334h-408zM700 1198l-116 -510h231zM887 2044h233q0 -161 -64 -253.5t-175 -92.5q-95 0 -168 47q-11 6 -30.5 19t-29.5 19t-26 11.5t-31 5.5q-28 0 -44.5 -23.5t-16.5 -66.5h-234q0 162 63.5 255t174.5 93q95 0 186 -57 q6 -4 20.5 -13t21 -13t17.5 -9.5t20.5 -7.5t20.5 -2q27 0 44.5 23.5t17.5 64.5z" />
<glyph unicode="&#xc4;" horiz-adv-x="1423" d="M467 1561h489l447 -1561h-430l-76 334h-393l-76 -334h-408zM700 1198l-116 -510h231zM643 2036v-305h-309v305h309zM1071 2036v-305h-309v305h309z" />
<glyph unicode="&#xc5;" horiz-adv-x="1423" d="M467 1561h489l447 -1561h-430l-76 334h-393l-76 -334h-408zM700 1198l-116 -510h231zM1018 1964q0 -128 -78 -208.5t-229 -80.5q-152 0 -230 80.5t-78 208.5t78 208.5t230 80.5q151 0 229 -80.5t78 -208.5zM813 1964q0 111 -102 111q-103 0 -103 -111t103 -111 q102 0 102 111z" />
<glyph unicode="&#xc6;" horiz-adv-x="1941" d="M627 1561h1202v-359h-563v-246h475v-346h-475v-252h583v-358h-993v334h-305l-117 -334h-424zM676 694h180v514z" />
<glyph unicode="&#xc7;" horiz-adv-x="1359" d="M516 -195l33 181q-222 34 -334.5 175t-112.5 380v477q0 277 150 422t442 145t443 -145.5t151 -421.5v-31h-438v39q0 90 -41.5 133t-114.5 43q-82 0 -122 -47.5t-40 -161.5v-434q0 -110 40 -155.5t122 -45.5q73 0 114.5 43t41.5 134v55h438v-49q0 -244 -119 -386 t-350 -171l-10 -60q94 -15 146.5 -74t52.5 -147q0 -123 -88.5 -188.5t-264.5 -65.5q-150 0 -274 53l39 217q89 -38 168 -38q48 0 71 13t23 44q0 34 -36 50.5t-130 16.5z" />
<glyph unicode="&#xc8;" horiz-adv-x="1198" d="M522 1202v-246h475v-346h-475v-252h584v-358h-993v1561h972v-359h-563zM834 1710h-330l-234 272h402z" />
<glyph unicode="&#xc9;" horiz-adv-x="1198" d="M522 1202v-246h475v-346h-475v-252h584v-358h-993v1561h972v-359h-563zM700 1710h-329l161 272h402z" />
<glyph unicode="&#xca;" horiz-adv-x="1198" d="M522 1202v-246h475v-346h-475v-252h584v-358h-993v1561h972v-359h-563zM696 1710l-90 92l-90 -92h-350l305 299h270l306 -299h-351z" />
<glyph unicode="&#xcb;" horiz-adv-x="1198" d="M522 1202v-246h475v-346h-475v-252h584v-358h-993v1561h972v-359h-563zM547 2036v-305h-309v305h309zM975 2036v-305h-309v305h309z" />
<glyph unicode="&#xcc;" horiz-adv-x="634" d="M522 1561v-1561h-409v1561h409zM545 1710h-330l-233 272h401z" />
<glyph unicode="&#xcd;" horiz-adv-x="634" d="M522 1561v-1561h-409v1561h409zM412 1710h-330l162 272h401z" />
<glyph unicode="&#xce;" horiz-adv-x="634" d="M522 1561v-1561h-409v1561h409zM408 1710l-91 92l-90 -92h-350l305 299h271l305 -299h-350z" />
<glyph unicode="&#xcf;" horiz-adv-x="634" d="M522 1561v-1561h-409v1561h409zM258 2036v-305h-309v305h309zM686 2036v-305h-309v305h309z" />
<glyph unicode="&#xd0;" horiz-adv-x="1392" d="M156 0v616h-125v328h125v617h512q622 0 622 -586v-393q0 -582 -618 -582h-516zM678 1200h-131v-256h147v-328h-147v-256h129q94 0 140 44t46 147v461q0 100 -46 144t-138 44z" />
<glyph unicode="&#xd1;" horiz-adv-x="1417" d="M113 1561h413l398 -891v891h381v-1561h-410l-397 852v-852h-385v1561zM893 2044h233q0 -161 -64 -253.5t-175 -92.5q-95 0 -168 47q-11 6 -30.5 19t-29.5 19t-26 11.5t-31 5.5q-28 0 -44.5 -23.5t-16.5 -66.5h-234q0 162 63.5 255t174.5 93q95 0 186 -57q6 -4 20.5 -13 t21 -13t17.5 -9.5t20.5 -7.5t20.5 -2q27 0 44.5 23.5t17.5 64.5z" />
<glyph unicode="&#xd2;" horiz-adv-x="1400" d="M532 1040v-520q0 -91 45 -133.5t123 -42.5t123 42.5t45 133.5v520q0 90 -45.5 133.5t-122.5 43.5t-122.5 -43.5t-45.5 -133.5zM700 1585q293 0 445.5 -145.5t152.5 -421.5v-477q0 -275 -153 -420.5t-445 -145.5t-445 145.5t-153 420.5v477q0 276 152.5 421.5t445.5 145.5 zM928 1710h-330l-233 272h401z" />
<glyph unicode="&#xd3;" horiz-adv-x="1400" d="M532 1040v-520q0 -91 45 -133.5t123 -42.5t123 42.5t45 133.5v520q0 90 -45.5 133.5t-122.5 43.5t-122.5 -43.5t-45.5 -133.5zM700 1585q293 0 445.5 -145.5t152.5 -421.5v-477q0 -275 -153 -420.5t-445 -145.5t-445 145.5t-153 420.5v477q0 276 152.5 421.5t445.5 145.5 zM795 1710h-330l162 272h401z" />
<glyph unicode="&#xd4;" horiz-adv-x="1400" d="M532 1040v-520q0 -91 45 -133.5t123 -42.5t123 42.5t45 133.5v520q0 90 -45.5 133.5t-122.5 43.5t-122.5 -43.5t-45.5 -133.5zM700 1585q293 0 445.5 -145.5t152.5 -421.5v-477q0 -275 -153 -420.5t-445 -145.5t-445 145.5t-153 420.5v477q0 276 152.5 421.5t445.5 145.5 zM791 1710l-91 92l-90 -92h-350l305 299h271l305 -299h-350z" />
<glyph unicode="&#xd5;" horiz-adv-x="1400" d="M532 1040v-520q0 -91 45 -133.5t123 -42.5t123 42.5t45 133.5v520q0 90 -45.5 133.5t-122.5 43.5t-122.5 -43.5t-45.5 -133.5zM700 1585q293 0 445.5 -145.5t152.5 -421.5v-477q0 -275 -153 -420.5t-445 -145.5t-445 145.5t-153 420.5v477q0 276 152.5 421.5t445.5 145.5 zM877 2044h233q0 -161 -64.5 -253.5t-175.5 -92.5q-95 0 -168 47q-11 7 -30 19.5t-29.5 18.5t-26 11.5t-30.5 5.5q-28 0 -45 -23.5t-17 -66.5h-233q0 163 63.5 255.5t173.5 92.5q96 0 187 -57q6 -4 20.5 -13t21 -13t17.5 -9.5t20.5 -7.5t20.5 -2q27 0 44.5 23.5t17.5 64.5z " />
<glyph unicode="&#xd6;" horiz-adv-x="1400" d="M532 1040v-520q0 -91 45 -133.5t123 -42.5t123 42.5t45 133.5v520q0 90 -45.5 133.5t-122.5 43.5t-122.5 -43.5t-45.5 -133.5zM700 1585q293 0 445.5 -145.5t152.5 -421.5v-477q0 -275 -153 -420.5t-445 -145.5t-445 145.5t-153 420.5v477q0 276 152.5 421.5t445.5 145.5 zM641 2036v-305h-309v305h309zM1069 2036v-305h-309v305h309z" />
<glyph unicode="&#xd7;" d="M397 1145l228 -227l227 229l242 -221l-238 -240l240 -235l-258 -242l-230 227l-225 -229l-242 221l236 238l-238 237z" />
<glyph unicode="&#xd8;" horiz-adv-x="1388" d="M694 1585q194 0 324 -65l69 114h283l-168 -278q84 -134 84 -338v-477q0 -275 -150 -420.5t-442 -145.5q-188 0 -325 64l-68 -113h-283l166 277q-82 131 -82 338v477q0 277 150 422t442 145zM510 1061v-369l311 518q-45 39 -127 39q-184 0 -184 -188zM694 311 q185 0 185 189v366l-312 -518q42 -37 127 -37z" />
<glyph unicode="&#xd9;" horiz-adv-x="1394" d="M889 1561h403v-1000q0 -285 -150.5 -435.5t-447.5 -150.5q-296 0 -444 150t-148 436v1000h406v-996q0 -120 47 -170.5t139 -50.5q99 0 147 50.5t48 172.5v994zM924 1710h-330l-234 272h402z" />
<glyph unicode="&#xda;" horiz-adv-x="1394" d="M889 1561h403v-1000q0 -285 -150.5 -435.5t-447.5 -150.5q-296 0 -444 150t-148 436v1000h406v-996q0 -120 47 -170.5t139 -50.5q99 0 147 50.5t48 172.5v994zM791 1710h-330l162 272h401z" />
<glyph unicode="&#xdb;" horiz-adv-x="1394" d="M889 1561h403v-1000q0 -285 -150.5 -435.5t-447.5 -150.5q-296 0 -444 150t-148 436v1000h406v-996q0 -120 47 -170.5t139 -50.5q99 0 147 50.5t48 172.5v994zM786 1710l-90 92l-90 -92h-350l305 299h270l306 -299h-351z" />
<glyph unicode="&#xdc;" horiz-adv-x="1394" d="M889 1561h403v-1000q0 -285 -150.5 -435.5t-447.5 -150.5q-296 0 -444 150t-148 436v1000h406v-996q0 -120 47 -170.5t139 -50.5q99 0 147 50.5t48 172.5v994zM637 2036v-305h-309v305h309zM1065 2036v-305h-309v305h309z" />
<glyph unicode="&#xdd;" horiz-adv-x="1361" d="M475 0v639l-465 922h451l229 -605l232 605h430l-467 -926v-635h-410zM774 1710h-330l162 272h402z" />
<glyph unicode="&#xde;" horiz-adv-x="1280" d="M522 1561v-265h133q298 0 436 -125t138 -378v-25q0 -253 -136 -378.5t-427 -125.5h-144v-264h-409v1561h409zM664 950h-142v-338h144q94 0 128.5 34t34.5 122v27q0 88 -35 121.5t-130 33.5z" />
<glyph unicode="&#xdf;" horiz-adv-x="1290" d="M1145 1139q0 -219 -144 -312q218 -93 218 -358q0 -236 -129.5 -352.5t-409.5 -116.5h-107v340h86q85 0 122.5 36.5t37.5 115.5q0 75 -42.5 107t-137.5 32h-66v321h35q176 0 176 160q0 68 -39 103.5t-108 35.5q-72 0 -110 -40.5t-38 -114.5v-1096h-387v1092 q0 129 40 225.5t113.5 154t169.5 85.5t216 28q231 0 367.5 -115t136.5 -331z" />
<glyph unicode="&#xe0;" horiz-adv-x="1191" d="M750 0l-21 94q-86 -119 -287 -119q-164 0 -267 98t-103 265q0 198 119 294.5t380 96.5q44 0 150 -8v96q0 152 -125 152q-69 0 -100 -36t-31 -114h-359q0 247 125.5 352t382.5 105q112 0 197.5 -23t152 -74t101.5 -140.5t35 -215.5v-823h-350zM721 418v71q-47 7 -107 7 q-80 0 -115.5 -28.5t-35.5 -86.5q0 -107 115 -107q60 0 101.5 38t41.5 106zM840 1393h-330l-234 272h402z" />
<glyph unicode="&#xe1;" horiz-adv-x="1191" d="M750 0l-21 94q-86 -119 -287 -119q-164 0 -267 98t-103 265q0 198 119 294.5t380 96.5q44 0 150 -8v96q0 152 -125 152q-69 0 -100 -36t-31 -114h-359q0 247 125.5 352t382.5 105q112 0 197.5 -23t152 -74t101.5 -140.5t35 -215.5v-823h-350zM721 418v71q-47 7 -107 7 q-80 0 -115.5 -28.5t-35.5 -86.5q0 -107 115 -107q60 0 101.5 38t41.5 106zM707 1393h-330l162 272h401z" />
<glyph unicode="&#xe2;" horiz-adv-x="1191" d="M750 0l-21 94q-86 -119 -287 -119q-164 0 -267 98t-103 265q0 198 119 294.5t380 96.5q44 0 150 -8v96q0 152 -125 152q-69 0 -100 -36t-31 -114h-359q0 247 125.5 352t382.5 105q112 0 197.5 -23t152 -74t101.5 -140.5t35 -215.5v-823h-350zM721 418v71q-47 7 -107 7 q-80 0 -115.5 -28.5t-35.5 -86.5q0 -107 115 -107q60 0 101.5 38t41.5 106zM702 1393l-90 92l-90 -92h-350l305 299h271l305 -299h-351z" />
<glyph unicode="&#xe3;" horiz-adv-x="1191" d="M750 0l-21 94q-86 -119 -287 -119q-164 0 -267 98t-103 265q0 198 119 294.5t380 96.5q44 0 150 -8v96q0 152 -125 152q-69 0 -100 -36t-31 -114h-359q0 247 125.5 352t382.5 105q112 0 197.5 -23t152 -74t101.5 -140.5t35 -215.5v-823h-350zM721 418v71q-47 7 -107 7 q-80 0 -115.5 -28.5t-35.5 -86.5q0 -107 115 -107q60 0 101.5 38t41.5 106zM788 1726h234q0 -161 -64.5 -253.5t-175.5 -92.5q-95 0 -168 47q-12 7 -30.5 19.5t-29 19t-26 12t-30.5 5.5q-28 0 -45 -23.5t-17 -66.5h-233q0 163 63.5 255.5t173.5 92.5q95 0 187 -58 q6 -4 20.5 -13t21 -13t17.5 -9.5t20.5 -7.5t20.5 -2q27 0 44 23t17 65z" />
<glyph unicode="&#xe4;" horiz-adv-x="1191" d="M750 0l-21 94q-86 -119 -287 -119q-164 0 -267 98t-103 265q0 198 119 294.5t380 96.5q44 0 150 -8v96q0 152 -125 152q-69 0 -100 -36t-31 -114h-359q0 247 125.5 352t382.5 105q112 0 197.5 -23t152 -74t101.5 -140.5t35 -215.5v-823h-350zM721 418v71q-47 7 -107 7 q-80 0 -115.5 -28.5t-35.5 -86.5q0 -107 115 -107q60 0 101.5 38t41.5 106zM553 1718v-305h-309v305h309zM981 1718v-305h-309v305h309z" />
<glyph unicode="&#xe5;" horiz-adv-x="1191" d="M750 0l-21 94q-86 -119 -287 -119q-164 0 -267 98t-103 265q0 198 119 294.5t380 96.5q44 0 150 -8v96q0 152 -125 152q-69 0 -100 -36t-31 -114h-359q0 247 125.5 352t382.5 105q112 0 197.5 -23t152 -74t101.5 -140.5t35 -215.5v-823h-350zM721 418v71q-47 7 -107 7 q-80 0 -115.5 -28.5t-35.5 -86.5q0 -107 115 -107q60 0 101.5 38t41.5 106zM920 1647q0 -128 -78 -208.5t-230 -80.5q-151 0 -229 80.5t-78 208.5t77.5 208t229.5 80t230 -80t78 -208zM715 1647q0 110 -103 110q-102 0 -102 -110q0 -111 102 -111q103 0 103 111z" />
<glyph unicode="&#xe6;" horiz-adv-x="1828" d="M571 729q44 0 150 -8v96q0 152 -125 152q-69 0 -100 -36t-31 -114h-359q0 244 118 350.5t341 106.5q122 0 210.5 -27t150.5 -104q117 131 352 131q232 0 355.5 -121t123.5 -369v-262h-657v-88q0 -78 34 -120t101 -42q76 0 107.5 34.5t39.5 101.5h365q-9 -218 -127 -326.5 t-383 -108.5q-298 0 -426 152q-48 -73 -138.5 -112.5t-195.5 -39.5q-188 0 -296.5 96.5t-108.5 266.5q0 198 119 294.5t380 96.5zM1241 983q-73 0 -107 -38t-34 -124v-47h282v53q0 82 -35.5 119t-105.5 37zM721 418v71q-47 7 -105 7q-147 0 -147 -115q0 -107 111 -107 q59 0 100 37.5t41 106.5z" />
<glyph unicode="&#xe7;" horiz-adv-x="1218" d="M436 -195l33 181q-387 61 -387 493v293q0 504 532 504q268 0 400.5 -120t132.5 -368v-34h-385v30q0 82 -34.5 113t-106.5 31q-71 0 -105.5 -33.5t-34.5 -116.5v-305q0 -83 34.5 -116t105.5 -33q72 0 106.5 30.5t34.5 112.5v29h385v-23q0 -220 -100 -341.5t-308 -147.5 l-10 -60q94 -15 146.5 -74t52.5 -147q0 -123 -88.5 -188.5t-264.5 -65.5q-150 0 -274 53l39 217q89 -38 168 -38q48 0 71 13t23 44q0 34 -36 50.5t-130 16.5z" />
<glyph unicode="&#xe8;" horiz-adv-x="1202" d="M756 410h364q-9 -218 -127 -326.5t-383 -108.5q-269 0 -398.5 124t-129.5 386v308q0 223 134.5 353t393.5 130q261 0 390.5 -119.5t129.5 -370.5v-262h-657v-88q0 -78 34 -120t101 -42q76 0 108 34.5t40 101.5zM614 983q-73 0 -107 -38t-34 -124v-47h283v53q0 82 -36 119 t-106 37zM834 1393h-330l-234 272h402z" />
<glyph unicode="&#xe9;" horiz-adv-x="1202" d="M756 410h364q-9 -218 -127 -326.5t-383 -108.5q-269 0 -398.5 124t-129.5 386v308q0 223 134.5 353t393.5 130q261 0 390.5 -119.5t129.5 -370.5v-262h-657v-88q0 -78 34 -120t101 -42q76 0 108 34.5t40 101.5zM614 983q-73 0 -107 -38t-34 -124v-47h283v53q0 82 -36 119 t-106 37zM700 1393h-329l161 272h402z" />
<glyph unicode="&#xea;" horiz-adv-x="1202" d="M756 410h364q-9 -218 -127 -326.5t-383 -108.5q-269 0 -398.5 124t-129.5 386v308q0 223 134.5 353t393.5 130q261 0 390.5 -119.5t129.5 -370.5v-262h-657v-88q0 -78 34 -120t101 -42q76 0 108 34.5t40 101.5zM614 983q-73 0 -107 -38t-34 -124v-47h283v53q0 82 -36 119 t-106 37zM696 1393l-90 92l-90 -92h-350l305 299h270l306 -299h-351z" />
<glyph unicode="&#xeb;" horiz-adv-x="1202" d="M756 410h364q-9 -218 -127 -326.5t-383 -108.5q-269 0 -398.5 124t-129.5 386v308q0 223 134.5 353t393.5 130q261 0 390.5 -119.5t129.5 -370.5v-262h-657v-88q0 -78 34 -120t101 -42q76 0 108 34.5t40 101.5zM614 983q-73 0 -107 -38t-34 -124v-47h283v53q0 82 -36 119 t-106 37zM547 1718v-305h-309v305h309zM975 1718v-305h-309v305h309z" />
<glyph unicode="&#xec;" horiz-adv-x="602" d="M500 1251v-1251h-398v1251h398zM528 1393h-329l-234 272h402z" />
<glyph unicode="&#xed;" horiz-adv-x="602" d="M500 1251v-1251h-398v1251h398zM395 1393h-329l161 272h402z" />
<glyph unicode="&#xee;" horiz-adv-x="602" d="M500 1251v-1251h-398v1251h398zM391 1393l-90 92l-90 -92h-350l305 299h270l305 -299h-350z" />
<glyph unicode="&#xef;" horiz-adv-x="602" d="M500 1251v-1251h-398v1251h398zM242 1718v-305h-310v305h310zM670 1718v-305h-310v305h310z" />
<glyph unicode="&#xf0;" horiz-adv-x="1234" d="M1133 743v-264q0 -256 -129 -380t-396 -124q-526 0 -526 504v94q0 116 34 209.5t92.5 152.5t135 90.5t164.5 31.5q131 0 221 -70q-36 183 -209 291l-215 -188l-112 112l167 148q-81 28 -196 47l135 272q173 -24 324 -90l163 145l115 -116l-127 -111q353 -243 359 -754z M735 473v111q0 79 -32 113t-95 34q-65 0 -96 -34.5t-31 -114.5v-109q0 -84 29 -116.5t98 -32.5t98 32.5t29 116.5z" />
<glyph unicode="&#xf1;" horiz-adv-x="1234" d="M1137 823v-823h-398v778q0 81 -27.5 115.5t-90.5 34.5q-62 0 -91.5 -35t-29.5 -119v-774h-398v1251h344l21 -88q99 113 299 113q183 0 277 -110.5t94 -342.5zM805 1726h233q0 -161 -64 -253.5t-175 -92.5q-95 0 -168 47q-11 7 -30.5 19.5t-29.5 19t-26 12t-31 5.5 q-28 0 -44.5 -23.5t-16.5 -66.5h-234q0 162 63.5 255t174.5 93q94 0 186 -58q6 -4 20.5 -13t21 -13t17.5 -9.5t20.5 -7.5t20.5 -2q27 0 44.5 23.5t17.5 64.5z" />
<glyph unicode="&#xf2;" horiz-adv-x="1216" d="M481 778v-305q0 -84 29 -116.5t98 -32.5t98 32.5t29 116.5v305q0 85 -29 117.5t-98 32.5t-98 -32.5t-29 -117.5zM608 1276q527 0 527 -504v-293q0 -504 -527 -504q-526 0 -526 504v293q0 504 526 504zM836 1393h-330l-234 272h402z" />
<glyph unicode="&#xf3;" horiz-adv-x="1216" d="M481 778v-305q0 -84 29 -116.5t98 -32.5t98 32.5t29 116.5v305q0 85 -29 117.5t-98 32.5t-98 -32.5t-29 -117.5zM608 1276q527 0 527 -504v-293q0 -504 -527 -504q-526 0 -526 504v293q0 504 526 504zM702 1393h-329l162 272h401z" />
<glyph unicode="&#xf4;" horiz-adv-x="1216" d="M481 778v-305q0 -84 29 -116.5t98 -32.5t98 32.5t29 116.5v305q0 85 -29 117.5t-98 32.5t-98 -32.5t-29 -117.5zM608 1276q527 0 527 -504v-293q0 -504 -527 -504q-526 0 -526 504v293q0 504 526 504zM698 1393l-90 92l-90 -92h-350l305 299h270l306 -299h-351z" />
<glyph unicode="&#xf5;" horiz-adv-x="1216" d="M481 778v-305q0 -84 29 -116.5t98 -32.5t98 32.5t29 116.5v305q0 85 -29 117.5t-98 32.5t-98 -32.5t-29 -117.5zM608 1276q527 0 527 -504v-293q0 -504 -527 -504q-526 0 -526 504v293q0 504 526 504zM784 1726h234q0 -161 -64.5 -253.5t-175.5 -92.5q-95 0 -168 47 q-12 7 -30.5 19.5t-29 19t-26 12t-30.5 5.5q-28 0 -45 -23.5t-17 -66.5h-233q0 163 63.5 255.5t173.5 92.5q95 0 187 -58q6 -4 20.5 -13t21 -13t17.5 -9.5t20.5 -7.5t20.5 -2q27 0 44 23t17 65z" />
<glyph unicode="&#xf6;" horiz-adv-x="1216" d="M481 778v-305q0 -84 29 -116.5t98 -32.5t98 32.5t29 116.5v305q0 85 -29 117.5t-98 32.5t-98 -32.5t-29 -117.5zM608 1276q527 0 527 -504v-293q0 -504 -527 -504q-526 0 -526 504v293q0 504 526 504zM549 1718v-305h-309v305h309zM977 1718v-305h-309v305h309z" />
<glyph unicode="&#xf7;" d="M786 1300v-286h-323v286h323zM1067 911v-325h-885v325h885zM786 483v-286h-323v286h323z" />
<glyph unicode="&#xf8;" horiz-adv-x="1216" d="M608 1276q146 0 252 -41l49 82h271l-131 -219q86 -124 86 -326v-293q0 -504 -527 -504q-144 0 -248 37l-51 -86h-270l133 221q-90 121 -90 332v293q0 504 526 504zM461 803v-228l231 386q-27 16 -84 16q-80 0 -113.5 -38t-33.5 -136zM608 274q80 0 114 38.5t34 136.5v217 l-228 -379q32 -13 80 -13z" />
<glyph unicode="&#xf9;" horiz-adv-x="1226" d="M98 428v823h398v-778q0 -82 25.5 -115.5t88.5 -33.5q62 0 89.5 34.5t27.5 118.5v774h397v-1251h-344l-20 88q-99 -113 -295 -113q-183 0 -275 110t-92 343zM838 1393h-330l-234 272h402z" />
<glyph unicode="&#xfa;" horiz-adv-x="1226" d="M98 428v823h398v-778q0 -82 25.5 -115.5t88.5 -33.5q62 0 89.5 34.5t27.5 118.5v774h397v-1251h-344l-20 88q-99 -113 -295 -113q-183 0 -275 110t-92 343zM705 1393h-330l162 272h401z" />
<glyph unicode="&#xfb;" horiz-adv-x="1226" d="M98 428v823h398v-778q0 -82 25.5 -115.5t88.5 -33.5q62 0 89.5 34.5t27.5 118.5v774h397v-1251h-344l-20 88q-99 -113 -295 -113q-183 0 -275 110t-92 343zM700 1393l-90 92l-90 -92h-350l305 299h270l306 -299h-351z" />
<glyph unicode="&#xfc;" horiz-adv-x="1226" d="M98 428v823h398v-778q0 -82 25.5 -115.5t88.5 -33.5q62 0 89.5 34.5t27.5 118.5v774h397v-1251h-344l-20 88q-99 -113 -295 -113q-183 0 -275 110t-92 343zM551 1718v-305h-309v305h309zM979 1718v-305h-309v305h309z" />
<glyph unicode="&#xfd;" horiz-adv-x="1179" d="M371 27l-367 1224h440l166 -798l115 798h434l-256 -1032q-46 -184 -104 -307.5t-135.5 -195.5t-167.5 -102t-211 -30q-106 0 -201 23v358q66 -12 111 -12q73 0 108 14t68 60zM666 1393h-330l162 272h401z" />
<glyph unicode="&#xfe;" horiz-adv-x="1234" d="M756 1276q190 0 293.5 -129t103.5 -375v-313q0 -116 -34 -209.5t-92.5 -152.5t-135 -90.5t-164.5 -31.5q-145 0 -229 62v-432h-396v1976h396v-385q95 80 258 80zM500 778v-307q0 -79 32 -113t95 -34q65 0 96 34.5t31 114.5v305q0 85 -29 117.5t-98 32.5t-98 -32.5 t-29 -117.5z" />
<glyph unicode="&#xff;" horiz-adv-x="1179" d="M371 27l-367 1224h440l166 -798l115 798h434l-256 -1032q-46 -184 -104 -307.5t-135.5 -195.5t-167.5 -102t-211 -30q-106 0 -201 23v358q66 -12 111 -12q73 0 108 14t68 60zM512 1718v-305h-309v305h309zM940 1718v-305h-309v305h309z" />
<glyph unicode="&#x152;" horiz-adv-x="1910" d="M692 1561h1106v-359h-543v-246h455v-346h-455v-252h564v-358h-1125q-292 0 -442 145t-150 420v428q0 276 149.5 421.5t440.5 146.5zM532 1016v-471q0 -176 162 -176h152v823h-152q-162 0 -162 -176z" />
<glyph unicode="&#x153;" horiz-adv-x="1863" d="M580 1276q122 0 214.5 -41t147.5 -111q115 152 367 152q235 0 359 -120.5t124 -369.5v-262h-657v-88q0 -78 34 -120t101 -42q76 0 107.5 34.5t39.5 101.5h365q-9 -215 -120 -325t-341 -110q-271 0 -406 138q-117 -138 -356 -138q-227 0 -352 129t-125 375v293 q0 249 126 376.5t372 127.5zM481 778v-305q0 -84 29 -116.5t98 -32.5t98 32.5t29 116.5v305q0 85 -29 117.5t-98 32.5t-98 -32.5t-29 -117.5zM1276 983q-73 0 -107 -38t-34 -124v-47h282v53q0 82 -35.5 119t-105.5 37z" />
<glyph unicode="&#x178;" horiz-adv-x="1361" d="M475 0v639l-465 922h451l229 -605l232 605h430l-467 -926v-635h-410zM621 2036v-305h-310v305h310zM1049 2036v-305h-310v305h310z" />
<glyph unicode="&#x2c6;" horiz-adv-x="1024" d="M602 1352l-90 92l-90 -92h-350l305 299h270l305 -299h-350z" />
<glyph unicode="&#x2dc;" horiz-adv-x="1024" d="M688 1686h234q0 -161 -64.5 -254t-175.5 -93q-95 0 -168 47q-11 7 -30.5 19.5t-29.5 19t-26 12t-31 5.5q-28 0 -44.5 -23.5t-16.5 -66.5h-234q0 162 63.5 255t174.5 93q94 0 186 -58q5 -3 20.5 -13t21.5 -13.5t17.5 -9t21 -7.5t20.5 -2q27 0 44 23.5t17 65.5z" />
<glyph unicode="&#x2000;" horiz-adv-x="1126" />
<glyph unicode="&#x2001;" horiz-adv-x="2253" />
<glyph unicode="&#x2002;" horiz-adv-x="1126" />
<glyph unicode="&#x2003;" horiz-adv-x="2253" />
<glyph unicode="&#x2004;" horiz-adv-x="751" />
<glyph unicode="&#x2005;" horiz-adv-x="563" />
<glyph unicode="&#x2006;" horiz-adv-x="375" />
<glyph unicode="&#x2007;" horiz-adv-x="375" />
<glyph unicode="&#x2008;" horiz-adv-x="281" />
<glyph unicode="&#x2009;" horiz-adv-x="450" />
<glyph unicode="&#x200a;" horiz-adv-x="125" />
<glyph unicode="&#x2010;" horiz-adv-x="712" d="M621 811v-328h-529v328h529z" />
<glyph unicode="&#x2011;" horiz-adv-x="712" d="M621 811v-328h-529v328h529z" />
<glyph unicode="&#x2012;" horiz-adv-x="712" d="M621 811v-328h-529v328h529z" />
<glyph unicode="&#x2013;" horiz-adv-x="1204" d="M1020 811v-328h-836v328h836z" />
<glyph unicode="&#x2014;" horiz-adv-x="1865" d="M1772 811v-328h-1670v328h1670z" />
<glyph unicode="&#x2018;" horiz-adv-x="604" d="M444 1157h-393l137 424h344z" />
<glyph unicode="&#x2019;" horiz-adv-x="604" d="M160 1579h393l-139 -424h-342z" />
<glyph unicode="&#x201a;" horiz-adv-x="604" d="M160 135h393l-139 -424h-342z" />
<glyph unicode="&#x201c;" horiz-adv-x="1116" d="M444 1157h-393l137 424h344zM956 1157h-393l137 424h344z" />
<glyph unicode="&#x201d;" horiz-adv-x="1116" d="M160 1579h393l-139 -424h-342zM672 1579h393l-139 -424h-342z" />
<glyph unicode="&#x201e;" horiz-adv-x="1116" d="M160 135h393l-139 -424h-342zM672 135h393l-139 -424h-342z" />
<glyph unicode="&#x2022;" horiz-adv-x="759" d="M606 905v-463h-452v463h452z" />
<glyph unicode="&#x2026;" horiz-adv-x="2048" d="M1909 395v-395h-387v395h387zM1217 395v-395h-388v395h388zM526 395v-395h-387v395h387z" />
<glyph unicode="&#x202f;" horiz-adv-x="450" />
<glyph unicode="&#x2039;" horiz-adv-x="808" d="M72 694l252 426h393l-250 -428l250 -426h-393z" />
<glyph unicode="&#x203a;" horiz-adv-x="808" d="M737 692l-252 -426h-393l250 428l-250 426h393z" />
<glyph unicode="&#x205f;" horiz-adv-x="563" />
<glyph unicode="&#x20ac;" horiz-adv-x="1437" d="M1335 1083h-393q0 102 -36.5 143.5t-102.5 41.5q-74 0 -110 -55t-36 -187v-29h375v-176h-375v-82h375v-176h-375v-39q0 -126 36 -178.5t110 -52.5q68 0 103.5 40.5t35.5 143.5h393q0 -259 -131 -380.5t-389 -121.5q-271 0 -407 144t-136 420v24h-170v176h170v82h-170v176 h170v21q0 278 136 422.5t407 144.5q121 0 213 -26t162.5 -83t107.5 -156t37 -237z" />
<glyph unicode="&#x2122;" horiz-adv-x="1814" d="M831 1563h330l115 -394l117 394h309v-879h-256v436l-72 -237h-217l-67 227v-426h-259v879zM760 1563v-263h-195v-616h-301v616h-192v263h688z" />
<glyph unicode="&#x25fc;" d="M0 1249h1249v-1249h-1249v1249z" />
</font>
</defs>
</svg>
