<?xml version="1.0" standalone="no"?>
<!DOCTYPE svg PUBLIC "-//W3C//DTD SVG 1.1//EN" "http://www.w3.org/Graphics/SVG/1.1/DTD/svg11.dtd" >
<svg xmlns="http://www.w3.org/2000/svg">
<metadata></metadata>
<defs>
<font id="kelsonlight" horiz-adv-x="1024" >
<font-face units-per-em="2048" ascent="1638" descent="-410" />
<missing-glyph horiz-adv-x="512" />
<glyph unicode="&#xfb01;" horiz-adv-x="1021" d="M264 1198v-20h289v-91h-289v-1087h-100v1192q0 219 79 311t267 92q48 0 86 -6v-88q-54 6 -76 6q-146 0 -201 -69t-55 -240zM858 1200v-1200h-100v1200h100zM860 1604v-136h-104v136h104z" />
<glyph unicode="&#xfb02;" horiz-adv-x="1120" d="M264 1198v-20h289v-91h-289v-1087h-100v1192q0 219 79 311t267 92q48 0 86 -6v-88q-54 6 -76 6q-146 0 -201 -69t-55 -240zM1049 82v-86q-39 -4 -71 -4.5t-58.5 4t-48 12t-38.5 20t-29.5 28t-22 37.5t-15.5 46t-9.5 56t-5 65t-1.5 74v1247h100v-1255q0 -86 6.5 -131.5 t30 -73t58.5 -34t104 -5.5z" />
<glyph horiz-adv-x="682" />
<glyph unicode="&#xd;" horiz-adv-x="512" />
<glyph horiz-adv-x="0" />
<glyph unicode=" "  horiz-adv-x="512" />
<glyph unicode="&#x09;" horiz-adv-x="512" />
<glyph unicode="&#xa0;" horiz-adv-x="512" />
<glyph unicode="!" horiz-adv-x="413" d="M158 1561h98l-6 -1139h-86zM258 125v-125h-102v125h102z" />
<glyph unicode="&#x22;" horiz-adv-x="575" d="M176 1128h-76l-6 453h99zM465 1128h-76l-6 453h98z" />
<glyph unicode="#" horiz-adv-x="987" d="M793 1563h77l-86 -414h207l-16 -78h-205l-119 -579h207l-16 -78h-207l-84 -414h-78l84 414h-266l-84 -414h-80l84 414h-205l17 78h206l117 579h-207l19 78h204l84 414h78l-86 -414h271zM424 1071l-119 -579h268l119 579h-268z" />
<glyph unicode="$" horiz-adv-x="1144" d="M995 401q0 -114 -25.5 -194.5t-75 -127.5t-112.5 -70t-149 -29v-181h-98v178q-185 9 -285.5 106.5t-102.5 266.5h99q3 -138 84.5 -210t230.5 -72q187 0 259.5 77t72.5 254q0 145 -74.5 226t-267.5 137q-94 28 -156.5 59t-113 79.5t-74 118.5t-23.5 167q0 187 88.5 282 t262.5 109v186h98v-184q54 -4 102 -17.5t94 -41t80 -66.5t56.5 -98t27.5 -133h-98q-4 71 -30.5 123.5t-69 83t-94 45t-111.5 14.5q-152 0 -228.5 -67t-76.5 -232q0 -146 66 -218t233 -120q220 -63 315.5 -164t95.5 -287z" />
<glyph unicode="%" horiz-adv-x="1447" d="M569 1157v133q0 138 -40.5 188t-139.5 50q-100 0 -140 -49.5t-40 -188.5v-133q0 -144 40 -196t140 -52q99 0 139.5 52.5t40.5 195.5zM125 1147v156q0 87 18.5 147t55.5 92.5t82.5 46t107.5 13.5q61 0 106.5 -13.5t82 -46t55 -92.5t18.5 -147v-156q0 -90 -18.5 -152.5 t-55 -96.5t-82 -48t-106.5 -14q-62 0 -107.5 14t-82.5 48t-55.5 96t-18.5 153zM879 403v-133q0 -138 40.5 -187.5t139.5 -49.5q100 0 140 49t40 188v133q0 144 -40 196t-140 52q-99 0 -139.5 -52.5t-40.5 -195.5zM1323 414v-156q0 -87 -18.5 -147t-55.5 -92.5t-82.5 -46 t-107.5 -13.5q-61 0 -106.5 13.5t-82 46t-55 92.5t-18.5 147v156q0 90 18.5 152.5t55 96.5t82 48t106.5 14q62 0 107.5 -14t82.5 -48t55.5 -96t18.5 -153zM1069 1561h90l-780 -1561h-90z" />
<glyph unicode="&#x26;" horiz-adv-x="1339" d="M1196 784h-233v-454q0 -103 20 -159t59.5 -76.5t110.5 -20.5q49 0 94 10v-92q-50 -12 -106 -12q-116 0 -174.5 41.5t-77.5 128.5q-38 -77 -127 -126t-219 -49q-205 0 -313.5 117.5t-108.5 321.5q0 174 79 275t201 134q-124 38 -184.5 134.5t-60.5 232.5q0 194 113 294.5 t302 100.5q179 0 292 -92.5t126 -275.5h-104q-6 76 -34 132t-72.5 88t-97 47t-112.5 15q-63 0 -117 -16.5t-100 -51t-72 -97t-26 -146.5q0 -65 18.5 -120.5t56 -101.5t103 -72t152.5 -26h612v-84zM864 412v372h-266q-57 0 -107.5 -9.5t-101 -35t-87 -65.5t-59 -105.5 t-22.5 -150.5q0 -158 82 -254t248 -96t239.5 89t73.5 255z" />
<glyph unicode="'" horiz-adv-x="286" d="M176 1128h-76l-6 453h99z" />
<glyph unicode="(" horiz-adv-x="591" d="M250 1307v-1207q0 -88 6 -138t27 -90t61 -55.5t107 -15.5q27 0 55 4v-92q-27 -4 -70 -4q-89 0 -145 20.5t-88 69t-44 117t-12 176.5v1221q0 108 12 176.5t44 117t88 69t145 20.5q43 0 70 -4v-93q-35 5 -55 5q-54 0 -90 -11.5t-58.5 -31.5t-34 -59t-15 -82t-3.5 -113z" />
<glyph unicode=")" horiz-adv-x="591" d="M342 100v1207q0 70 -3.5 113t-15 82t-34 59t-58.5 31.5t-90 11.5q-20 0 -55 -5v93q27 4 70 4q89 0 145 -20.5t87.5 -69t43.5 -117t12 -176.5v-1221q0 -108 -12 -176.5t-43.5 -117t-87.5 -69t-145 -20.5q-43 0 -70 4v92q28 -4 55 -4q67 0 107 15.5t61 55.5t27 90t6 138z " />
<glyph unicode="*" horiz-adv-x="514" d="M322 1407q-3 -3 -3 -37q48 -19 140 -106l-68 -72q-86 81 -108 141q-35 -2 -35 0q-5 -14 -13.5 -29t-24 -33.5t-23 -27t-28.5 -30.5t-22 -23l-69 70q89 93 141 116l2 35q-50 18 -139 107l67 71q89 -89 109 -143h33q18 54 112 143l72 -69q-87 -87 -143 -113z" />
<glyph unicode="+" horiz-adv-x="970" d="M858 831v-88h-326v-331h-94v331h-325v88h325v332h94v-332h326z" />
<glyph unicode="," horiz-adv-x="413" d="M139 -315h-90l158 495h110z" />
<glyph unicode="-" horiz-adv-x="749" d="M616 678v-88h-483v88h483z" />
<glyph unicode="." horiz-adv-x="413" d="M264 135v-135h-117v135h117z" />
<glyph unicode="/" horiz-adv-x="763" d="M573 1581h97l-482 -1606h-94z" />
<glyph unicode="0" horiz-adv-x="1062" d="M223 1087v-595q0 -122 17.5 -203.5t56.5 -130t94.5 -68.5t138.5 -20q111 0 177 37.5t99.5 130t33.5 254.5v595q0 155 -33.5 244t-99.5 124.5t-177 35.5q-110 0 -175 -35.5t-98.5 -124.5t-33.5 -244zM530 1585q106 0 180 -24t127.5 -80.5t79 -153t25.5 -237.5v-601 q0 -147 -25.5 -247t-79 -158.5t-127.5 -83.5t-180 -25q-105 0 -178.5 25t-126.5 83.5t-78.5 158.5t-25.5 247v601q0 141 25.5 237.5t78.5 153t126.5 80.5t178.5 24z" />
<glyph unicode="1" horiz-adv-x="888" d="M98 96h334v1356l-342 -162v107l354 164h91v-1465h305v-96h-742v96z" />
<glyph unicode="2" horiz-adv-x="997" d="M225 279v-183h688v-96h-792v256q0 100 23 177.5t62 128t90 90t107 68t112 55.5t107 60.5t90 76t62 107.5t23 150q0 176 -79.5 249t-225.5 73q-66 0 -117.5 -16.5t-92.5 -53t-63 -101.5t-22 -157h-95q0 91 19.5 163t54 120t85 79.5t109.5 45.5t130 14q196 0 299.5 -103 t103.5 -306q0 -96 -23 -172t-62.5 -125.5t-90.5 -88.5t-107 -67.5t-112 -56.5t-107 -61.5t-90.5 -75t-62.5 -105t-23 -145.5z" />
<glyph unicode="3" horiz-adv-x="1038" d="M897 1206q0 -143 -63 -249t-191 -142q57 -13 105.5 -41t89.5 -74.5t64.5 -119t23.5 -164.5q0 -205 -111 -323t-315 -118q-197 0 -310.5 106t-113.5 304h102q0 -142 84 -226.5t240 -84.5q157 0 239 90t82 244q0 102 -29 173t-84 110t-123 56t-157 17h-133v96h174 q86 0 150.5 28t100.5 76.5t53.5 105.5t17.5 122q0 297 -312 297q-141 0 -219 -74.5t-78 -232.5h-98q0 204 105.5 303.5t297.5 99.5q179 0 293.5 -95t114.5 -284z" />
<glyph unicode="4" horiz-adv-x="1052" d="M811 0h-100v416h-654v84l637 1061h117v-1053h172v-92h-172v-416zM166 508h545v905z" />
<glyph unicode="5" horiz-adv-x="1044" d="M866 1466h-602v-553h236q213 0 326.5 -107t113.5 -312v-72q0 -447 -403 -447q-205 0 -306.5 112.5t-101.5 303.5h100q0 -146 75.5 -232.5t232.5 -86.5q165 0 233 83.5t68 266.5v70q0 160 -88 245.5t-256 85.5h-330v738h702v-95z" />
<glyph unicode="6" horiz-adv-x="1032" d="M217 1096v-281q43 72 131 112t205 40q399 0 399 -463v-82q0 -447 -420 -447q-99 0 -171.5 22t-128.5 72.5t-84.5 140.5t-28.5 218v651q0 254 98.5 380t323.5 126q194 0 290.5 -97.5t96.5 -283.5h-101q-2 146 -72 218.5t-216 72.5q-94 0 -158.5 -28.5t-99.5 -84.5 t-49.5 -124.5t-14.5 -161.5zM219 553v-119q0 -201 69 -284.5t247 -83.5q160 0 237.5 84.5t77.5 277.5v74q0 192 -77.5 283.5t-235.5 91.5q-318 0 -318 -324z" />
<glyph unicode="7" horiz-adv-x="905" d="M287 0h-113l569 1464h-712v97h823v-91z" />
<glyph unicode="8" horiz-adv-x="1058" d="M526 66q169 0 260 99t91 255q0 81 -19.5 144t-52.5 102t-79 64.5t-95 35.5t-105 10q-72 0 -131 -17t-110 -55.5t-80 -111t-29 -172.5q0 -156 91 -255t259 -99zM526 -25q-215 0 -333.5 121t-118.5 326q0 164 76.5 266.5t189.5 136.5q-117 38 -175.5 135.5t-58.5 225.5 q0 134 56 225.5t148.5 132.5t215.5 41t215.5 -41t148.5 -132.5t56 -225.5q0 -128 -58 -225.5t-175 -135.5q113 -34 189.5 -136.5t76.5 -266.5q0 -205 -119 -326t-334 -121zM526 866q84 0 147.5 25.5t99.5 71t53.5 100.5t17.5 121q0 85 -26.5 147.5t-72.5 97t-100.5 50.5 t-118.5 16t-118.5 -16t-100.5 -50.5t-72 -97t-26 -147.5q0 -66 17.5 -121t53.5 -100.5t99 -71t147 -25.5z" />
<glyph unicode="9" horiz-adv-x="1032" d="M496 66q94 0 158.5 28.5t99 84.5t49 124.5t14.5 161.5v278q-43 -72 -130.5 -110.5t-205.5 -38.5q-399 0 -399 463v82q0 446 420 446q99 0 171.5 -22t128.5 -72.5t84.5 -140t28.5 -217.5v-652q0 -255 -98 -380.5t-323 -125.5q-194 0 -291 97.5t-97 283.5h101 q2 -146 72 -218t217 -72zM815 1008v118q0 201 -68.5 285t-246.5 84q-160 0 -238 -84.5t-78 -277.5v-74q0 -192 78 -283.5t236 -91.5q69 0 123.5 15.5t99.5 51t69.5 100.5t24.5 157z" />
<glyph unicode=":" horiz-adv-x="413" d="M264 135v-135h-117v135h117zM264 1188v-135h-117v135h117z" />
<glyph unicode=";" horiz-adv-x="413" d="M139 -315h-90l158 495h110zM262 1188v-135h-117v135h117z" />
<glyph unicode="&#x3c;" horiz-adv-x="970" d="M166 606v90l637 389v-102l-537 -332l537 -325v-107z" />
<glyph unicode="=" horiz-adv-x="970" d="M811 625v-88h-651v88h651zM811 1026v-88h-651v88h651z" />
<glyph unicode="&#x3e;" horiz-adv-x="970" d="M803 698v-90l-637 -389v103l536 329l-536 328v106z" />
<glyph unicode="?" horiz-adv-x="958" d="M475 475v-55h-98v51q0 106 22.5 180.5t58.5 114.5t79.5 68.5t86.5 54t79 58.5t58.5 94.5t22.5 150.5q0 74 -16.5 128.5t-44 88t-70 53.5t-87.5 27.5t-103 7.5q-154 0 -230.5 -90.5t-76.5 -241.5h-97q0 90 22 162t59.5 119.5t90.5 79.5t112.5 45.5t127.5 13.5 q416 0 416 -389q0 -81 -14 -142.5t-38 -100.5t-55 -67.5t-65 -49t-68 -40t-65 -45t-55 -60t-38 -89t-14 -127.5zM475 125v-125h-100v125h100z" />
<glyph unicode="@" horiz-adv-x="2035" d="M979 1200q190 0 276 -133l2 113h84v-531q0 -149 46 -205.5t145 -56.5q79 0 128.5 37.5t78 138t28.5 273.5q0 331 -191.5 496t-549.5 165q-211 0 -353.5 -42t-232 -136.5t-128 -236.5t-38.5 -351q0 -163 32 -285.5t91.5 -204.5t152 -132.5t205.5 -72.5t261 -22 q162 0 318.5 23t258.5 55v-80q-96 -32 -253.5 -53.5t-327.5 -21.5q-128 0 -232 15t-200 50t-167 95t-124 146t-80 208t-27 276q0 231 49.5 391.5t155 262.5t262.5 148t381 46q139 0 259 -24.5t224.5 -80t178.5 -139.5t116.5 -209t42.5 -282q0 -284 -75.5 -405.5 t-241.5 -121.5q-116 0 -173.5 47.5t-76.5 131.5q-40 -88 -119 -136.5t-186 -48.5q-74 0 -133 22t-105 69.5t-71 129t-25 193.5v67q0 215 91 313.5t243 98.5zM733 780v-53q0 -178 65.5 -259t190.5 -81q121 0 193.5 72.5t72.5 222.5v145q0 80 -20 139t-56.5 92t-82 48.5 t-101.5 15.5q-127 0 -194.5 -79t-67.5 -263z" />
<glyph unicode="A" horiz-adv-x="1150" d="M985 0l-141 485h-547l-139 -485h-111l465 1561h125l467 -1561h-119zM571 1436l-245 -854h491z" />
<glyph unicode="B" horiz-adv-x="1124" d="M1026 446v-47q0 -216 -111 -307.5t-354 -91.5h-395v1561h360q86 0 150 -9t123 -33.5t96 -65.5t59 -108.5t23 -160.5v-37q0 -136 -52.5 -218.5t-144.5 -111.5q108 -33 177 -124.5t69 -246.5zM920 403v27q0 186 -91.5 257t-289.5 71h-267v-664h306q190 0 266 72t76 237z M272 1466v-614h287q171 0 242 70.5t71 226.5v18q0 78 -17 133t-44.5 87t-75 50t-95.5 23.5t-120 5.5h-248z" />
<glyph unicode="C" horiz-adv-x="1107" d="M903 424h105v-16q-3 -109 -25 -186.5t-69.5 -134.5t-127 -84.5t-194.5 -27.5q-108 0 -186.5 24t-128.5 67t-79.5 113t-41 151.5t-11.5 193.5v506q0 113 12 196.5t42 153.5t80.5 113.5t128.5 67.5t184 24q215 0 313.5 -106t98.5 -322v-12h-107v14q0 165 -73 246.5 t-232 81.5q-65 0 -115.5 -11.5t-86 -31.5t-60.5 -52.5t-39.5 -67t-23 -84.5t-11 -95t-2.5 -107v-510q0 -57 1.5 -98t7 -87.5t16 -78.5t27 -64.5t42 -54t59.5 -38.5t80.5 -25t104.5 -8q170 0 236 77t75 257v16z" />
<glyph unicode="D" horiz-adv-x="1167" d="M166 0v1561h373q141 0 235 -32.5t148.5 -105t77 -173.5t22.5 -251v-452q0 -145 -23 -243.5t-79 -169t-151 -102.5t-237 -32h-366zM528 1466h-256v-1372h263q94 0 161 19t109 53.5t66 92.5t33 124.5t9 161.5v450q0 87 -6 149.5t-22 118t-43 91.5t-70 62.5t-103 38 t-141 11.5z" />
<glyph unicode="E" horiz-adv-x="1040" d="M281 1466v-610h557v-94h-557v-668h649v-94h-756v1561h735v-95h-628z" />
<glyph unicode="F" horiz-adv-x="1015" d="M930 1561v-97h-649v-606h573v-96h-573v-762h-107v1561h756z" />
<glyph unicode="G" horiz-adv-x="1196" d="M954 479v201h-348v96h451v-291q0 -105 -10.5 -180.5t-39.5 -141t-79.5 -105t-130 -61.5t-191.5 -22t-192.5 22.5t-132.5 63.5t-82.5 109.5t-42 150t-11.5 195.5v518q0 292 106 421.5t363 129.5q125 0 211 -27t137.5 -83.5t74 -134.5t24.5 -189v-12h-105v12 q0 181 -76 259.5t-266 78.5q-89 0 -152.5 -19t-104 -53.5t-64 -92t-32.5 -125t-9 -161.5v-522q0 -101 8 -168.5t30 -124t62 -87.5t102.5 -47.5t153.5 -16.5q89 0 151 18t100 48.5t59.5 84t28.5 112t7 144.5z" />
<glyph unicode="H" horiz-adv-x="1204" d="M1038 1561v-1561h-104v758h-662v-758h-106v1561h106v-709h662v709h104z" />
<glyph unicode="I" horiz-adv-x="452" d="M279 1561v-1561h-105v1561h105z" />
<glyph unicode="J" horiz-adv-x="948" d="M27 324h96q5 -119 67.5 -185.5t208.5 -66.5q158 0 224.5 88t66.5 284v1117h105v-1108q0 -257 -97.5 -367.5t-296.5 -110.5q-186 0 -279 90t-95 259z" />
<glyph unicode="K" horiz-adv-x="1153" d="M1106 0h-131l-516 745h-187v-745h-106v1561h106v-719h185l471 719h127l-508 -764z" />
<glyph unicode="L" horiz-adv-x="948" d="M877 96v-96h-703v1561h105v-1465h598z" />
<glyph unicode="M" horiz-adv-x="1361" d="M166 1561h125l393 -914l397 914h115v-1561h-98v1376l-367 -839h-100l-367 835v-1372h-98v1561z" />
<glyph unicode="N" horiz-adv-x="1198" d="M166 1561h129l637 -1389v1389h100v-1561h-121l-643 1386v-1386h-102v1561z" />
<glyph unicode="O" horiz-adv-x="1216" d="M254 1042v-524q0 -93 7.5 -157.5t29.5 -122.5t60.5 -92.5t102.5 -54t154 -19.5q91 0 155.5 20t103 53.5t60.5 92.5t29 122.5t7 157.5v524q0 93 -7.5 157.5t-29.5 123t-61 92.5t-103 54t-154 20q-91 0 -155 -20t-103 -54t-60.5 -93t-28.5 -122.5t-7 -157.5zM608 1585 q135 0 225 -32t142.5 -102t74 -166.5t21.5 -237.5v-533q0 -141 -21.5 -237.5t-74 -166.5t-142.5 -102.5t-225 -32.5t-225 32.5t-142.5 102.5t-74 166.5t-21.5 237.5v533q0 141 21.5 237.5t74 166.5t142.5 102t225 32z" />
<glyph unicode="P" horiz-adv-x="1019" d="M166 0v1561h358q81 0 143 -10.5t117 -37t90.5 -70.5t55.5 -113.5t20 -162.5v-98q0 -114 -24 -190.5t-76 -121.5t-126.5 -64t-184.5 -19h-267v-674h-106zM272 1466v-698h273q90 0 146.5 14.5t91.5 51t48 93t13 146.5v82q0 98 -20.5 161t-65 95.5t-99 43.5t-139.5 11h-248z " />
<glyph unicode="Q" horiz-adv-x="1216" d="M608 1585q135 0 225 -32t142.5 -102t74 -166.5t21.5 -237.5v-533q0 -215 -54.5 -337.5t-187.5 -170.5l164 -340h-123l-141 318q-83 -9 -121 -9q-135 0 -225 32.5t-142.5 102.5t-74 166.5t-21.5 237.5v533q0 141 21.5 237.5t74 166.5t142.5 102t225 32zM254 1042v-524 q0 -93 7.5 -157.5t29.5 -122.5t60.5 -92.5t102.5 -54t154 -19.5q91 0 155.5 20t103 53.5t60.5 92.5t29 122.5t7 157.5v524q0 93 -7.5 157.5t-29.5 123t-61 92.5t-103 54t-154 20q-91 0 -155 -20t-103 -54t-60.5 -93t-28.5 -122.5t-7 -157.5z" />
<glyph unicode="R" horiz-adv-x="1052" d="M166 0v1561h352q80 0 142 -10.5t116.5 -37t90 -70.5t55.5 -113.5t20 -162.5v-73q0 -169 -53.5 -256t-169.5 -115l264 -723h-119l-248 702q-29 -4 -96 -4h-248v-698h-106zM514 1466h-242v-673h265q176 0 237.5 64.5t61.5 242.5v55q0 79 -14.5 135t-39 90t-67 53.5 t-88.5 26t-113 6.5z" />
<glyph unicode="S" horiz-adv-x="1064" d="M516 770q-100 31 -166.5 65t-116.5 83t-73 116t-23 158q0 193 104.5 293t303.5 100q80 0 148 -18.5t127.5 -58t97 -111.5t43.5 -170h-103q-10 136 -96 200t-217 64q-151 0 -228 -70.5t-77 -226.5q0 -141 68 -212t239 -124q221 -66 317.5 -171.5t96.5 -283.5 q0 -230 -112 -329t-323 -99q-195 0 -305 100.5t-112 274.5h100q4 -138 87.5 -209t231.5 -71q168 0 248 73.5t80 257.5q0 150 -74 229t-266 140z" />
<glyph unicode="T" horiz-adv-x="1019" d="M563 0h-106v1464h-385v97h876v-97h-385v-1464z" />
<glyph unicode="U" horiz-adv-x="1196" d="M936 1561h106v-1024q0 -115 -10 -197t-38.5 -154.5t-77.5 -116.5t-128 -69t-190 -25q-112 0 -191 25t-128 68.5t-77 116.5t-38 154.5t-10 197.5v1024h106v-1031q0 -68 3 -117t11 -100t23.5 -85.5t40.5 -66t60.5 -50t85.5 -29t114 -10.5t114 10.5t85.5 29t60.5 50t40.5 66 t23.5 85.5t11 100t3 117v1031z" />
<glyph unicode="V" horiz-adv-x="1079" d="M37 1561h119l385 -1416l385 1416h116l-440 -1561h-125z" />
<glyph unicode="W" horiz-adv-x="1601" d="M866 1501l281 -1351l274 1411h115l-322 -1561h-135l-278 1335l-281 -1335h-133l-321 1561h118l271 -1409l282 1349h129z" />
<glyph unicode="X" horiz-adv-x="1132" d="M1071 0h-125l-389 715l-375 -715h-119l429 791l-426 770h122l377 -691l363 691h119l-418 -766z" />
<glyph unicode="Y" horiz-adv-x="1087" d="M18 1561h125l402 -768l405 768h117l-471 -871v-690h-104v692z" />
<glyph unicode="Z" horiz-adv-x="1009" d="M909 1464l-708 -1368h737v-96h-854v94l709 1370h-682v97h798v-97z" />
<glyph unicode="[" horiz-adv-x="624" d="M201 -258v1950h313v-93h-213v-1763h213v-94h-313z" />
<glyph unicode="\" horiz-adv-x="763" d="M94 1581h96l480 -1606h-95z" />
<glyph unicode="]" horiz-adv-x="624" d="M424 1692v-1950h-313v94h213v1763h-213v93h313z" />
<glyph unicode="^" horiz-adv-x="1122" d="M895 522l-334 529l-332 -529h-104l389 617h92l393 -617h-104z" />
<glyph unicode="_" horiz-adv-x="843" d="M784 -147v-84h-725v84h725z" />
<glyph unicode="`" horiz-adv-x="1058" d="M592 1335h-98l-199 273h117z" />
<glyph unicode="a" d="M883 0h-92l-5 150q-47 -84 -133.5 -129.5t-197.5 -45.5q-155 0 -244.5 84t-89.5 250q0 176 108 263t338 87q104 0 217 -18v201q0 154 -62 223.5t-198 69.5q-135 0 -203.5 -64t-68.5 -221h-92q0 191 88 283t278 92q177 0 267 -91.5t90 -291.5v-842zM784 383v172 q-119 18 -223 18q-181 0 -258.5 -63.5t-77.5 -196.5q0 -250 248 -250q134 0 222.5 83t88.5 237z" />
<glyph unicode="b" horiz-adv-x="1052" d="M928 770v-346q0 -122 -28.5 -210.5t-80 -139.5t-116.5 -75t-146 -24q-98 0 -176.5 38.5t-118.5 103.5l-8 -117h-92v1581h100v-502q88 146 309 146q357 0 357 -455zM825 432v342q0 182 -66 271.5t-210 89.5q-129 0 -207 -75t-78 -210v-467q0 -86 21 -148.5t60 -98t88 -52 t110 -16.5q136 0 209 84.5t73 279.5z" />
<glyph unicode="c" horiz-adv-x="983" d="M780 354h97v-12q0 -185 -88 -276t-285 -91q-199 0 -289 103.5t-90 349.5v348q0 244 94 346.5t293 102.5q191 0 275.5 -89t84.5 -268v-12h-98v12q0 131 -58.5 198t-205.5 67q-158 0 -220.5 -80.5t-62.5 -276.5v-344q0 -195 60 -280.5t219 -85.5q151 0 212.5 71.5 t61.5 204.5v12z" />
<glyph unicode="d" horiz-adv-x="1054" d="M125 430v346q0 122 28.5 210.5t80 139.5t116.5 75t146 24q98 0 176.5 -38.5t118.5 -103.5v498h100v-1581h-90l-10 121q-88 -146 -310 -146q-356 0 -356 455zM227 768v-342q0 -181 66.5 -270.5t210.5 -89.5q129 0 206.5 74.5t77.5 209.5v467q0 167 -75.5 241.5 t-202.5 74.5q-136 0 -209.5 -85t-73.5 -280z" />
<glyph unicode="e" horiz-adv-x="995" d="M768 311h96q-2 -170 -87.5 -253t-266.5 -83q-202 0 -293.5 103t-91.5 344v348q0 242 92.5 348.5t286.5 106.5t282 -106t88 -333v-200h-649v-166q0 -189 63 -271.5t220 -82.5q139 0 198 59t62 186zM504 1135q-155 0 -217 -81t-62 -278v-104h551v114q0 185 -58.5 267 t-213.5 82z" />
<glyph unicode="f" horiz-adv-x="628" d="M264 1198v-20h289v-91h-289v-1087h-100v1192q0 219 79 311t267 92q48 0 86 -6v-88q-54 6 -76 6q-146 0 -201 -69t-55 -240z" />
<glyph unicode="g" horiz-adv-x="1054" d="M502 -328q164 0 225 84.5t61 294.5v82q-90 -141 -307 -141q-356 0 -356 454v330q0 122 28.5 210.5t80 139.5t116.5 75t146 24q98 0 176.5 -38.5t118.5 -103.5l6 117h94v-1139q0 -137 -23.5 -229.5t-73.5 -147t-121 -77.5t-173 -23q-173 0 -255.5 71t-90.5 224h96 q6 -102 64.5 -154.5t187.5 -52.5zM227 768v-326q0 -181 66.5 -270.5t210.5 -89.5q129 0 206.5 75t77.5 210v450q0 167 -75.5 241.5t-202.5 74.5q-136 0 -209.5 -85t-73.5 -280z" />
<glyph unicode="h" horiz-adv-x="1071" d="M164 1581h100v-498q44 66 123.5 104t185.5 38q102 0 171.5 -28t109 -85.5t56 -133.5t16.5 -183v-795h-101v788q0 185 -59.5 265t-216.5 80q-128 0 -206.5 -74t-78.5 -209v-850h-100v1581z" />
<glyph unicode="i" horiz-adv-x="428" d="M264 1200v-1200h-100v1200h100zM266 1604v-136h-104v136h104z" />
<glyph unicode="j" horiz-adv-x="428" d="M266 1604v-136h-104v136h104zM-12 -397v92q58 -1 89.5 8t52.5 41t27.5 85.5t6.5 150.5v1220h100v-1214q0 -108 -11 -177t-41 -120.5t-84.5 -71.5t-139.5 -14z" />
<glyph unicode="k" horiz-adv-x="1030" d="M913 1200l-413 -547l493 -653h-129l-450 606h-150v-606h-100v1581h100v-885h152l375 504h122z" />
<glyph unicode="l" horiz-adv-x="528" d="M455 82v-86q-39 -4 -71 -4.5t-58.5 4t-48 12t-38.5 20t-29.5 28t-22 37.5t-15.5 46t-9.5 56t-5 65t-1.5 74v1247h100v-1255q0 -86 6.5 -131.5t30 -73t58.5 -34t104 -5.5z" />
<glyph unicode="m" horiz-adv-x="1748" d="M582 1225q251 0 309 -209q43 102 134 155.5t212 53.5q104 0 174.5 -28t110 -85.5t55.5 -133t16 -183.5v-795h-102v788q0 185 -59.5 265t-214.5 80q-132 0 -211.5 -89t-79.5 -270v-774h-101v772q0 196 -58 278.5t-214 82.5q-130 0 -209.5 -74t-79.5 -209v-850h-100v1200 h90l8 -117q41 65 123.5 103.5t196.5 38.5z" />
<glyph unicode="n" horiz-adv-x="1071" d="M164 1200h90l8 -119q44 67 124 105.5t187 38.5q102 0 171.5 -28t109 -85.5t56 -133.5t16.5 -183v-795h-101v788q0 185 -59.5 265t-216.5 80q-128 0 -206.5 -74t-78.5 -209v-850h-100v1200z" />
<glyph unicode="o" horiz-adv-x="1017" d="M227 768v-336q0 -145 26.5 -223t86.5 -110.5t170 -32.5q109 0 168.5 32.5t86 110.5t26.5 223v336q0 211 -60 288t-221 77q-110 0 -170 -33t-86.5 -110.5t-26.5 -221.5zM510 1225q137 0 218 -40.5t123 -140t42 -272.5v-344q0 -173 -42 -272.5t-123 -140t-218 -40.5 q-138 0 -219.5 40.5t-123.5 140t-42 272.5v344q0 173 42 272.5t123.5 140t219.5 40.5z" />
<glyph unicode="p" horiz-adv-x="1054" d="M563 -25q-102 0 -181.5 37.5t-117.5 98.5v-506h-100v1595h90l8 -119q92 144 305 144q181 0 272 -116.5t91 -340.5v-344q0 -122 -28 -211t-79 -140t-115.5 -74.5t-144.5 -23.5zM264 850v-467q0 -167 77.5 -242t209.5 -75q136 0 206 85t70 281v340q0 183 -66 272t-210 89 q-131 0 -209 -74t-78 -209z" />
<glyph unicode="q" horiz-adv-x="1036" d="M125 430v346q0 122 28.5 210.5t80 139.5t116.5 75t146 24q98 0 176.5 -38.5t118.5 -103.5l8 117h92v-1595h-100v516q-88 -146 -310 -146q-356 0 -356 455zM227 768v-342q0 -181 66.5 -270.5t210.5 -89.5q129 0 206.5 74.5t77.5 209.5v467q0 167 -75.5 241.5t-202.5 74.5 q-136 0 -209.5 -85t-73.5 -280z" />
<glyph unicode="r" horiz-adv-x="663" d="M164 1200h90l10 -145q40 69 117 116.5t182 47.5q25 0 60 -5v-104q-36 4 -66 4q-130 0 -211.5 -80.5t-81.5 -226.5v-807h-100v1200z" />
<glyph unicode="s" horiz-adv-x="956" d="M475 676q50 -10 82.5 -18t76.5 -22.5t72.5 -31t59.5 -43t49 -58.5t29.5 -77t11.5 -100q0 -167 -95.5 -259t-287.5 -92t-287.5 83.5t-95.5 258.5h96q0 -124 67.5 -189t219.5 -65q285 0 285 256q0 57 -16.5 100t-41 69.5t-69.5 46.5t-84 30.5t-103 22.5q-62 12 -105 24.5 t-87 37t-70 57.5t-42.5 85t-16.5 121q0 143 89.5 227.5t268.5 84.5q361 0 361 -320h-97q-5 118 -65.5 175t-198.5 57q-262 0 -262 -219q0 -63 15.5 -105t52 -68.5t78 -40.5t110.5 -28z" />
<glyph unicode="t" horiz-adv-x="643" d="M446 70q47 0 105 12v-92q-57 -15 -121 -15q-159 0 -223 82.5t-64 264.5v1138h103v-284h303v-91h-303v-763q0 -102 21.5 -157t63 -75t115.5 -20z" />
<glyph unicode="u" horiz-adv-x="1062" d="M899 0h-90l-8 125q-96 -150 -309 -150q-82 0 -142 19t-99.5 53t-63 88.5t-33 118.5t-9.5 149v797h101v-790q0 -184 58 -264t214 -80q128 0 204.5 78t76.5 221v835h100v-1200z" />
<glyph unicode="v" horiz-adv-x="925" d="M37 1200h117l309 -1081l313 1081h113l-361 -1200h-133z" />
<glyph unicode="w" horiz-adv-x="1421" d="M657 1200h113l256 -1083l242 1083h106l-284 -1200h-123l-256 1044l-258 -1044h-121l-285 1200h111l237 -1079z" />
<glyph unicode="x" horiz-adv-x="882" d="M842 0h-115l-287 553l-293 -553h-110l340 618l-309 582h114l264 -512l273 512h110l-317 -582z" />
<glyph unicode="y" horiz-adv-x="927" d="M414 -78l14 49l-393 1229h112l342 -1100l293 1100h115l-354 -1245q-61 -213 -137 -292t-201 -79q-56 0 -111 19v104q44 -16 103 -16q82 0 129.5 48.5t87.5 182.5z" />
<glyph unicode="z" horiz-adv-x="888" d="M803 1110l-621 -1016h635v-94h-756v88l619 1018h-584v94h707v-90z" />
<glyph unicode="{" horiz-adv-x="745" d="M92 670v94h51q42 0 71.5 12.5t45.5 31t24.5 51t10.5 60.5t2 72v322q0 108 11.5 176t43.5 117t87.5 69.5t144.5 20.5q40 0 69 -4v-93q-35 5 -57 5q-53 0 -88.5 -11.5t-57.5 -31.5t-33 -59t-14.5 -82t-3.5 -113v-326q0 -218 -112 -264q112 -49 112 -264v-324 q0 -70 3.5 -113t14.5 -82t33 -59t57.5 -31.5t88.5 -11.5q14 0 32.5 1t24.5 1v-90q-43 -6 -69 -6q-89 0 -144.5 20.5t-87.5 69.5t-43.5 117.5t-11.5 177.5v321q0 44 -2 71.5t-10.5 60t-24.5 51t-45.5 31t-71.5 12.5h-51z" />
<glyph unicode="|" horiz-adv-x="466" d="M285 1692v-1944h-103v1944h103z" />
<glyph unicode="}" horiz-adv-x="745" d="M653 764v-94h-51q-42 0 -71.5 -12.5t-46 -31t-25.5 -50.5t-11 -60.5t-2 -71.5v-321q0 -109 -11.5 -177.5t-43 -117.5t-86.5 -69.5t-143 -20.5q-29 0 -70 6v90q6 0 24 -1t31 -1q54 0 90 11.5t58 31.5t33 59.5t14.5 82t3.5 112.5v324q0 215 111 264q-111 46 -111 264v326 q0 70 -3.5 112.5t-14.5 82t-33 59.5t-58 31.5t-90 11.5q-20 0 -55 -5v93q27 4 70 4q87 0 142.5 -20.5t87 -69.5t43 -117t11.5 -176v-322q0 -43 2 -71.5t11 -61t25.5 -51t46 -31t71.5 -12.5h51z" />
<glyph unicode="~" horiz-adv-x="1134" d="M920 899h84q-7 -125 -66 -194.5t-147 -69.5q-52 0 -102 19.5t-90 47.5t-78 56t-82 47.5t-87 19.5q-59 0 -96.5 -52.5t-40.5 -129.5h-84q7 126 66.5 196t146.5 70q52 0 102 -19.5t89 -47.5t77 -56t82 -47.5t88 -19.5q59 0 97 52.5t41 127.5z" />
<glyph unicode="&#xa1;" horiz-adv-x="413" d="M256 -383h-98l6 1139h86zM156 1053v125h102v-125h-102z" />
<glyph unicode="&#xa2;" horiz-adv-x="1140" d="M850 354h96v-12q0 -171 -75 -260.5t-242 -101.5v-197h-99v194q-176 9 -255.5 112.5t-79.5 338.5v348q0 229 81.5 330.5t253.5 112.5v198h99v-196q166 -10 239.5 -97.5t73.5 -255.5v-12h-98v12q0 131 -58.5 198t-205.5 67q-158 0 -220.5 -80.5t-62.5 -276.5v-344 q0 -195 59.5 -280.5t218.5 -85.5q151 0 213 71.5t62 204.5v12z" />
<glyph unicode="&#xa3;" horiz-adv-x="1144" d="M692 1585q78 0 142 -19.5t115.5 -60.5t80.5 -112t29 -168v-15h-96v15q0 138 -73 203t-198 65q-71 0 -121.5 -16t-91 -56.5t-60.5 -116.5t-20 -188v-317h467v-90h-467v-619h686v-90h-993v92h209v617h-203v90h203v313q0 132 25.5 224t77 146.5t121.5 78.5t167 24z" />
<glyph unicode="&#xa4;" horiz-adv-x="970" d="M115 213l-66 63l139 144q-51 82 -51 246v18q0 163 51 248l-139 143l66 64l133 -138q75 70 237 70t240 -70l131 138l66 -64l-142 -143q54 -85 54 -248v-18q0 -164 -54 -246l142 -144l-66 -63l-133 135q-73 -65 -238 -65q-164 0 -237 65zM229 682v-12q0 -176 58.5 -243 t197.5 -67t197.5 67t58.5 243v12q0 176 -58.5 242.5t-197.5 66.5t-197.5 -66.5t-58.5 -242.5z" />
<glyph unicode="&#xa5;" horiz-adv-x="1161" d="M154 786h340l-379 775h118l351 -754l352 754h113l-381 -775h342v-92h-375v-207h375v-92h-375v-395h-107v395h-374v92h374v207h-374v92z" />
<glyph unicode="&#xa6;" horiz-adv-x="466" d="M182 524h103v-776h-103v776zM285 915h-103v777h103v-777z" />
<glyph unicode="&#xa7;" horiz-adv-x="1032" d="M907 807q0 -90 -42.5 -166.5t-131.5 -118.5q75 -39 116.5 -104t41.5 -174q0 -167 -96 -258.5t-287 -91.5q-193 0 -288 82t-95 260h96q-2 -125 66 -193t221 -68q139 0 211 67t72 196q0 48 -10 85.5t-32.5 64.5t-47 45.5t-65 33t-74.5 23t-87 18.5q-64 12 -106 24t-89 35 t-74 54.5t-45 82.5t-18 119q0 185 185 283q-82 35 -125 99.5t-43 180.5q0 141 90.5 225.5t269.5 84.5q361 0 361 -318h-97q-5 119 -65.5 177.5t-200.5 58.5q-133 0 -196.5 -58.5t-63.5 -164.5q0 -52 12.5 -90t32.5 -63t56 -43t71 -28.5t90 -21.5q44 -8 73 -14.5t69 -17.5 t66.5 -24t57.5 -31t50.5 -41.5t37 -53.5t25.5 -69.5t8 -86.5zM492 1061q-71 16 -78 18q-172 -87 -172 -243q0 -43 7.5 -76.5t25 -58t37.5 -41t53 -29.5t63 -21.5t76 -17.5q84 -17 145 -37q158 67 158 236q0 58 -16.5 101.5t-41.5 70t-69.5 46.5t-84.5 30t-103 22z" />
<glyph unicode="&#xa8;" d="M406 1522v-115h-105v115h105zM723 1522v-115h-105v115h105z" />
<glyph unicode="&#xa9;" horiz-adv-x="1566" d="M930 547h71q-3 -119 -57.5 -175.5t-171.5 -56.5q-126 0 -185 61.5t-59 217.5v229q0 156 59 217.5t185 61.5q116 0 171 -54t58 -159h-71q-7 73 -39.5 108t-116.5 35q-101 0 -135.5 -45.5t-34.5 -167.5v-221q0 -122 34.5 -167.5t135.5 -45.5q85 0 117 38.5t39 123.5z M784 39q171 0 284.5 34t184.5 113t100.5 197t30.5 297v45q0 182 -29.5 302.5t-99.5 201.5t-184 116t-287 35q-114 0 -201.5 -15t-155 -48.5t-113 -83t-75 -122.5t-43 -163.5t-14.5 -208.5v-45q0 -121 12.5 -213t41.5 -166.5t74.5 -125.5t113.5 -85t156 -49.5t204 -15.5z M784 -31q-182 0 -307.5 37.5t-209.5 123.5t-122.5 224t-38.5 340v45q2 197 41 332t123.5 219t209 121t304.5 37q182 0 307 -37.5t209 -123.5t122 -223.5t38 -338.5v-45q-2 -197 -41 -332t-122.5 -219.5t-208 -122t-304.5 -37.5z" />
<glyph unicode="&#xaa;" horiz-adv-x="790" d="M657 719h-73l-2 100q-28 -56 -91 -87.5t-147 -31.5q-109 0 -172 59.5t-63 178.5q0 125 77.5 187.5t241.5 62.5q75 0 150 -10v133q0 107 -41 154.5t-136 47.5q-99 0 -145 -45.5t-45 -148.5h-74q0 136 64 201t200 65q129 0 192.5 -63.5t63.5 -208.5v-594zM578 991v115 q-75 14 -152 14q-124 0 -178.5 -45.5t-54.5 -132.5q0 -170 172 -170q91 0 152 57.5t61 161.5zM670 565v-71h-547v71h547z" />
<glyph unicode="&#xab;" horiz-adv-x="960" d="M106 657l277 445h106l-274 -445l274 -446h-106zM418 657l274 445h107l-275 -445l275 -446h-107z" />
<glyph unicode="&#xac;" horiz-adv-x="970" d="M858 895v-352h-94v264h-651v88h745z" />
<glyph unicode="&#xad;" horiz-adv-x="749" d="M616 678v-88h-483v88h483z" />
<glyph unicode="&#xae;" horiz-adv-x="1566" d="M784 -31q-182 0 -307.5 37.5t-209.5 123.5t-122.5 224t-38.5 340v45q2 197 41 332t123.5 219t209 121t304.5 37q182 0 307 -37.5t209 -123.5t122 -223.5t38 -338.5v-45q-2 -197 -41 -332t-122.5 -219.5t-208 -122t-304.5 -37.5zM784 39q171 0 284.5 34t184.5 113 t100.5 197t30.5 297v45q0 182 -29.5 302.5t-99.5 201.5t-184 116t-287 35q-114 0 -201.5 -15t-155 -48.5t-113 -83t-75 -122.5t-43 -163.5t-14.5 -208.5v-45q0 -121 12.5 -213t41.5 -166.5t74.5 -125.5t113.5 -85t156 -49.5t204 -15.5zM590 324v772h196q101 0 156 -47.5 t55 -159.5v-15q0 -87 -27.5 -134t-86.5 -62l135 -354h-84l-123 338h-152v-338h-69zM659 1032v-307h113q90 0 122 29.5t32 115.5v15q0 48 -10.5 78t-34 44.5t-50 19.5t-69.5 5h-103z" />
<glyph unicode="&#xaf;" d="M279 1493h469v-86h-469v86z" />
<glyph unicode="&#xb0;" horiz-adv-x="585" d="M293 1135q-110 0 -173 63.5t-63 155.5v16q0 94 62 155.5t174 61.5q109 0 172 -63t63 -154v-16q0 -94 -61.5 -156.5t-173.5 -62.5zM293 1198q76 0 119 44t43 112v14q-2 72 -44.5 115t-117.5 43q-76 0 -120 -44.5t-44 -113.5v-14q3 -71 46 -113.5t118 -42.5z" />
<glyph unicode="&#xb1;" horiz-adv-x="970" d="M858 88v-88h-745v88h745zM858 846v-88h-326v-322h-94v322h-325v88h325v323h94v-323h326z" />
<glyph unicode="&#xb2;" horiz-adv-x="720" d="M223 889v-66h352v-73h-434v133q0 67 19.5 116.5t50.5 77.5t68 49t74.5 39.5t68.5 40t50.5 59t19.5 89.5q0 83 -38 116t-110 33q-139 0 -139 -157h-72q0 227 219 227q105 0 161 -55t56 -162q0 -65 -19 -112t-49.5 -73.5t-67.5 -47t-74 -39t-67.5 -41t-49.5 -61.5t-19 -93z " />
<glyph unicode="&#xb3;" horiz-adv-x="720" d="M584 1372q0 -73 -30.5 -126t-92.5 -72q61 -17 100 -66.5t39 -136.5q0 -110 -60 -172t-169 -62q-111 0 -171.5 55.5t-60.5 163.5h74q0 -69 41 -109t115 -40t113.5 43.5t39.5 116.5q0 93 -49.5 131.5t-138.5 38.5h-82v65h100q81 0 118.5 46.5t37.5 113.5q0 141 -148 141 q-143 0 -143 -147h-72q0 109 57.5 163t162.5 54q97 0 158 -50t61 -151z" />
<glyph unicode="&#xb4;" d="M547 1335h-96l180 273h114z" />
<glyph unicode="&#xb5;" horiz-adv-x="1028" d="M883 0h-90l-9 131q-43 -72 -114.5 -114t-167.5 -42q-100 0 -170.5 41t-102.5 111v-522h-102v1595h102v-817q0 -167 75.5 -242t203.5 -75q123 0 197.5 74.5t74.5 209.5v850h103v-1200z" />
<glyph unicode="&#xb6;" horiz-adv-x="1292" d="M594 -254v840h-84q-92 2 -157.5 23.5t-105.5 56.5t-63 91t-31 116.5t-8 144.5q0 86 8.5 147.5t33 118t66.5 91t111 55t166 20.5h156v-1704h-92zM1057 1450v-1704h-92v1704h92z" />
<glyph unicode="&#xb7;" horiz-adv-x="413" d="M264 678v-133h-117v133h117z" />
<glyph unicode="&#xb8;" horiz-adv-x="665" d="M285 0h82l-15 -82q90 -8 139.5 -56.5t49.5 -135.5q0 -97 -58.5 -147t-165.5 -50q-111 0 -163 22l4 74q58 -20 151 -20q74 0 108 30.5t34 96.5q0 67 -45 96t-142 29z" />
<glyph unicode="&#xb9;" horiz-adv-x="720" d="M170 823h170v647l-174 -75v84l186 82h70v-738h151v-73h-403v73z" />
<glyph unicode="&#xba;" horiz-adv-x="790" d="M201 1262v-228q0 -153 40 -207.5t154 -54.5t154.5 54.5t40.5 207.5v217q0 153 -40.5 207.5t-154.5 54.5q-111 0 -152.5 -53t-41.5 -198zM119 1022v242q0 180 63.5 250.5t212.5 70.5t213 -70.5t64 -250.5v-242q0 -179 -64.5 -250.5t-212.5 -71.5t-212 71.5t-64 250.5z M670 565v-71h-549v71h549z" />
<glyph unicode="&#xbb;" horiz-adv-x="960" d="M854 653l-276 -442h-107l274 442l-274 449h107zM545 653l-277 -442h-106l274 442l-274 449h106z" />
<glyph unicode="&#xbc;" horiz-adv-x="1462" d="M1266 0h-82v205h-340v67l323 539h99v-532h88v-74h-88v-205zM1229 1561h86l-932 -1561h-86zM170 823h170v647l-174 -75v84l186 82h70v-738h151v-73h-403v73zM930 279h254v419z" />
<glyph unicode="&#xbd;" horiz-adv-x="1462" d="M1182 1561h86l-932 -1561h-86zM170 823h170v647l-174 -75v84l186 82h70v-738h151v-73h-403v73zM961 139v-65h352v-74h-434v133q0 67 19.5 116.5t50 77.5t68 49t75 39.5t68 40t50 59t19.5 89.5q0 83 -38 116.5t-110 33.5q-64 0 -101.5 -38t-37.5 -120h-72q0 227 220 227 q105 0 161 -55t56 -162q0 -65 -19 -112t-49.5 -73.5t-67.5 -47t-74 -39t-67.5 -41t-49.5 -61.5t-19 -93z" />
<glyph unicode="&#xbe;" horiz-adv-x="1462" d="M1266 0h-82v205h-340v67l323 539h99v-532h88v-74h-88v-205zM1233 1561h86l-934 -1561h-86zM600 1372q0 -73 -30.5 -126t-92.5 -72q61 -17 100 -66.5t39 -136.5q0 -110 -60 -172t-169 -62q-111 0 -171 55.5t-60 163.5h73q0 -69 41 -109t115 -40t114 43.5t40 116.5 q0 170 -189 170h-82v65h101q81 0 118 46.5t37 113.5q0 141 -147 141q-144 0 -144 -147h-71q0 110 57.5 163.5t161.5 53.5q97 0 158 -50t61 -151zM930 279h254v419z" />
<glyph unicode="&#xbf;" horiz-adv-x="958" d="M471 702v56h98v-49q0 -106 -22.5 -181t-58.5 -115t-79 -68.5t-86.5 -54t-79.5 -58.5t-58.5 -95t-22.5 -151q0 -73 16.5 -127.5t44.5 -88t70.5 -54t87.5 -28t102 -7.5q155 0 232.5 90.5t77.5 242.5h94q0 -113 -32.5 -196.5t-90.5 -131.5t-130 -71t-159 -23 q-416 0 -416 392q0 81 14 142.5t38 99.5t55 66.5t65 48.5t68 39.5t65 45.5t55 60t38 88.5t14 127.5zM471 1053v125h102v-125h-102z" />
<glyph unicode="&#xc0;" horiz-adv-x="1150" d="M985 0l-141 485h-547l-139 -485h-111l465 1561h125l467 -1561h-119zM571 1436l-245 -854h491zM629 1694h-99l-198 272h117z" />
<glyph unicode="&#xc1;" horiz-adv-x="1150" d="M985 0l-141 485h-547l-139 -485h-111l465 1561h125l467 -1561h-119zM571 1436l-245 -854h491zM610 1694h-96l180 272h115z" />
<glyph unicode="&#xc2;" horiz-adv-x="1150" d="M985 0l-141 485h-547l-139 -485h-111l465 1561h125l467 -1561h-119zM571 1436l-245 -854h491zM760 1694l-185 172l-184 -172h-108l254 239h77l254 -239h-108z" />
<glyph unicode="&#xc3;" horiz-adv-x="1150" d="M985 0l-141 485h-547l-139 -485h-111l465 1561h125l467 -1561h-119zM571 1436l-245 -854h491zM573 1749q-50 32 -73 42.5t-51 10.5q-32 0 -50.5 -21.5t-33.5 -78.5h-82q35 182 157 182q67 0 144 -49q49 -32 73 -42.5t52 -10.5q32 0 50.5 21.5t33.5 78.5h81 q-35 -182 -157 -182q-67 0 -144 49z" />
<glyph unicode="&#xc4;" horiz-adv-x="1150" d="M985 0l-141 485h-547l-139 -485h-111l465 1561h125l467 -1561h-119zM571 1436l-245 -854h491zM461 1880v-115h-105v115h105zM778 1880v-115h-104v115h104z" />
<glyph unicode="&#xc5;" horiz-adv-x="1150" d="M985 0l-141 485h-547l-139 -485h-111l465 1561h125l467 -1561h-119zM571 1436l-245 -854h491zM784 1876q0 -100 -55 -150.5t-154 -50.5t-153.5 50t-54.5 151q0 100 54.5 149.5t153.5 49.5q100 0 154.5 -49.5t54.5 -149.5zM705 1876q0 65 -29.5 97t-100.5 32t-100 -32 t-29 -97q0 -66 29 -98.5t100 -32.5t100.5 32.5t29.5 98.5z" />
<glyph unicode="&#xc6;" horiz-adv-x="1703" d="M1610 0h-756v485h-485l-242 -485h-117l793 1561h786v-95h-628v-610h557v-94h-557v-668h649v-94zM418 582h436v870z" />
<glyph unicode="&#xc7;" horiz-adv-x="1107" d="M903 424h105v-16q-6 -217 -96 -323t-304 -110l-10 -57q90 -8 139 -56t49 -136q0 -97 -58 -147t-165 -50q-112 0 -164 22l4 74q58 -20 152 -20q73 0 107 30.5t34 96.5q0 67 -44.5 96t-141.5 29l16 120q-92 7 -158.5 34.5t-109 71.5t-68 111.5t-35.5 146t-10 183.5v506 q0 113 12 196.5t42 153.5t80.5 113.5t128.5 67.5t184 24q215 0 313.5 -106t98.5 -322v-12h-107v14q0 165 -73 246.5t-232 81.5q-65 0 -115.5 -11.5t-86 -31.5t-60.5 -52.5t-39.5 -67t-23 -84.5t-11 -95t-2.5 -107v-510q0 -57 1.5 -98t7 -87.5t16 -78.5t27 -64.5t42 -54 t59.5 -38.5t80.5 -25t104.5 -8q170 0 236 77t75 257v16z" />
<glyph unicode="&#xc8;" horiz-adv-x="1040" d="M281 1466v-610h557v-94h-557v-668h649v-94h-756v1561h735v-95h-628zM590 1694h-98l-199 272h117z" />
<glyph unicode="&#xc9;" horiz-adv-x="1040" d="M281 1466v-610h557v-94h-557v-668h649v-94h-756v1561h735v-95h-628zM569 1694h-96l180 272h115z" />
<glyph unicode="&#xca;" horiz-adv-x="1040" d="M281 1466v-610h557v-94h-557v-668h649v-94h-756v1561h735v-95h-628zM719 1694l-184 172l-185 -172h-108l254 239h77l254 -239h-108z" />
<glyph unicode="&#xcb;" horiz-adv-x="1040" d="M281 1466v-610h557v-94h-557v-668h649v-94h-756v1561h735v-95h-628zM428 1880v-115h-104v115h104zM745 1880v-115h-104v115h104z" />
<glyph unicode="&#xcc;" horiz-adv-x="452" d="M279 1561v-1561h-105v1561h105zM279 1694h-99l-198 272h116z" />
<glyph unicode="&#xcd;" horiz-adv-x="452" d="M279 1561v-1561h-105v1561h105zM260 1694h-96l180 272h115z" />
<glyph unicode="&#xce;" horiz-adv-x="452" d="M279 1561v-1561h-105v1561h105zM410 1694l-185 172l-184 -172h-109l254 239h78l254 -239h-108z" />
<glyph unicode="&#xcf;" horiz-adv-x="452" d="M279 1561v-1561h-105v1561h105zM119 1880v-115h-105v115h105zM436 1880v-115h-104v115h104z" />
<glyph unicode="&#xd0;" horiz-adv-x="1202" d="M199 827v734h372q141 0 235 -32.5t149 -105t77.5 -173.5t22.5 -251v-452q0 -145 -23 -243.5t-79 -169t-151 -102.5t-237 -32h-366v733h-168v94h168zM588 733h-283v-639h262q117 0 192.5 27.5t116 88t55.5 138.5t15 197v450q0 87 -6 149.5t-22 118t-43 91.5t-70 62.5 t-103 38t-141 11.5h-256v-639h283v-94z" />
<glyph unicode="&#xd1;" horiz-adv-x="1198" d="M166 1561h129l637 -1389v1389h100v-1561h-121l-643 1386v-1386h-102v1561zM598 1749q-49 32 -73 42.5t-52 10.5q-32 0 -50.5 -21.5t-33.5 -78.5h-82q35 182 158 182q66 0 143 -49q49 -32 73 -42.5t52 -10.5q32 0 50.5 21.5t33.5 78.5h82q-35 -182 -158 -182 q-66 0 -143 49z" />
<glyph unicode="&#xd2;" horiz-adv-x="1216" d="M254 1042v-524q0 -93 7.5 -157.5t29.5 -122.5t60.5 -92.5t102.5 -54t154 -19.5q91 0 155.5 20t103 53.5t60.5 92.5t29 122.5t7 157.5v524q0 93 -7.5 157.5t-29.5 123t-61 92.5t-103 54t-154 20q-91 0 -155 -20t-103 -54t-60.5 -93t-28.5 -122.5t-7 -157.5zM608 1585 q135 0 225 -32t142.5 -102t74 -166.5t21.5 -237.5v-533q0 -141 -21.5 -237.5t-74 -166.5t-142.5 -102.5t-225 -32.5t-225 32.5t-142.5 102.5t-74 166.5t-21.5 237.5v533q0 141 21.5 237.5t74 166.5t142.5 102t225 32zM662 1694h-99l-198 272h116z" />
<glyph unicode="&#xd3;" horiz-adv-x="1216" d="M254 1042v-524q0 -93 7.5 -157.5t29.5 -122.5t60.5 -92.5t102.5 -54t154 -19.5q91 0 155.5 20t103 53.5t60.5 92.5t29 122.5t7 157.5v524q0 93 -7.5 157.5t-29.5 123t-61 92.5t-103 54t-154 20q-91 0 -155 -20t-103 -54t-60.5 -93t-28.5 -122.5t-7 -157.5zM608 1585 q135 0 225 -32t142.5 -102t74 -166.5t21.5 -237.5v-533q0 -141 -21.5 -237.5t-74 -166.5t-142.5 -102.5t-225 -32.5t-225 32.5t-142.5 102.5t-74 166.5t-21.5 237.5v533q0 141 21.5 237.5t74 166.5t142.5 102t225 32zM643 1694h-96l180 272h115z" />
<glyph unicode="&#xd4;" horiz-adv-x="1216" d="M254 1042v-524q0 -93 7.5 -157.5t29.5 -122.5t60.5 -92.5t102.5 -54t154 -19.5q91 0 155.5 20t103 53.5t60.5 92.5t29 122.5t7 157.5v524q0 93 -7.5 157.5t-29.5 123t-61 92.5t-103 54t-154 20q-91 0 -155 -20t-103 -54t-60.5 -93t-28.5 -122.5t-7 -157.5zM608 1585 q135 0 225 -32t142.5 -102t74 -166.5t21.5 -237.5v-533q0 -141 -21.5 -237.5t-74 -166.5t-142.5 -102.5t-225 -32.5t-225 32.5t-142.5 102.5t-74 166.5t-21.5 237.5v533q0 141 21.5 237.5t74 166.5t142.5 102t225 32zM793 1694l-185 172l-184 -172h-109l254 239h78l254 -239 h-108z" />
<glyph unicode="&#xd5;" horiz-adv-x="1216" d="M254 1042v-524q0 -93 7.5 -157.5t29.5 -122.5t60.5 -92.5t102.5 -54t154 -19.5q91 0 155.5 20t103 53.5t60.5 92.5t29 122.5t7 157.5v524q0 93 -7.5 157.5t-29.5 123t-61 92.5t-103 54t-154 20q-91 0 -155 -20t-103 -54t-60.5 -93t-28.5 -122.5t-7 -157.5zM608 1585 q135 0 225 -32t142.5 -102t74 -166.5t21.5 -237.5v-533q0 -141 -21.5 -237.5t-74 -166.5t-142.5 -102.5t-225 -32.5t-225 32.5t-142.5 102.5t-74 166.5t-21.5 237.5v533q0 141 21.5 237.5t74 166.5t142.5 102t225 32zM606 1749q-49 32 -73 42.5t-52 10.5q-32 0 -50.5 -21.5 t-33.5 -78.5h-82q35 182 158 182q66 0 143 -49q49 -32 73 -42.5t52 -10.5q32 0 50.5 21.5t33.5 78.5h82q-35 -182 -157 -182q-67 0 -144 49z" />
<glyph unicode="&#xd6;" horiz-adv-x="1216" d="M254 1042v-524q0 -93 7.5 -157.5t29.5 -122.5t60.5 -92.5t102.5 -54t154 -19.5q91 0 155.5 20t103 53.5t60.5 92.5t29 122.5t7 157.5v524q0 93 -7.5 157.5t-29.5 123t-61 92.5t-103 54t-154 20q-91 0 -155 -20t-103 -54t-60.5 -93t-28.5 -122.5t-7 -157.5zM608 1585 q135 0 225 -32t142.5 -102t74 -166.5t21.5 -237.5v-533q0 -141 -21.5 -237.5t-74 -166.5t-142.5 -102.5t-225 -32.5t-225 32.5t-142.5 102.5t-74 166.5t-21.5 237.5v533q0 141 21.5 237.5t74 166.5t142.5 102t225 32zM502 1880v-115h-105v115h105zM819 1880v-115h-104v115 h104z" />
<glyph unicode="&#xd7;" horiz-adv-x="970" d="M248 1069l235 -235l236 237l67 -61l-237 -238l233 -233l-65 -68l-238 236l-237 -240l-60 65l236 236l-236 238z" />
<glyph unicode="&#xd8;" horiz-adv-x="1216" d="M608 1585q191 0 301 -72l86 179h101l-117 -244q92 -122 92 -401v-533q0 -141 -21.5 -237.5t-74 -166.5t-142.5 -102.5t-225 -32.5q-194 0 -301 72l-86 -178h-100l117 244q-93 120 -93 401v533q0 141 21.5 237.5t74 166.5t142.5 102t225 32zM254 1042v-524q0 -196 39 -289 l569 1186q-80 74 -254 74q-91 0 -155 -20t-103 -54t-60.5 -93t-28.5 -122.5t-7 -157.5zM963 518v524q0 198 -41 287l-568 -1186q80 -71 254 -71q91 0 155.5 20t103 53.5t60.5 92.5t29 122.5t7 157.5z" />
<glyph unicode="&#xd9;" horiz-adv-x="1196" d="M936 1561h106v-1024q0 -115 -10 -197t-38.5 -154.5t-77.5 -116.5t-128 -69t-190 -25q-112 0 -191 25t-128 68.5t-77 116.5t-38 154.5t-10 197.5v1024h106v-1031q0 -68 3 -117t11 -100t23.5 -85.5t40.5 -66t60.5 -50t85.5 -29t114 -10.5t114 10.5t85.5 29t60.5 50t40.5 66 t23.5 85.5t11 100t3 117v1031zM651 1694h-98l-199 272h117z" />
<glyph unicode="&#xda;" horiz-adv-x="1196" d="M936 1561h106v-1024q0 -115 -10 -197t-38.5 -154.5t-77.5 -116.5t-128 -69t-190 -25q-112 0 -191 25t-128 68.5t-77 116.5t-38 154.5t-10 197.5v1024h106v-1031q0 -68 3 -117t11 -100t23.5 -85.5t40.5 -66t60.5 -50t85.5 -29t114 -10.5t114 10.5t85.5 29t60.5 50t40.5 66 t23.5 85.5t11 100t3 117v1031zM633 1694h-96l180 272h114z" />
<glyph unicode="&#xdb;" horiz-adv-x="1196" d="M936 1561h106v-1024q0 -115 -10 -197t-38.5 -154.5t-77.5 -116.5t-128 -69t-190 -25q-112 0 -191 25t-128 68.5t-77 116.5t-38 154.5t-10 197.5v1024h106v-1031q0 -68 3 -117t11 -100t23.5 -85.5t40.5 -66t60.5 -50t85.5 -29t114 -10.5t114 10.5t85.5 29t60.5 50t40.5 66 t23.5 85.5t11 100t3 117v1031zM782 1694l-184 172l-184 -172h-109l254 239h78l254 -239h-109z" />
<glyph unicode="&#xdc;" horiz-adv-x="1196" d="M936 1561h106v-1024q0 -115 -10 -197t-38.5 -154.5t-77.5 -116.5t-128 -69t-190 -25q-112 0 -191 25t-128 68.5t-77 116.5t-38 154.5t-10 197.5v1024h106v-1031q0 -68 3 -117t11 -100t23.5 -85.5t40.5 -66t60.5 -50t85.5 -29t114 -10.5t114 10.5t85.5 29t60.5 50t40.5 66 t23.5 85.5t11 100t3 117v1031zM492 1880v-115h-105v115h105zM809 1880v-115h-104v115h104z" />
<glyph unicode="&#xdd;" horiz-adv-x="1087" d="M18 1561h125l402 -768l405 768h117l-471 -871v-690h-104v692zM578 1694h-97l181 272h114z" />
<glyph unicode="&#xde;" horiz-adv-x="1019" d="M166 0v1561h106v-322h252q81 0 143 -10.5t117 -37t90.5 -70t55.5 -113t20 -162.5v-98q0 -114 -24 -190.5t-76 -122t-126.5 -64.5t-184.5 -19h-267v-352h-106zM272 1145v-699h273q175 0 237 64.5t62 241.5v82q0 98 -20.5 161t-65 95.5t-99 43.5t-139.5 11h-248z" />
<glyph unicode="&#xdf;" horiz-adv-x="1032" d="M883 1202q0 -88 -21.5 -161t-74 -133t-132.5 -87q63 -11 114.5 -38t93.5 -73.5t65.5 -121.5t23.5 -172q0 -202 -103 -309t-312 -107h-123v90h125q156 0 233.5 84.5t77.5 235.5q0 102 -26.5 172.5t-78 109.5t-116 55.5t-152.5 16.5h-61v96h55q86 0 149 28t97.5 76.5 t50.5 105t16 122.5q0 165 -69.5 237t-202.5 72q-137 0 -201.5 -86t-64.5 -256v-1159h-101v1159q0 217 94 324.5t275 107.5q179 0 274 -96t95 -293z" />
<glyph unicode="&#xe0;" d="M883 0h-92l-5 150q-47 -84 -133.5 -129.5t-197.5 -45.5q-155 0 -244.5 84t-89.5 250q0 176 108 263t338 87q104 0 217 -18v201q0 154 -62 223.5t-198 69.5q-135 0 -203.5 -64t-68.5 -221h-92q0 191 88 283t278 92q177 0 267 -91.5t90 -291.5v-842zM784 383v172 q-119 18 -223 18q-181 0 -258.5 -63.5t-77.5 -196.5q0 -250 248 -250q134 0 222.5 83t88.5 237zM580 1376h-99l-198 273h116z" />
<glyph unicode="&#xe1;" d="M883 0h-92l-5 150q-47 -84 -133.5 -129.5t-197.5 -45.5q-155 0 -244.5 84t-89.5 250q0 176 108 263t338 87q104 0 217 -18v201q0 154 -62 223.5t-198 69.5q-135 0 -203.5 -64t-68.5 -221h-92q0 191 88 283t278 92q177 0 267 -91.5t90 -291.5v-842zM784 383v172 q-119 18 -223 18q-181 0 -258.5 -63.5t-77.5 -196.5q0 -250 248 -250q134 0 222.5 83t88.5 237zM561 1376h-96l180 273h115z" />
<glyph unicode="&#xe2;" d="M883 0h-92l-5 150q-47 -84 -133.5 -129.5t-197.5 -45.5q-155 0 -244.5 84t-89.5 250q0 176 108 263t338 87q104 0 217 -18v201q0 154 -62 223.5t-198 69.5q-135 0 -203.5 -64t-68.5 -221h-92q0 191 88 283t278 92q177 0 267 -91.5t90 -291.5v-842zM784 383v172 q-119 18 -223 18q-181 0 -258.5 -63.5t-77.5 -196.5q0 -250 248 -250q134 0 222.5 83t88.5 237zM711 1376l-185 172l-184 -172h-109l254 240h78l254 -240h-108z" />
<glyph unicode="&#xe3;" d="M883 0h-92l-5 150q-47 -84 -133.5 -129.5t-197.5 -45.5q-155 0 -244.5 84t-89.5 250q0 176 108 263t338 87q104 0 217 -18v201q0 154 -62 223.5t-198 69.5q-135 0 -203.5 -64t-68.5 -221h-92q0 191 88 283t278 92q177 0 267 -91.5t90 -291.5v-842zM784 383v172 q-119 18 -223 18q-181 0 -258.5 -63.5t-77.5 -196.5q0 -250 248 -250q134 0 222.5 83t88.5 237zM524 1432q-49 32 -73 42.5t-52 10.5q-32 0 -50.5 -22t-33.5 -79h-82q35 183 158 183q67 0 144 -49q51 -33 73.5 -43.5t50.5 -10.5q32 0 50.5 22t33.5 79h82q-35 -183 -157 -183 q-65 0 -144 50z" />
<glyph unicode="&#xe4;" d="M883 0h-92l-5 150q-47 -84 -133.5 -129.5t-197.5 -45.5q-155 0 -244.5 84t-89.5 250q0 176 108 263t338 87q104 0 217 -18v201q0 154 -62 223.5t-198 69.5q-135 0 -203.5 -64t-68.5 -221h-92q0 191 88 283t278 92q177 0 267 -91.5t90 -291.5v-842zM784 383v172 q-119 18 -223 18q-181 0 -258.5 -63.5t-77.5 -196.5q0 -250 248 -250q134 0 222.5 83t88.5 237zM420 1563v-115h-105v115h105zM737 1563v-115h-104v115h104z" />
<glyph unicode="&#xe5;" d="M883 0h-92l-5 150q-47 -84 -133.5 -129.5t-197.5 -45.5q-155 0 -244.5 84t-89.5 250q0 176 108 263t338 87q104 0 217 -18v201q0 154 -62 223.5t-198 69.5q-135 0 -203.5 -64t-68.5 -221h-92q0 191 88 283t278 92q177 0 267 -91.5t90 -291.5v-842zM784 383v172 q-119 18 -223 18q-181 0 -258.5 -63.5t-77.5 -196.5q0 -250 248 -250q134 0 222.5 83t88.5 237zM735 1559q0 -100 -55 -150.5t-154 -50.5t-154 50.5t-55 150.5t54.5 149t154.5 49t154.5 -49t54.5 -149zM655 1559q0 65 -29 97t-100 32t-100 -32t-29 -97q0 -66 29 -99t100 -33 t100 33t29 99z" />
<glyph unicode="&#xe6;" horiz-adv-x="1615" d="M508 1225q117 0 193.5 -43t117.5 -142q43 99 122.5 142t201.5 43q194 0 282 -106t88 -333v-200h-649v-166q0 -189 63 -271.5t220 -82.5q139 0 198 59t62 186h96q-2 -170 -87.5 -253t-266.5 -83q-146 0 -230 51.5t-122 155.5q-103 -207 -361 -207q-155 0 -244.5 84 t-89.5 250q0 176 108.5 263t338.5 87q104 0 217 -18v201q0 154 -62 223.5t-198 69.5t-204.5 -64t-68.5 -221h-92q0 191 88.5 283t278.5 92zM766 383v172q-119 18 -223 18q-181 0 -258.5 -63.5t-77.5 -196.5q0 -250 248 -250q134 0 222.5 83t88.5 237zM1143 1135 q-155 0 -217 -81t-62 -278v-104h551v114q0 185 -58.5 267t-213.5 82z" />
<glyph unicode="&#xe7;" horiz-adv-x="983" d="M780 354h97v-12q0 -177 -82 -268.5t-263 -98.5l-10 -57q90 -8 139.5 -56.5t49.5 -135.5q0 -97 -58.5 -147t-165.5 -50q-111 0 -163 22l4 74q58 -20 151 -20q74 0 108 30.5t34 96.5q0 67 -45 96t-142 29l17 120q-170 12 -248 116.5t-78 334.5v348q0 244 94 346.5 t293 102.5q191 0 275.5 -89t84.5 -268v-12h-98v12q0 131 -58.5 198t-205.5 67q-158 0 -220.5 -80.5t-62.5 -276.5v-344q0 -195 60 -280.5t219 -85.5q151 0 212.5 71.5t61.5 204.5v12z" />
<glyph unicode="&#xe8;" horiz-adv-x="995" d="M768 311h96q-2 -170 -87.5 -253t-266.5 -83q-202 0 -293.5 103t-91.5 344v348q0 242 92.5 348.5t286.5 106.5t282 -106t88 -333v-200h-649v-166q0 -189 63 -271.5t220 -82.5q139 0 198 59t62 186zM504 1135q-155 0 -217 -81t-62 -278v-104h551v114q0 185 -58.5 267 t-213.5 82zM555 1376h-98l-199 273h117z" />
<glyph unicode="&#xe9;" horiz-adv-x="995" d="M768 311h96q-2 -170 -87.5 -253t-266.5 -83q-202 0 -293.5 103t-91.5 344v348q0 242 92.5 348.5t286.5 106.5t282 -106t88 -333v-200h-649v-166q0 -189 63 -271.5t220 -82.5q139 0 198 59t62 186zM504 1135q-155 0 -217 -81t-62 -278v-104h551v114q0 185 -58.5 267 t-213.5 82zM535 1376h-97l180 273h115z" />
<glyph unicode="&#xea;" horiz-adv-x="995" d="M768 311h96q-2 -170 -87.5 -253t-266.5 -83q-202 0 -293.5 103t-91.5 344v348q0 242 92.5 348.5t286.5 106.5t282 -106t88 -333v-200h-649v-166q0 -189 63 -271.5t220 -82.5q139 0 198 59t62 186zM504 1135q-155 0 -217 -81t-62 -278v-104h551v114q0 185 -58.5 267 t-213.5 82zM684 1376l-184 172l-185 -172h-108l254 240h78l254 -240h-109z" />
<glyph unicode="&#xeb;" horiz-adv-x="995" d="M768 311h96q-2 -170 -87.5 -253t-266.5 -83q-202 0 -293.5 103t-91.5 344v348q0 242 92.5 348.5t286.5 106.5t282 -106t88 -333v-200h-649v-166q0 -189 63 -271.5t220 -82.5q139 0 198 59t62 186zM504 1135q-155 0 -217 -81t-62 -278v-104h551v114q0 185 -58.5 267 t-213.5 82zM393 1563v-115h-104v115h104zM711 1563v-115h-105v115h105z" />
<glyph unicode="&#xec;" horiz-adv-x="428" d="M264 1200v-1200h-100v1200h100zM268 1376h-98l-199 273h117z" />
<glyph unicode="&#xed;" horiz-adv-x="428" d="M264 1200v-1200h-100v1200h100zM248 1376h-96l180 273h114z" />
<glyph unicode="&#xee;" horiz-adv-x="428" d="M264 1200v-1200h-100v1200h100zM397 1376l-184 172l-184 -172h-109l254 240h78l254 -240h-109z" />
<glyph unicode="&#xef;" horiz-adv-x="428" d="M264 1200v-1200h-100v1200h100zM106 1563v-115h-104v115h104zM424 1563v-115h-105v115h105z" />
<glyph unicode="&#xf0;" horiz-adv-x="974" d="M287 1526l39 73q152 -69 252 -149l206 125l45 -70l-188 -114q231 -235 231 -654v-299q0 -249 -91.5 -356t-288.5 -107q-94 0 -162 22t-119 73.5t-76.5 140.5t-25.5 217v209q0 122 27 210.5t76.5 139.5t113 74.5t143.5 23.5q187 0 281 -114q-44 223 -193 375l-240 -144 l-43 70l218 131q-92 74 -205 123zM772 432v250q0 86 -21.5 148.5t-61.5 98t-89.5 52t-112.5 16.5q-137 0 -207.5 -84t-70.5 -280v-201q0 -206 65.5 -286t217.5 -80q158 0 219 89t61 277z" />
<glyph unicode="&#xf1;" horiz-adv-x="1071" d="M164 1200h90l8 -119q44 67 124 105.5t187 38.5q102 0 171.5 -28t109 -85.5t56 -133.5t16.5 -183v-795h-101v788q0 185 -59.5 265t-216.5 80q-128 0 -206.5 -74t-78.5 -209v-850h-100v1200zM543 1432q-49 32 -73 42.5t-52 10.5q-32 0 -50.5 -22t-33.5 -79h-82 q35 183 158 183q66 0 143 -49q51 -33 74 -43.5t51 -10.5q32 0 50.5 22t33.5 79h82q-35 -183 -158 -183q-64 0 -143 50z" />
<glyph unicode="&#xf2;" horiz-adv-x="1017" d="M227 768v-336q0 -145 26.5 -223t86.5 -110.5t170 -32.5q109 0 168.5 32.5t86 110.5t26.5 223v336q0 211 -60 288t-221 77q-110 0 -170 -33t-86.5 -110.5t-26.5 -221.5zM510 1225q137 0 218 -40.5t123 -140t42 -272.5v-344q0 -173 -42 -272.5t-123 -140t-218 -40.5 q-138 0 -219.5 40.5t-123.5 140t-42 272.5v344q0 173 42 272.5t123.5 140t219.5 40.5zM563 1376h-98l-199 273h117z" />
<glyph unicode="&#xf3;" horiz-adv-x="1017" d="M227 768v-336q0 -145 26.5 -223t86.5 -110.5t170 -32.5q109 0 168.5 32.5t86 110.5t26.5 223v336q0 211 -60 288t-221 77q-110 0 -170 -33t-86.5 -110.5t-26.5 -221.5zM510 1225q137 0 218 -40.5t123 -140t42 -272.5v-344q0 -173 -42 -272.5t-123 -140t-218 -40.5 q-138 0 -219.5 40.5t-123.5 140t-42 272.5v344q0 173 42 272.5t123.5 140t219.5 40.5zM545 1376h-96l180 273h114z" />
<glyph unicode="&#xf4;" horiz-adv-x="1017" d="M227 768v-336q0 -145 26.5 -223t86.5 -110.5t170 -32.5q109 0 168.5 32.5t86 110.5t26.5 223v336q0 211 -60 288t-221 77q-110 0 -170 -33t-86.5 -110.5t-26.5 -221.5zM510 1225q137 0 218 -40.5t123 -140t42 -272.5v-344q0 -173 -42 -272.5t-123 -140t-218 -40.5 q-138 0 -219.5 40.5t-123.5 140t-42 272.5v344q0 173 42 272.5t123.5 140t219.5 40.5zM694 1376l-184 172l-184 -172h-109l254 240h78l254 -240h-109z" />
<glyph unicode="&#xf5;" horiz-adv-x="1017" d="M227 768v-336q0 -145 26.5 -223t86.5 -110.5t170 -32.5q109 0 168.5 32.5t86 110.5t26.5 223v336q0 211 -60 288t-221 77q-110 0 -170 -33t-86.5 -110.5t-26.5 -221.5zM510 1225q137 0 218 -40.5t123 -140t42 -272.5v-344q0 -173 -42 -272.5t-123 -140t-218 -40.5 q-138 0 -219.5 40.5t-123.5 140t-42 272.5v344q0 173 42 272.5t123.5 140t219.5 40.5zM508 1432q-49 32 -73 42.5t-52 10.5q-32 0 -50.5 -22t-33.5 -79h-82q35 183 158 183q66 0 143 -49q51 -33 74 -43.5t51 -10.5q32 0 50.5 22t33.5 79h82q-35 -183 -158 -183 q-64 0 -143 50z" />
<glyph unicode="&#xf6;" horiz-adv-x="1017" d="M227 768v-336q0 -145 26.5 -223t86.5 -110.5t170 -32.5q109 0 168.5 32.5t86 110.5t26.5 223v336q0 211 -60 288t-221 77q-110 0 -170 -33t-86.5 -110.5t-26.5 -221.5zM510 1225q137 0 218 -40.5t123 -140t42 -272.5v-344q0 -173 -42 -272.5t-123 -140t-218 -40.5 q-138 0 -219.5 40.5t-123.5 140t-42 272.5v344q0 173 42 272.5t123.5 140t219.5 40.5zM403 1563v-115h-104v115h104zM721 1563v-115h-105v115h105z" />
<glyph unicode="&#xf7;" horiz-adv-x="970" d="M535 1157v-98h-99v98h99zM854 831v-88h-737v88h737zM535 514v-98h-99v98h99z" />
<glyph unicode="&#xf8;" horiz-adv-x="1017" d="M510 1225q136 0 217 -41l66 139h92l-88 -190q96 -102 96 -361v-344q0 -173 -42 -272.5t-123 -140t-218 -40.5q-144 0 -227 45l-70 -151h-92l94 205q-90 103 -90 354v344q0 173 42 272.5t123.5 140t219.5 40.5zM791 432v336q0 181 -43 260l-424 -919q60 -43 186 -43 q109 0 168.5 32.5t86 110.5t26.5 223zM227 768v-336q0 -177 37 -252l422 914q-62 39 -176 39q-110 0 -170 -33t-86.5 -110.5t-26.5 -221.5z" />
<glyph unicode="&#xf9;" horiz-adv-x="1062" d="M899 0h-90l-8 125q-96 -150 -309 -150q-82 0 -142 19t-99.5 53t-63 88.5t-33 118.5t-9.5 149v797h101v-790q0 -184 58 -264t214 -80q128 0 204.5 78t76.5 221v835h100v-1200zM575 1376h-98l-198 273h116z" />
<glyph unicode="&#xfa;" horiz-adv-x="1062" d="M899 0h-90l-8 125q-96 -150 -309 -150q-82 0 -142 19t-99.5 53t-63 88.5t-33 118.5t-9.5 149v797h101v-790q0 -184 58 -264t214 -80q128 0 204.5 78t76.5 221v835h100v-1200zM557 1376h-96l180 273h115z" />
<glyph unicode="&#xfb;" horiz-adv-x="1062" d="M899 0h-90l-8 125q-96 -150 -309 -150q-82 0 -142 19t-99.5 53t-63 88.5t-33 118.5t-9.5 149v797h101v-790q0 -184 58 -264t214 -80q128 0 204.5 78t76.5 221v835h100v-1200zM707 1376l-185 172l-184 -172h-109l254 240h78l254 -240h-108z" />
<glyph unicode="&#xfc;" horiz-adv-x="1062" d="M899 0h-90l-8 125q-96 -150 -309 -150q-82 0 -142 19t-99.5 53t-63 88.5t-33 118.5t-9.5 149v797h101v-790q0 -184 58 -264t214 -80q128 0 204.5 78t76.5 221v835h100v-1200zM416 1563v-115h-105v115h105zM733 1563v-115h-104v115h104z" />
<glyph unicode="&#xfd;" horiz-adv-x="927" d="M414 -78l14 49l-393 1229h112l342 -1100l293 1100h115l-354 -1245q-61 -213 -137 -292t-201 -79q-56 0 -111 19v104q44 -16 103 -16q82 0 129.5 48.5t87.5 182.5zM485 1376h-96l180 273h115z" />
<glyph unicode="&#xfe;" horiz-adv-x="1054" d="M563 -25q-102 0 -181.5 37.5t-117.5 98.5v-506h-100v1976h100v-498q93 142 303 142q181 0 272 -116.5t91 -340.5v-344q0 -122 -28 -211t-79 -140t-115.5 -74.5t-144.5 -23.5zM264 850v-467q0 -167 77.5 -242t209.5 -75q136 0 206 85t70 281v340q0 183 -66 272t-210 89 q-131 0 -209 -74t-78 -209z" />
<glyph unicode="&#xff;" horiz-adv-x="927" d="M414 -78l14 49l-393 1229h112l342 -1100l293 1100h115l-354 -1245q-61 -213 -137 -292t-201 -79q-56 0 -111 19v104q44 -16 103 -16q82 0 129.5 48.5t87.5 182.5zM344 1563v-115h-104v115h104zM662 1563v-115h-105v115h105z" />
<glyph unicode="&#x152;" horiz-adv-x="1650" d="M911 1466v-610h557v-94h-557v-668h650v-94h-979q-108 0 -187 22t-131.5 63t-84.5 108.5t-45 150t-13 195.5v483q0 113 13 195.5t45 150t84.5 108.5t131.5 63t187 22h958v-95h-629zM227 1018v-475q0 -93 7.5 -157.5t29.5 -123t61 -92.5t103 -54t154 -20h223v1368h-223 q-91 0 -155.5 -20t-103 -53.5t-60.5 -92.5t-29 -122.5t-7 -157.5z" />
<glyph unicode="&#x153;" horiz-adv-x="1642" d="M1176 -25q-134 0 -218 47.5t-122 149.5q-35 -103 -116.5 -150t-219.5 -47q-133 0 -212.5 40.5t-121 140.5t-41.5 272v344q0 130 22 217.5t70 139.5t117 74t170 22q269 0 338 -193q76 193 327 193q194 0 282.5 -106t88.5 -333v-200h-649v-166q0 -189 63 -271.5t220 -82.5 q139 0 198 59t62 186h96q-2 -170 -87.5 -253t-266.5 -83zM225 768v-336q0 -145 26.5 -223t86.5 -110.5t170 -32.5q109 0 168 32.5t85.5 110.5t26.5 223v336q0 211 -59.5 288t-220.5 77q-110 0 -170 -33t-86.5 -110.5t-26.5 -221.5zM1169 1135q-155 0 -216.5 -81t-61.5 -278 v-104h551v114q0 185 -58.5 267t-214.5 82z" />
<glyph unicode="&#x178;" horiz-adv-x="1087" d="M18 1561h125l402 -768l405 768h117l-471 -871v-690h-104v692zM436 1880v-115h-104v115h104zM754 1880v-115h-105v115h105z" />
<glyph unicode="&#x2c6;" d="M696 1335l-184 172l-184 -172h-109l254 240h78l254 -240h-109z" />
<glyph unicode="&#x2dc;" d="M510 1391q-49 32 -73 42.5t-52 10.5q-32 0 -50.5 -22t-33.5 -79h-82q35 183 158 183q66 0 143 -49q51 -33 74 -43.5t51 -10.5q32 0 50.5 22t33.5 79h82q-35 -183 -158 -183q-64 0 -143 50z" />
<glyph unicode="&#x2000;" horiz-adv-x="1037" />
<glyph unicode="&#x2001;" horiz-adv-x="2075" />
<glyph unicode="&#x2002;" horiz-adv-x="1037" />
<glyph unicode="&#x2003;" horiz-adv-x="2075" />
<glyph unicode="&#x2004;" horiz-adv-x="691" />
<glyph unicode="&#x2005;" horiz-adv-x="518" />
<glyph unicode="&#x2006;" horiz-adv-x="345" />
<glyph unicode="&#x2007;" horiz-adv-x="345" />
<glyph unicode="&#x2008;" horiz-adv-x="259" />
<glyph unicode="&#x2009;" horiz-adv-x="415" />
<glyph unicode="&#x200a;" horiz-adv-x="115" />
<glyph unicode="&#x2010;" horiz-adv-x="749" d="M616 678v-88h-483v88h483z" />
<glyph unicode="&#x2011;" horiz-adv-x="749" d="M616 678v-88h-483v88h483z" />
<glyph unicode="&#x2012;" horiz-adv-x="749" d="M616 678v-88h-483v88h483z" />
<glyph unicode="&#x2013;" horiz-adv-x="792" d="M723 653v-88h-651v88h651z" />
<glyph unicode="&#x2014;" horiz-adv-x="1419" d="M1360 653v-88h-1301v88h1301z" />
<glyph unicode="&#x2018;" horiz-adv-x="329" d="M170 1239h-100l118 342h86z" />
<glyph unicode="&#x2019;" horiz-adv-x="329" d="M178 1581h101l-123 -342h-84z" />
<glyph unicode="&#x201a;" horiz-adv-x="329" d="M178 80h101l-123 -342h-84z" />
<glyph unicode="&#x201c;" horiz-adv-x="614" d="M170 1239h-100l118 342h86zM457 1239h-101l119 342h86z" />
<glyph unicode="&#x201d;" horiz-adv-x="614" d="M178 1581h101l-123 -342h-84zM465 1581h100l-123 -342h-84z" />
<glyph unicode="&#x201e;" horiz-adv-x="614" d="M178 80h101l-123 -342h-84zM465 80h100l-123 -342h-84z" />
<glyph unicode="&#x2022;" horiz-adv-x="542" d="M389 793v-287h-235v287h235z" />
<glyph unicode="&#x2026;" horiz-adv-x="2048" d="M1765 135v-135h-114v135h114zM1083 135v-135h-116v135h116zM397 135v-135h-114v135h114z" />
<glyph unicode="&#x202f;" horiz-adv-x="415" />
<glyph unicode="&#x2039;" horiz-adv-x="653" d="M106 657l279 445h107l-275 -445l275 -446h-107z" />
<glyph unicode="&#x203a;" horiz-adv-x="653" d="M547 657l-277 -446h-108l274 446l-274 445h108z" />
<glyph unicode="&#x205f;" horiz-adv-x="518" />
<glyph unicode="&#x20ac;" horiz-adv-x="1189" d="M1040 1167h-100q0 163 -71 244.5t-207 81.5q-64 0 -111.5 -14.5t-79 -44.5t-51.5 -66.5t-30 -91.5t-13.5 -107t-3.5 -125v-100h493v-90h-493v-147h493v-91h-493v-94q0 -66 2 -112t9.5 -97t20.5 -85t35.5 -67t54.5 -51.5t78 -30t105 -11.5q140 0 198.5 76t69.5 255h98 q-6 -215 -92.5 -319.5t-273.5 -104.5q-97 0 -168 23.5t-117 67t-73.5 112.5t-38.5 151t-11 193v94h-213v91h213v147h-213v90h213v86q0 141 18.5 239.5t62.5 172t121.5 108.5t191.5 35q376 0 376 -418z" />
<glyph unicode="&#x2122;" horiz-adv-x="1345" d="M625 1561h94l213 -500l213 500h88v-877h-74v741l-196 -450h-66l-197 442v-733h-75v877zM567 1563v-76h-217v-803h-82v803h-213v76h512z" />
<glyph unicode="&#x25fc;" horiz-adv-x="1198" d="M0 1198h1198v-1198h-1198v1198z" />
</font>
</defs>
</svg>
